<svg width="71" height="50" viewBox="0 0 71 50" fill="none" xmlns="http://www.w3.org/2000/svg">
<path d="M71 0H0V50H71V0Z" fill="white"/>
<path d="M68.8898 40.7373H2.12891V47.848H68.8898V40.7373Z" fill="#253572"/>
<path d="M68.8898 2.17188H2.12891V37.2333H68.8898V2.17188Z" fill="#ED3331"/>
<path d="M56.4807 19.1602H45.033V21.1684H49.7022V33.361H51.9139V21.1684H56.4807V19.1602Z" fill="white"/>
<path d="M26.2948 29.1397C26.2948 31.4757 24.3903 33.3815 21.3184 33.3815H15.2772V19.1807H25.0251V21.1889H17.5094V24.9594C18.9838 24.7544 20.4788 24.7135 21.9533 24.8979C23.7554 25.1028 26.2948 25.738 26.2948 29.1397ZM17.5094 31.3733H21.216C22.8543 31.3733 23.8783 30.3692 23.8783 29.1192C23.8783 27.3159 22.6086 26.9266 21.6461 26.8241C20.6836 26.7012 18.4719 26.7626 17.5094 26.9266V31.3733Z" fill="white"/>
<path d="M37.5575 32.3156V33.8115H35.3253V32.3156C31.2501 32.2746 27.953 30.0615 27.953 26.168C27.953 22.0697 31.2501 20.0615 35.3253 20.0205V18.75H37.5575V20.0205C41.6328 20.0615 44.9299 22.0697 44.9299 26.168C44.9299 30.2664 41.6328 32.2746 37.5575 32.3156ZM35.3253 30.3074V22.0287H34.9977C32.3764 22.0287 30.2466 23.3811 30.2466 26.168C30.2466 28.9549 32.3764 30.3074 34.9977 30.3074H35.3253ZM37.8852 30.3074C40.5065 30.3074 42.6363 28.8115 42.6363 26.168C42.6363 23.3811 40.5065 22.0287 37.8852 22.0287H37.5575V30.3074H37.8852Z" fill="white"/>
</svg>
