<svg fill="none" xmlns="http://www.w3.org/2000/svg" viewBox="0 0 29 33"><path d="M11.9 16.788H8.957c-.03 0-.045.015-.06.047a18.424 18.424 0 01-.692 4.076c0 .016 0 .031.015.047.015.015.03.015.045.015h1.007c.03 0 .045-.015.045-.03.286-.934.511-2.148.601-3.175h.962v3.159c0 .03.03.062.06.062h.962c.03 0 .06-.031.06-.062v-4.092c0-.032-.03-.047-.06-.047zm12.457 0h-.962c-.03 0-.06.031-.06.062v3.159c-.21.062-.42.093-.66.093-.632 0-.782-.202-.782-1.074V16.85c0-.03-.03-.062-.06-.062h-.947c-.03 0-.06.031-.06.062v2.287c0 1.432.466 1.976 1.653 1.976.676 0 1.442-.186 1.893-.358.015-.015.03-.03.03-.046V16.85c.015-.047-.015-.062-.045-.062zm-20.375 0h-.977c-.03 0-.045.015-.045.047-.15.622-.466 1.68-.886 2.785l-.977-2.785c-.015-.016-.03-.032-.045-.032H.06c-.015 0-.03.016-.045.032-.015.015-.015.03 0 .046l1.473 4.17c-.15.327-.286.591-.421.84a9.842 9.842 0 00-.286.56c-.015.016-.015.032 0 .047.016.016.03.031.046.031h1.066c.015 0 .045-.015.045-.031a20.5 20.5 0 00.617-1.37 40.36 40.36 0 001.502-4.262c0-.016 0-.031-.015-.047-.03-.031-.045-.031-.06-.031zm3.501 3.22c0-.015-.015-.03-.03-.03h-.045c-.24.093-.676.155-.977.155-.676 0-.991-.187-.991-1.245 0-.855.105-1.244.991-1.244.256 0 .481.03.782.124.03 0 .045 0 .06-.03.105-.219.24-.483.39-.81v-.047c0-.015-.015-.03-.03-.03a4.39 4.39 0 00-1.277-.203c-1.397 0-2.028.684-2.028 2.225 0 1.556.63 2.256 2.028 2.256.346 0 1.052-.078 1.382-.218.03-.016.046-.047.03-.078l-.285-.824zm9.15-3.22h-.976c-.03 0-.045.015-.045.047-.15.638-.466 1.68-.886 2.785l-.977-2.785c-.015-.016-.03-.032-.045-.032h-.992c-.015 0-.03.016-.045.032-.015.015-.015.03 0 .046l1.473 4.17c-.15.327-.286.591-.421.84a6.761 6.761 0 00-.286.576c-.015.016-.015.031 0 .047.015.015.03.03.045.03h1.067c.015 0 .045-.015.045-.03.18-.358.406-.856.616-1.37.616-1.524 1.127-2.956 1.503-4.263 0-.015 0-.03-.015-.046-.03-.047-.045-.047-.06-.047zm3.607 0H17.4c-.03 0-.06.031-.06.062v4.092c0 .031.03.062.06.062h.962c.03 0 .06-.03.06-.062v-3.158h1.488c.014 0 .045-.016.045-.031.12-.28.225-.576.345-.872v-.046c-.03-.047-.045-.047-.06-.047z" fill="#EF4058"/><path d="M5.124 10.502c-1.383 0-1.923.622-1.923 2.194 0 1.602.54 2.225 1.923 2.225 1.397 0 1.938-.623 1.938-2.225 0-1.587-.54-2.194-1.938-2.194zm0 3.5c-.631 0-.827-.17-.827-1.29 0-1.183.21-1.292.827-1.292.63 0 .841.109.841 1.291 0 1.12-.195 1.292-.841 1.292zm5.785-.17c0-.016-.015-.032-.03-.032h-.045c-.24.094-.676.156-.977.156-.676 0-.992-.187-.992-1.245 0-.855.105-1.244.992-1.244.255 0 .48.03.781.124.03 0 .045 0 .06-.03.106-.219.24-.483.391-.81v-.047c0-.015-.015-.03-.03-.03a4.39 4.39 0 00-1.277-.203c-1.398 0-2.029.684-2.029 2.225 0 1.556.631 2.256 2.029 2.256.345 0 1.052-.078 1.382-.218.03-.015.045-.047.03-.078l-.285-.824zM2.9 10.61H.06c-.03 0-.06.031-.06.062v4.092c0 .031.03.062.06.062h.962c.03 0 .06-.03.06-.062v-3.174h1.472c.015 0 .045-.015.045-.03.12-.281.226-.577.346-.872v-.047c-.015-.015-.03-.031-.045-.031z" fill="#1466AC"/><path d="M28.85 20.553v-.062c0-.031 0-.078.014-.11.046-.575.076-1.275.106-2.084v-.062c.015-.545.03-1.136.03-1.743 0-.607-.015-1.198-.03-1.742v-.063a55.65 55.65 0 00-.105-2.085c0-.03 0-.077-.016-.108v-.063c0-.062-.015-.108-.015-.17v-.063c-.045-.607-.075-.98-.09-1.011 0-.063-.015-.125-.015-.171v-.047a2.261 2.261 0 00-.06-.311c0-.016 0-.031-.015-.047-.255-1.26-.931-2.645-1.773-3.687a6.611 6.611 0 00-1.037-1.043 47.668 47.668 0 00-4.222-2.878C19.398 1.649 17.43.7 17.159.59c-.015 0-.015-.015-.015-.015a6.7 6.7 0 00-2.058-.53c-.15-.015-.3-.03-.451-.03C14.485 0 14.349 0 14.215 0h-.211c-1.022.031-1.969.218-2.72.576-.105.046-2.103.995-4.372 2.38l-.09.047A49.088 49.088 0 002.598 5.88c-.57.436-1.082.996-1.548 1.712-.105.155-.105.56.346.56h1.157c.496 0 .616-.311 1.172-.732.616-.466 1.833-1.4 4.057-2.769a49.64 49.64 0 013.847-2.116c.015 0 .03-.015.045-.015 0 0 .015 0 .015-.016 0 0 .015 0 .015-.016.015 0 .03-.015.03-.015.015 0 .03-.016.045-.016.18-.093.3-.14.3-.14.511-.233 1.233-.389 1.999-.404h.3c.226 0 .451.015.662.046.465.063.886.156 1.232.312.03.015.075.03.105.046 0 0 .015.016.06.031.346.156 2.209 1.074 4.237 2.303a48.332 48.332 0 014.057 2.77c.286.217.571.528.842.87.676.903 1.232 2.132 1.322 3.081 0 .016.045.39.09 1.027 0 .047 0 .078.015.125v.093c0 .062.015.109.015.171v.063c0 .03 0 .077.015.108 0 .078.015.156.015.234 0 .046 0 .093.015.14v.03c0 .063 0 .11.015.172v.125a51.16 51.16 0 010 5.57v.124c0 .062 0 .109-.015.171v.031c0 .047 0 .094-.015.14 0 .078-.015.156-.015.234 0 .046 0 .078-.015.109v.062c0 .062-.015.109-.015.171v.093c0 .047 0 .094-.015.125-.045.638-.09 1.027-.09 1.027-.09.949-.646 2.178-1.322 3.08a4.53 4.53 0 01-.842.872c-.015 0-.405.31-1.052.777a53.3 53.3 0 01-3.005 1.992 47.866 47.866 0 01-4.237 2.303l-.06.03c-.03.016-.075.032-.105.047-.346.14-.767.25-1.232.312-.21.03-.436.046-.662.046h-.3c-.766-.015-1.488-.155-1.998-.404 0 0-.106-.047-.301-.14-.015-.016-.045-.016-.06-.031-.015-.016-.03-.016-.045-.031-.015 0-.015-.016-.03-.016s-.03-.015-.045-.015c-.015-.016-.03-.016-.06-.032h-.015c-.767-.31-2.21-1.058-3.742-1.991-2.239-1.354-3.44-2.303-4.057-2.77-.556-.42-.676-.73-1.172-.73H1.397c-.45 0-.45.404-.345.56.465.715.976 1.275 1.547 1.71a52.107 52.107 0 004.222 2.88c.12.077.24.155.376.217 2.149 1.276 3.997 2.147 4.102 2.21.736.342 1.698.544 2.72.575h.21c.136 0 .27 0 .406-.016.15 0 .3-.015.45-.03.767-.079 1.488-.265 2.06-.53 0 0 .014 0 .014-.015.256-.125 2.24-1.074 4.448-2.412a55.043 55.043 0 003.11-2.054 38.905 38.905 0 001.112-.824c.36-.28.706-.638 1.037-1.043.841-1.042 1.518-2.427 1.773-3.687 0-.016 0-.031.015-.047.015-.109.045-.218.06-.311v-.047c.015-.062.015-.124.015-.17 0-.032.045-.405.09-1.012v-.062c.03-.047.03-.094.03-.156z" fill="url(#paint0_linear)"/><defs><linearGradient id="paint0_linear" x1="14.996" y1="0" x2="14.996" y2="32.997" gradientUnits="userSpaceOnUse"><stop offset=".398" stop-color="#1466AC"/><stop offset=".659" stop-color="#EF4058"/></linearGradient></defs></svg>
