<svg width="125" height="37" fill="none" xmlns="http://www.w3.org/2000/svg">
    <path d="M119.963 36.467H4.997c-2.394 0-4.333-1.93-4.333-4.312V4.312C.664 1.93 2.603 0 4.997 0h114.966c2.394 0 4.334 1.93 4.334 4.312v27.843c0 2.383-1.94 4.312-4.334 4.312z"
          fill="#A6A6A6"/>
    <path d="M123.387 32.107c0 1.922-1.561 3.47-3.498 3.47H5.07c-1.936 0-3.517-1.548-3.517-3.47V4.38c0-1.922 1.58-3.49 3.517-3.49H119.89c1.937 0 3.518 1.549 3.518 3.49l-.02 27.727z"
          fill="#fff"/>
    <path fill-rule="evenodd" clip-rule="evenodd"
          d="M25.253 7.116c.156 1.37-.388 2.702-1.166 3.7-.816.98-2.138 1.723-3.421 1.625-.175-1.311.486-2.702 1.205-3.563.817-.96 2.236-1.704 3.382-1.762zm4.199 7.89c-.117.059-2.508 1.488-2.488 4.406.039 3.505 3.051 4.66 3.051 4.66-.019.078-.466 1.684-1.593 3.29-.934 1.429-1.925 2.819-3.5 2.838-.753.02-1.259-.197-1.785-.423-.546-.234-1.114-.477-2.005-.477-.949 0-1.545.253-2.12.497-.496.211-.975.415-1.65.442-1.497.06-2.644-1.507-3.616-2.917-1.963-2.859-3.48-8.087-1.438-11.65.99-1.743 2.799-2.859 4.723-2.898.852-.022 1.672.31 2.39.602.542.22 1.026.416 1.42.416.355 0 .831-.192 1.384-.416.87-.352 1.928-.78 3.009-.66.758.019 2.857.293 4.218 2.29zM65.444 12.597h-.98v-6.37h.98v6.37zm-23.955.06c-.54 0-1.02-.02-1.42-.08V6.627c.56-.08 1.12-.12 1.68-.12 2.26 0 3.3 1.118 3.3 2.936 0 2.077-1.24 3.215-3.56 3.215zm38.552 15.759c.74-.66 1.1-1.518 1.1-2.557 0-.859-.24-1.558-.78-2.117-.5-.58-1.28-1.079-2.34-1.498-.88-.36-1.48-.659-1.8-.959-.38-.3-.56-.719-.56-1.198 0-.44.18-.819.5-1.118.4-.34.94-.52 1.64-.52.88 0 1.66.18 2.36.56l.5-1.598c-.74-.38-1.68-.58-2.8-.58-1.24 0-2.26.32-3.02.96-.76.638-1.139 1.457-1.139 2.476 0 1.558 1.08 2.736 3.24 3.535.8.3 1.359.62 1.699.959.34.34.52.759.52 1.258 0 .56-.2.999-.62 1.338-.42.34-1 .5-1.74.5-1.04 0-2-.24-2.859-.76l-.46 1.638c.82.5 1.88.76 3.2.76 1.44 0 2.559-.36 3.359-1.08zm-30.734.898h-2.1L46.049 25.7H42.05l-1.1 3.615h-2.04l3.96-12.303h2.46l3.978 12.303zm-3.599-5.132l-1.04-3.216c-.12-.32-.32-1.098-.62-2.317h-.04c-.11.478-.288 1.175-.518 2.076l-.061.241-1.02 3.216h3.3zm12.538 4.154c.82-.879 1.24-2.057 1.24-3.575 0-1.338-.34-2.437-1.04-3.296-.7-.819-1.58-1.238-2.62-1.238-1.34 0-2.34.54-3 1.598h-.04l-.12-1.398h-1.739c.06.998.08 1.977.08 2.916v9.567h1.96v-4.654c.52.839 1.36 1.258 2.54 1.258 1.099 0 1.999-.4 2.739-1.178zm-.76-3.495c0-.86-.2-1.578-.58-2.138-.42-.579-1-.878-1.72-.878-.48 0-.92.16-1.32.48-.4.319-.66.738-.78 1.277-.06.2-.08.4-.1.6v1.477c0 .64.2 1.199.6 1.638.4.44.92.66 1.54.66.74 0 1.32-.28 1.74-.86.42-.559.62-1.318.62-2.256zm10.997 3.495c.82-.879 1.24-2.057 1.24-3.575 0-1.338-.36-2.437-1.06-3.296-.7-.819-1.58-1.238-2.619-1.238-1.34 0-2.34.54-3 1.598h-.04l-.12-1.398h-1.739c.06.998.08 1.977.08 2.916v9.567h1.98v-4.654c.52.839 1.36 1.258 2.539 1.258 1.1 0 2-.4 2.74-1.178zm-.78-3.495c0-.86-.2-1.578-.58-2.138-.42-.579-1-.878-1.719-.878-.48 0-.92.16-1.32.48-.4.319-.66.738-.78 1.277-.06.24-.1.44-.1.6v1.477c0 .64.2 1.199.6 1.638.4.44.92.66 1.54.66.74 0 1.32-.28 1.74-.86.42-.559.62-1.318.62-2.256zm19.976-2.916h-2.18v4.314c0 1.098.38 1.638 1.16 1.638.36 0 .64-.02.88-.1l.06 1.498c-.38.14-.9.22-1.54.22-.78 0-1.38-.24-1.82-.72-.44-.479-.66-1.278-.66-2.396v-4.474H82.28v-1.478h1.3v-1.618l1.94-.579v2.217h2.179l-.02 1.478zm8.618 6.231c.78-.879 1.18-1.997 1.18-3.355 0-1.318-.38-2.417-1.16-3.256-.78-.859-1.84-1.298-3.139-1.298-1.34 0-2.42.44-3.22 1.318-.799.88-1.199 1.997-1.199 3.376 0 1.318.38 2.416 1.16 3.275.78.859 1.82 1.298 3.12 1.298 1.359 0 2.439-.459 3.258-1.358zm-.86-3.316c0-.819-.18-1.518-.52-2.097-.42-.699-1-1.058-1.779-1.058-.8 0-1.4.36-1.82 1.058-.36.58-.52 1.298-.52 2.137 0 .82.18 1.518.52 2.097.42.7 1.02 1.059 1.8 1.059.76 0 1.34-.36 1.78-1.079.36-.599.54-1.298.54-2.117zm7.839-2.735c.2 0 .42.02.62.06v-1.878c-.16-.02-.32-.04-.5-.04-.5 0-1 .18-1.42.48-.44.339-.78.818-.98 1.398h-.06l-.08-1.698h-1.72c.04.939.06 1.857.06 2.796v6.072h1.98V24.64c0-.719.18-1.298.5-1.757.36-.52.9-.78 1.6-.78zm9.458 2.356c0 .3-.02.6-.08.9h-5.919c.02.878.3 1.557.86 2.016.5.42 1.14.62 1.94.62.879 0 1.679-.14 2.399-.42l.3 1.358c-.84.36-1.84.54-2.979.54-1.38 0-2.46-.4-3.24-1.219-.78-.819-1.179-1.897-1.179-3.256 0-1.338.359-2.456 1.099-3.335.76-.959 1.8-1.418 3.1-1.418 1.279 0 2.259.48 2.899 1.418.54.76.8 1.678.8 2.796zm-2.26-2.037c.26.42.4.94.38 1.518h-4.119c.06-.599.26-1.118.58-1.538.4-.539.94-.799 1.58-.799.72 0 1.239.26 1.579.82zm-69.445-15.1c.22-.04.48-.06.78-.06 1.44 0 2.2.78 2.2 2.178 0 1.578-.84 2.416-2.32 2.416-.32 0-.54 0-.66-.02V7.325zm7.259 5.373c-1.28 0-2.1-.958-2.1-2.237 0-1.338.84-2.296 2.18-2.296 1.26 0 2.1.898 2.1 2.236 0 1.339-.88 2.297-2.18 2.297zm-1.12-2.256c0-.92.46-1.578 1.16-1.578.68 0 1.14.659 1.12 1.558 0 .879-.46 1.578-1.14 1.578-.68 0-1.14-.66-1.14-1.558zm10.578-2.197l-1.36 4.354h-.9l-.56-1.898c-.14-.46-.26-.938-.36-1.418h-.02c-.08.48-.2.959-.36 1.418l-.6 1.898h-.9l-1.279-4.354h1l.5 2.077c.12.5.22.959.3 1.398h.02l.01-.043c.078-.353.177-.799.35-1.355l.62-2.077h.8l.6 2.037c.14.5.26.978.36 1.438h.02c.06-.44.16-.919.3-1.438l.539-2.037h.92zm4.059 4.354h.96L62.744 10c0-1.138-.6-1.837-1.52-1.837-.58 0-1.12.3-1.38.759h-.02l-.04-.68h-.86c.04.44.04.86.04 1.239v3.116h.98V10c0-.56.4-1.058.98-1.058s.88.379.88 1.158v2.496zm5.079-2.138c0 1.279.82 2.237 2.1 2.237 1.3 0 2.179-.958 2.179-2.296 0-1.339-.84-2.237-2.1-2.237-1.34 0-2.18.958-2.18 2.296zm2.14-1.597c-.7 0-1.16.659-1.16 1.578 0 .898.46 1.557 1.14 1.557.68 0 1.14-.698 1.14-1.577 0-.9-.44-1.558-1.12-1.558zm5.878 3.235l.08.5.88-.02c-.04-.26-.06-.6-.06-1.04V9.942c0-1.198-.58-1.797-1.72-1.797-.6 0-1.1.12-1.5.379l.2.64c.34-.22.7-.32 1.14-.32.6 0 .9.28.9.858v.08c-1.62 0-2.56.56-2.56 1.638 0 .739.56 1.278 1.34 1.278.56 0 .98-.2 1.28-.599h.02zm-.06-1.678c-1.08 0-1.62.26-1.62.88 0 .459.28.678.66.678.5 0 .96-.38.96-.878v-.68zm5.619 1.478l.04.7h.9c-.02-.36-.04-.76-.04-1.179V6.226h-.98v2.537h-.02c-.24-.4-.66-.6-1.24-.6-1.12 0-1.92.96-1.92 2.317 0 1.298.78 2.217 1.84 2.217.66 0 1.12-.28 1.4-.799h.02zm-.1-1.857c0-.619-.4-1.138-1.02-1.138-.72 0-1.16.639-1.16 1.538 0 .878.46 1.478 1.14 1.478.62 0 1.04-.54 1.04-1.159v-.719zm5.039.42c0 1.278.82 2.236 2.1 2.236 1.299 0 2.179-.958 2.179-2.296 0-1.339-.84-2.237-2.1-2.237-1.34 0-2.18.958-2.18 2.296zm2.14-1.598c-.7 0-1.14.659-1.14 1.578 0 .898.46 1.557 1.14 1.557.68 0 1.139-.698 1.139-1.577-.02-.9-.46-1.558-1.14-1.558zm6.378 3.735h.96V10c0-1.138-.6-1.837-1.52-1.837-.58 0-1.12.3-1.38.759h-.02l-.04-.68h-.86c.04.44.04.86.04 1.239v3.116h.98V10c0-.56.38-1.058.96-1.058s.88.379.88 1.158v2.496zm7.498-3.635h-1.06v2.117c0 .539.18.799.56.799.18 0 .32-.02.44-.04l.02.739c-.18.08-.44.1-.76.1-.76 0-1.22-.42-1.22-1.518V8.963h-.64v-.72h.64v-.798l.96-.28v1.079h1.06v.719zm4.18 3.634h.959V9.981c0-1.139-.56-1.858-1.479-1.858-.58 0-1.02.24-1.32.72h-.02V6.225h-.96v6.391h.96V9.981c0-.7.48-1.039.98-1.039.58 0 .88.4.88 1.179v2.476zm6.218-1.937h-2.919c.02.819.559 1.298 1.379 1.298.44 0 .82-.08 1.18-.2l.16.68c-.42.18-.9.26-1.46.26-1.359 0-2.179-.86-2.179-2.198s.82-2.336 2.059-2.336c1.12 0 1.82.818 1.82 2.077 0 .12 0 .26-.04.42zm-1.84-1.857c.62 0 .96.48.96 1.158h-2.019c.06-.679.499-1.158 1.059-1.158z"
          fill="#25282B"/>
</svg>
