<svg width="124" height="37" fill="none" xmlns="http://www.w3.org/2000/svg">
    <rect height="36" x="1" width="122" fill="#FFFFFF" stroke="#A6A6A6" rx="4"/>
    <path fill-rule="evenodd" clip-rule="evenodd"
          d="M43.648 11.548c.447-.502.626-1.205.626-2.008v-.402H41.68v.804h1.967c0 .502-.179.903-.447 1.205-.447.502-.894.703-1.52.703-.536 0-.983-.302-1.43-.703-.447-.402-.626-1.005-.626-1.707 0-.703.179-1.306.626-1.708.357-.502.894-.703 1.43-.703.626 0 1.073.201 1.43.703l.448-.502c-.18-.301-.447-.502-.805-.703a2.174 2.174 0 00-1.073-.3c-.804 0-1.43.3-1.967.903-.536.602-.804 1.305-.804 2.21 0 .903.268 1.606.804 2.208.537.603 1.163.904 1.967.904.805 0 1.43-.301 1.967-.904zm2.325-4.518h2.414v-.703h-3.13v6.025h3.13v-.803h-2.414V9.64h2.235v-.703h-2.235V7.03zm5.364 5.322h-.715V7.03h-1.52v-.703h3.755v.703h-1.52v5.322zm4.112-6.025v6.025h.715V6.327h-.715zm3.666 6.025h-.626V7.03h-1.52v-.703h3.666v.703h-1.52v5.322zm6.616.1c.804 0 1.43-.301 1.967-.904.536-.602.804-1.305.804-2.209 0-.904-.268-1.607-.804-2.21-.537-.602-1.163-.903-1.967-.903-.805 0-1.43.301-1.967.904-.537.602-.805 1.305-.805 2.21 0 .903.268 1.606.805 2.208.536.603 1.162.904 1.967.904zm-1.43-1.406c.357.402.893.703 1.43.703.536 0 1.073-.2 1.43-.703a2.58 2.58 0 00.626-1.707c0-.703-.179-1.306-.626-1.707-.358-.402-.894-.703-1.43-.703-.537 0-1.073.2-1.43.703a2.58 2.58 0 00-.627 1.707c0 .703.18 1.305.626 1.707zm5.185-4.72v6.026h.626v-4.92l2.771 4.92h.715V6.327h-.715v4.72l-2.593-4.72h-.804zM43.168 21.378v1.611H47.1c-.092.895-.458 1.61-.915 2.058-.549.537-1.463 1.163-3.018 1.163-2.47 0-4.3-1.879-4.3-4.295a4.267 4.267 0 014.3-4.294c1.28 0 2.286.537 3.018 1.163l1.19-1.163c-1.007-.895-2.288-1.61-4.117-1.61-3.293 0-6.128 2.683-6.128 5.904s2.835 5.905 6.128 5.905c1.83 0 3.11-.536 4.208-1.7 1.097-1.073 1.463-2.594 1.463-3.757 0-.358 0-.716-.091-.985h-5.671zm10.153-1.163c-2.195 0-3.933 1.61-3.933 3.848 0 2.147 1.738 3.847 3.933 3.847s3.933-1.61 3.933-3.847c0-2.327-1.738-3.848-3.933-3.848zm4.573 3.848c0-2.237 1.738-3.848 3.933-3.848s3.933 1.521 3.933 3.848c0 2.236-1.738 3.847-3.933 3.847s-3.933-1.7-3.933-3.847zm1.738-.09c0 1.342 1.006 2.326 2.195 2.326 1.19 0 2.195-.984 2.195-2.326 0-1.432-1.006-2.326-2.195-2.326-1.189 0-2.195.984-2.195 2.326zm-8.507 0c0 1.342 1.007 2.326 2.196 2.326 1.189 0 2.195-.984 2.195-2.326 0-1.432-1.006-2.326-2.195-2.326-1.19 0-2.196.984-2.196 2.326zm30.276-3.758c2.013 0 2.927 1.521 3.293 2.416l.183.447-5.213 2.148c.457.805 1.006 1.163 1.92 1.163.915 0 1.464-.447 1.921-1.074l1.28.895c-.365.626-1.463 1.7-3.2 1.7-2.196 0-3.842-1.7-3.842-3.847 0-2.327 1.646-3.848 3.658-3.848zm-2.012 3.668c0-1.431 1.19-2.236 2.013-2.236.64 0 1.28.357 1.463.805l-3.476 1.431zm-2.561 3.669H75.09V16.367h1.738v11.184zm-4.482-6.532c-.457-.447-1.189-.895-2.104-.895-1.92 0-3.75 1.7-3.75 3.848a3.745 3.745 0 003.75 3.758c.915 0 1.647-.448 2.013-.895h.091v.537c0 1.431-.823 2.236-2.104 2.236-1.006 0-1.738-.715-1.92-1.342l-1.464.627c.457.984 1.555 2.236 3.476 2.236 2.012 0 3.659-1.163 3.659-3.936v-6.8h-1.647v.626zm-4.207 2.953c0 1.342 1.006 2.326 2.195 2.326 1.189 0 2.104-.984 2.104-2.326s-.915-2.326-2.104-2.326c-1.19 0-2.195.984-2.195 2.326zm24.513-7.605h-4.116v11.184h1.738v-4.206h2.378c1.92 0 3.75-1.342 3.75-3.489s-1.83-3.49-3.75-3.49zm-2.378 5.368h2.47c1.188 0 1.92-.984 2.011-1.968 0-.806-.731-1.88-2.012-1.88h-2.47v3.848zm12.988-1.61c-1.28 0-2.561.536-3.018 1.7l1.555.626c.366-.627.914-.806 1.555-.806.914 0 1.737.537 1.829 1.432v.09c-.274-.18-1.006-.448-1.738-.448-1.646 0-3.293.895-3.293 2.505 0 1.521 1.372 2.505 2.836 2.505 1.189 0 1.738-.536 2.195-1.073h.091v.895h1.647v-4.295c-.183-1.968-1.738-3.132-3.659-3.132zm-1.555 5.189c0 .716.824.984 1.372.984.915 0 1.83-.716 2.013-1.79a26.412 26.412 0 01-.137-.053c-.398-.16-.76-.304-1.418-.304-.823 0-1.83.268-1.83 1.163zm10.977-4.921l-1.921 4.832h-.092l-2.012-4.832h-1.829l3.018 6.8-1.738 3.758h1.738l4.665-10.558h-1.829zm-13.63 7.158h-1.737V16.367h1.738v11.184z"
          fill="#25282B"/>
    <path d="M9.928 6.59c-.277.28-.37.745-.37 1.303v20.562c0 .558.185 1.023.463 1.302l.093.093 11.48-11.536v-.186L9.927 6.59z"
          fill="url(#paint0_linear)"/>
    <path d="M25.297 22.221L21.5 18.407v-.28l3.796-3.814.092.093 4.537 2.605c1.296.744 1.296 1.954 0 2.698l-4.63 2.512z"
          fill="url(#paint1_linear)"/>
    <path d="M25.39 22.128l-3.89-3.907L9.929 29.85c.463.465 1.111.465 1.945.093l13.516-7.816z"
          fill="url(#paint2_linear)"/>
    <path d="M25.39 14.313L11.872 6.591c-.834-.465-1.482-.372-1.945.093l11.573 11.537 3.888-3.908z"
          fill="url(#paint3_linear)"/>
    <path opacity=".2"
          d="M25.297 22.036l-13.424 7.629c-.741.465-1.39.372-1.852 0l-.093.093.093.093c.463.372 1.111.465 1.852 0l13.424-7.815z"
          fill="#F4F7FB"/>
    <path opacity=".12" fill-rule="evenodd" clip-rule="evenodd"
          d="M25.296 22.035l4.63-2.605c.555-.372.925-.744.925-1.21 0 .466-.278.931-.926 1.303l-4.536 2.605-.093-.093zM9.575 28.741c.037.388.141.71.353.923h.01c.026.033.054.064.083.093v-.093h-.084a1.803 1.803 0 01-.362-.924zm0 0a3.979 3.979 0 01-.017-.38v.094c0 .098.006.194.017.286z"
          fill="#F4F7FB"/>
    <path opacity=".25"
          d="M11.873 6.684l18.053 10.327c.556.372.926.745.926 1.21 0-.465-.278-.93-.926-1.303L11.873 6.591c-1.296-.744-2.314-.186-2.314 1.302v.094c0-1.396 1.018-2.047 2.314-1.303z"
          fill="#25282B"/>
    <defs>
        <linearGradient id="paint0_linear" x1="16.443" y1="-7.297" x2="-1.963" y2="-2.345"
                        gradientUnits="userSpaceOnUse">
            <stop stop-color="#00A0FF"/>
            <stop offset=".007" stop-color="#00A1FF"/>
            <stop offset=".26" stop-color="#00BEFF"/>
            <stop offset=".512" stop-color="#00D2FF"/>
            <stop offset=".76" stop-color="#00DFFF"/>
            <stop offset="1" stop-color="#00E3FF"/>
        </linearGradient>
        <linearGradient id="paint1_linear" x1="31.623" y1="8.795" x2="9.222" y2="8.795" gradientUnits="userSpaceOnUse">
            <stop stop-color="#FFE000"/>
            <stop offset=".409" stop-color="#FFBD00"/>
            <stop offset=".775" stop-color="orange"/>
            <stop offset="1" stop-color="#FF9C00"/>
        </linearGradient>
        <linearGradient id="paint2_linear" x1="9.635" y1="12.186" x2="-5.254" y2="37.059"
                        gradientUnits="userSpaceOnUse">
            <stop stop-color="#FF3A44"/>
            <stop offset="1" stop-color="#C31162"/>
        </linearGradient>
        <linearGradient id="paint3_linear" x1=".932" y1="3.409" x2="7.528" y2="14.532" gradientUnits="userSpaceOnUse">
            <stop stop-color="#32A071"/>
            <stop offset=".069" stop-color="#2DA771"/>
            <stop offset=".476" stop-color="#15CF74"/>
            <stop offset=".801" stop-color="#06E775"/>
            <stop offset="1" stop-color="#00F076"/>
        </linearGradient>
    </defs>
</svg>
