<svg viewBox="0 0 16 16" xmlns="http://www.w3.org/2000/svg">
<path d="M5.34534 10.3447V15.5863C5.34534 15.9077 5.69147 16.1055 5.97168 15.9406L10.3231 13.3199C10.5869 13.1633 10.5869 12.7759 10.3231 12.6194L5.97168 9.9986C5.69972 9.83377 5.34534 10.0316 5.34534 10.3447Z"/>
<path d="M5.34534 0.405634V5.64715C5.34534 5.96856 5.69147 6.16635 5.97168 6.00153L10.3231 3.38077C10.5869 3.22418 10.5869 2.83684 10.3231 2.68025L5.97168 0.0594949C5.69972 -0.105333 5.34534 0.0924614 5.34534 0.405634Z"/>
<path d="M0.326538 5.37518V10.6167C0.326538 10.9381 0.672676 11.1359 0.952883 10.9711L5.30433 8.35032C5.56805 8.19374 5.56805 7.80639 5.30433 7.64981L0.952883 5.02905C0.672676 4.86422 0.326538 5.06201 0.326538 5.37518Z"/>
<path d="M10.3728 5.37519V10.6167C10.3728 10.9381 10.7189 11.1359 10.9991 10.9711L15.3506 8.35033C15.6143 8.19374 15.6143 7.8064 15.3506 7.64981L10.9991 5.02905C10.7189 4.86423 10.3728 5.06202 10.3728 5.37519Z"/>
</svg>
