<svg width="280" height="80" xmlns="http://www.w3.org/2000/svg" xmlns:xlink="http://www.w3.org/1999/xlink">
<symbol id="title-r">
<path d="M1.2.6h12.1c2.6 0 4.6.7 5.9 2.1 1.3 1.4 2 3.4 2 6 0 2.7-.7 4.8-2.1 6.3-1.4 1.5-3.6 2.3-6.5 2.3h-4v9.8H1.2V.6zm7.3 11.3h1.8c1.4 0 2.4-.3 3-.8.5-.6.7-1.3.7-2.1s-.2-1.5-.7-2.1c-.5-.6-1.4-.9-2.8-.9h-2v5.9z"/>
</symbol>
<symbol id="title-a">
<path d="M28.8 14.1l-6.2-.7c.2-1.2.6-2.2 1-2.9.4-.7 1.1-1.3 1.9-1.8.6-.4 1.4-.7 2.5-.9s2.2-.3 3.4-.3c2 0 3.5.1 4.7.4 1.2.2 2.2.8 3 1.5.6.5 1 1.3 1.3 2.3s.5 1.9.5 2.8V23c0 .9.1 1.6.2 2.1s.3 1.2.7 2h-6.1c-.2-.5-.4-.9-.5-1.1-.1-.3-.1-.7-.2-1.2-.9.9-1.7 1.6-2.6 2-1.2.5-2.5.8-4 .8-2 0-3.6-.5-4.6-1.6-1.1-1.1-1.6-2.4-1.6-3.9s.4-2.7 1.1-3.6c.8-.9 2.2-1.6 4.2-2.1 2.4-.6 4-.9 4.8-1.2.7-.2 1.5-.5 2.3-.9 0-.9-.2-1.5-.5-1.9-.3-.4-.9-.5-1.7-.5-1.1 0-1.9.2-2.4.6-.6.2-.9.8-1.2 1.6zm5.7 3.9c-.9.4-1.8.7-2.8 1-1.3.4-2.2.8-2.5 1.2-.4.4-.5.8-.5 1.4 0 .6.2 1 .5 1.4.4.4.9.6 1.6.6.7 0 1.4-.2 2-.6.6-.4 1.1-.9 1.3-1.5.3-.6.4-1.3.4-2.2V18z"/>
</symbol>
<symbol id="title-b">
<path d="M48.8 8.4c.8-.7 1.9-1 3.2-1 3.2 0 5.6.9 7.3 2.8 1.7 1.9 2.5 4.3 2.5 7.1s-.8 5.2-2.5 7.2-4.1 3-7.3 3-5.6-1-7.3-3c-1.6-2-2.5-5.2-2.5-9.7 0-4.1.7-7.5 2.1-10 1.4-2.6 3.4-3.9 6.1-4l2-.1c1.8-.1 2.7-.3 2.9-.8h5.2c0 3.5-1.7 5.3-5.2 5.5-2.4.1-4 .4-4.8.8-.8.5-1.3 1.2-1.7 2.2zm3.3 14.1c1 0 1.9-.4 2.4-1.3.6-.9.8-2.1.8-3.7s-.3-2.8-.9-3.7c-.6-.9-1.4-1.3-2.3-1.3-1.1 0-1.9.5-2.5 1.4-.6.9-.8 2.1-.8 3.6 0 1.6.3 2.8.8 3.6.7.9 1.5 1.4 2.5 1.4z"/>
</symbol>
<symbol id="title-o">
<path d="M62.6 17.5c0-2.9.9-5.3 2.6-7.2 1.8-1.9 4.1-2.8 7.1-2.8 3.4 0 6 1.1 7.7 3.3 1.4 1.8 2.1 4 2.1 6.6 0 2.9-.9 5.4-2.6 7.2-1.7 1.9-4.1 2.8-7.2 2.8-2.7 0-5-.8-6.6-2.3-2-1.9-3.1-4.4-3.1-7.6zm6.6 0c0 1.7.3 3 .9 3.8.6.8 1.4 1.2 2.3 1.2.9 0 1.7-.4 2.3-1.2.6-.8.9-2.1.9-3.9 0-1.7-.3-2.9-.9-3.7s-1.4-1.2-2.3-1.2c-1 0-1.7.4-2.4 1.2-.5.9-.8 2.1-.8 3.8z"/>
</symbol>
<symbol id="title-t">
<path d="M98.1 13.2h-4.7V27h-6.5V13.2H82V7.9h16v5.3z"/>
</symbol>
<symbol id="title-v">
<path d="M141.2 16.9c1.3.1 2.3.6 3.1 1.4.8.8 1.1 1.9 1.1 3.3 0 1.8-.5 3.2-1.6 4.1-1.1.9-3 1.4-5.8 1.4h-9.7V7.9h10.5c1.9 0 3.4.4 4.4 1.2 1 .8 1.5 2 1.5 3.4 0 1-.3 1.9-1 2.7-.6.8-1.5 1.3-2.5 1.7zm-6.3-1.7h1.7c1.1 0 1.6-.6 1.6-1.7 0-.9-.6-1.4-1.7-1.4h-1.6v3.1zm0 7.3h2.2c.5 0 1-.1 1.3-.4.3-.3.5-.7.5-1.2 0-1.2-.6-1.7-1.8-1.7h-2.2v3.3z"/>
</symbol>
<symbol id="title-c">
<path d="M211.3 19.5l6.2.8c-.3 1.5-.9 2.7-1.7 3.8-.8 1.1-1.8 1.9-3 2.5-1.2.6-2.8.9-4.6.9-1.8 0-3.3-.2-4.5-.6-1.2-.4-2.2-1-3.1-1.8-.9-.8-1.5-1.8-2-3-.5-1.1-.7-2.7-.7-4.5 0-2 .3-3.6.9-4.9.4-1 1-1.8 1.8-2.6s1.5-1.3 2.3-1.7c1.3-.6 2.9-.9 4.9-.9 2.8 0 4.9.6 6.4 1.7s2.5 2.8 3.1 4.9l-6.1.9c-.2-.8-.5-1.4-1.1-1.8-.5-.4-1.2-.6-2-.6-1.1 0-2 .4-2.6 1.3-.7.9-1 2.2-1 4 0 1.6.3 2.8 1 3.6.7.8 1.5 1.2 2.5 1.2.9 0 1.6-.2 2.2-.7.4-.7.8-1.4 1.1-2.5z"/>
</symbol>
<symbol id="title-i">
<path d="M258.2 27.1H252v-9.4l-6.4 9.4h-6.2V7.9h6.2v9.6l6.5-9.6h6.2v19.2z"/>
</symbol>
<g fill="#1E3685">
<use href="#title-r"/>
<use href="#title-a"/>
<use href="#title-b"/>
<use href="#title-o"/>
<use href="#title-t"/>
<use href="#title-a" transform="translate(76)"/>
<use href="#title-v"/>
<use href="#title-r" transform="translate(156)"/>
<use href="#title-o" transform="translate(115)"/>
<use href="#title-c"/>
<use href="#title-c" transform="translate(20)"/>
<use href="#title-i"/>
<use href="#title-i" transform="translate(21)"/>
</g>
<symbol id="descr-co">
<path d="M0 37c0-1.9.5-3.3 1.5-4.4 1-1.1 2.3-1.6 3.9-1.6 1 0 2 .2 2.8.7S9.6 33 10 33.8c.4.9.7 1.9.7 3s-.2 2.2-.7 3.1c-.5.9-1.1 1.6-1.9 2-.8.5-1.7.7-2.7.7-1.1 0-2-.3-2.8-.8-.8-.5-1.5-1.2-1.9-2.1C.2 38.9 0 38 0 37zm1.5 0c0 1.4.4 2.4 1.1 3.2.7.8 1.6 1.2 2.7 1.2s2-.4 2.8-1.2c.7-.8 1.1-1.9 1.1-3.3 0-.9-.2-1.7-.5-2.4s-.8-1.2-1.4-1.6c-.6-.4-1.3-.6-2-.6-1 0-1.9.4-2.7 1.1-.7.7-1.1 1.9-1.1 3.6z"/>
</symbol>
<symbol id="descr-b">
<path d="M20.2 31h1.2c-.1.5-.2.9-.4 1.1-.2.2-.4.4-.7.4-.3.1-.9.1-1.7.1-1.1 0-1.9.1-2.3.3-.4.2-.7.6-.9 1.1-.2.5-.3 1.1-.3 1.9.3-.5.7-.9 1.2-1.2.5-.3 1-.4 1.6-.4 1.1 0 1.9.4 2.6 1.1.7.7 1 1.7 1 3 0 .9-.2 1.7-.5 2.3-.4.6-.8 1.1-1.2 1.4-.5.3-1.1.5-2 .5-1 0-1.7-.2-2.2-.7-.5-.4-.9-1-1.2-1.7-.3-.7-.4-1.9-.4-3.6 0-2.1.4-3.6 1.1-4.3.7-.7 1.8-1.1 3.3-1.1H20c0-.1.1-.1.2-.2zm-.1 7.4c0-.8-.2-1.5-.6-2.1s-1-.8-1.7-.8c-.8 0-1.3.3-1.8.9-.4.6-.6 1.3-.6 2.3 0 .9.2 1.7.7 2.2.5.5 1 .8 1.7.8s1.2-.3 1.7-.9c.4-.7.6-1.5.6-2.4z"/>
</symbol>
<symbol id="descr-s">
<path d="M25 34.3h1.4v7h3.1v-7h1.4v7H34v-7h1.4v7h.9v3.4h-1.1v-2.3H25v-8.1z"/>
</symbol>
<symbol id="descr-e">
<path d="M45 39.8l1.4.2c-.2.8-.6 1.5-1.2 1.9-.6.5-1.4.7-2.3.7-1.2 0-2.1-.4-2.8-1.1-.7-.7-1-1.8-1-3.1 0-1.4.4-2.4 1.1-3.2.7-.8 1.6-1.1 2.7-1.1s2 .4 2.7 1.1c.7.7 1 1.8 1 3.1v.4h-6c.1.9.3 1.6.8 2.1s1 .7 1.7.7c.5 0 .9-.1 1.3-.4.1-.3.4-.7.6-1.3zm-4.5-2.2H45c-.1-.7-.2-1.2-.5-1.5-.4-.5-1-.8-1.7-.8-.6 0-1.2.2-1.6.6-.4.4-.7 1-.7 1.7z"/>
</symbol>
<symbol id="descr-r">
<path d="M49.9 45.6V34.3h1.3v1.1c.3-.4.6-.7 1-.9.4-.2.8-.3 1.4-.3.7 0 1.3.2 1.8.5.5.4.9.9 1.2 1.5.3.7.4 1.4.4 2.1 0 .8-.1 1.6-.4 2.2s-.7 1.2-1.3 1.5c-.6.4-1.2.5-1.8.5-.5 0-.9-.1-1.2-.3-.4-.2-.7-.4-.9-.7v4h-1.5zm1.3-7.2c0 1 .2 1.8.6 2.3.4.5.9.8 1.5.8s1.1-.3 1.6-.8.7-1.3.7-2.4c0-1-.2-1.8-.6-2.3-.4-.5-.9-.8-1.5-.8s-1.1.3-1.6.8c-.5.6-.7 1.4-.7 2.4z"/>
</symbol>
<symbol id="descr-o">
<path d="M59.9 38.4c0-1.5.4-2.6 1.3-3.3.7-.6 1.5-.9 2.5-.9 1.1 0 2 .4 2.7 1.1.7.7 1.1 1.7 1.1 3 0 1-.2 1.9-.5 2.5-.3.6-.8 1.1-1.4 1.4-.6.3-1.2.5-2 .5-1.1 0-2.1-.4-2.7-1.1-.6-.8-1-1.8-1-3.2zm1.4 0c0 1 .2 1.8.7 2.3.5.5 1 .8 1.7.8s1.2-.3 1.7-.8.7-1.3.7-2.4c0-1-.2-1.8-.7-2.3-.5-.5-1-.8-1.7-.8s-1.3.3-1.7.8c-.5.6-.7 1.3-.7 2.4z"/>
</symbol>
<symbol id="descr-c">
<path d="M76.2 39.5l1.4.2c-.1.9-.5 1.7-1.1 2.2-.6.5-1.4.8-2.2.8-1.1 0-2-.4-2.7-1.1-.7-.7-1-1.8-1-3.1 0-.9.1-1.6.4-2.3.3-.7.7-1.2 1.3-1.5.6-.3 1.2-.5 1.9-.5.9 0 1.6.2 2.2.7.6.4.9 1.1 1.1 1.9l-1.3.2c-.1-.5-.4-1-.7-1.2-.3-.3-.7-.4-1.2-.4-.7 0-1.3.2-1.7.7-.4.5-.6 1.3-.6 2.4 0 1.1.2 1.9.6 2.4.4.5 1 .7 1.6.7.5 0 1-.2 1.4-.5.3-.4.5-.9.6-1.6z"/>
</symbol>
<symbol id="descr-i">
<path d="M90.1 34.3h1.4v6.2l3.8-6.2h1.5v8.1h-1.4v-6.2l-3.8 6.2h-1.5v-8.1z"/>
</symbol>
<symbol id="descr-y">
<path d="M100.6 34.3h1.4v6.2l3.8-6.2h1.5v8.1h-1.4v-6.2l-3.8 6.2h-1.5v-8.1zm4.8-3.1h.9c-.1.6-.3 1.1-.7 1.5-.4.3-.9.5-1.6.5-.7 0-1.2-.2-1.6-.5-.4-.3-.6-.8-.7-1.5h.9c.1.3.2.6.4.8.2.2.5.3.9.3s.7-.1.9-.2c.4-.2.5-.5.6-.9z"/>
</symbol>
<symbol id="descr-k">
<path d="M120.8 34.3h1.4v3.5c.4 0 .7-.1.9-.3.2-.2.4-.7.8-1.5.3-.6.5-1.1.7-1.3.2-.2.4-.3.6-.4s.6-.1 1.1-.1h.3v1.1h-.4c-.4 0-.6.1-.7.2-.1.1-.3.4-.5 1-.2.5-.4.9-.6 1.1-.2.2-.4.4-.8.6.6.2 1.2.7 1.7 1.7l1.5 2.5h-1.5l-1.5-2.5c-.3-.5-.6-.8-.8-1-.2-.2-.5-.2-.8-.2v3.8h-1.4v-8.2z"/>
</symbol>
<symbol id="descr-a">
<path d="M135 41.4c-.5.4-1 .7-1.5.9-.5.2-1 .3-1.5.3-.9 0-1.6-.2-2.1-.7-.5-.4-.7-1-.7-1.7 0-.4.1-.8.3-1.1.2-.3.4-.6.7-.8.3-.2.6-.3 1-.5.3-.1.7-.1 1.2-.2 1.1-.1 1.9-.3 2.4-.5v-.4c0-.6-.1-1-.4-1.2-.4-.3-.9-.5-1.6-.5-.6 0-1.1.1-1.4.3-.3.2-.5.6-.7 1.2l-1.3-.2c.1-.6.3-1 .6-1.4.3-.4.7-.6 1.2-.8s1.1-.3 1.8-.3 1.3.1 1.7.2c.4.2.7.4 1 .6.2.2.3.6.4.9 0 .2.1.7.1 1.3V39c0 1.3 0 2.1.1 2.4.1.3.2.7.3 1h-1.4c0-.2-.1-.6-.2-1zm-.1-3c-.5.2-1.2.4-2.2.5-.6.1-1 .2-1.2.3-.2.1-.4.3-.5.4-.1.2-.2.4-.2.7 0 .4.1.7.4.9.3.2.7.4 1.2.4s1-.1 1.4-.3c.4-.2.7-.5.9-1 .1-.3.2-.8.2-1.4v-.5z"/>
</symbol>
<symbol id="descr-j">
<path d="M146.6 34.3v8.1h-1.4v-3.2h-.8c-.5 0-.8.1-1.1.2-.2.1-.6.5-1 1.2l-1.2 1.8h-1.7l1.5-2.2c.5-.7.9-1 1.4-1.1-.8-.1-1.4-.4-1.7-.9-.4-.5-.6-1-.6-1.6 0-.7.2-1.3.7-1.7.5-.4 1.2-.7 2.2-.7h3.7zm-1.3 1.2h-2c-.8 0-1.3.1-1.6.4s-.4.6-.4.9c0 .5.2.8.5 1.1.3.2 1 .3 1.8.3h1.5v-2.7z"/>
</symbol>
<symbol id="descr-z">
<path d="M179.1 38.8v-1.1c.6 0 1 0 1.2-.1.2 0 .4-.2.6-.4.2-.2.3-.5.3-.8 0-.4-.1-.7-.4-.9-.2-.2-.6-.3-1-.3-.8 0-1.3.5-1.6 1.4l-1.3-.2c.4-1.5 1.4-2.3 2.9-2.3.9 0 1.5.2 2 .7.5.5.7 1 .7 1.7s-.3 1.2-1 1.6c.4.2.7.5.9.8.2.3.3.7.3 1.2 0 .7-.3 1.3-.8 1.8s-1.3.7-2.2.7c-1.8 0-2.9-.8-3.2-2.5l1.3-.3c.1.5.4.9.7 1.2.4.3.8.4 1.2.4.5 0 .8-.1 1.2-.4.3-.3.5-.6.5-1 0-.3-.1-.6-.3-.8-.2-.2-.4-.4-.6-.4-.2-.1-.6-.1-1.2-.1.1.1 0 .1-.2.1z"/>
</symbol>
<symbol id="descr-v">
<path d="M202.9 34.3h3.2c.8 0 1.4.1 1.7.2.4.1.7.4 1 .7.3.3.4.8.4 1.2 0 .4-.1.7-.2 1-.2.3-.4.5-.7.7.4.1.7.4 1 .7.3.3.4.8.4 1.2-.1.8-.3 1.3-.8 1.7-.5.4-1.2.6-2.2.6H203v-8zm1.4 3.4h1.5c.6 0 1 0 1.2-.1.2-.1.4-.2.6-.4.2-.2.3-.4.3-.7 0-.4-.2-.7-.5-.9-.3-.2-.8-.3-1.6-.3h-1.5v2.4zm0 3.6h1.8c.8 0 1.3-.1 1.6-.3.3-.2.4-.5.5-.9 0-.3-.1-.5-.3-.7-.2-.2-.4-.4-.7-.4-.3-.1-.7-.1-1.3-.1h-1.7v2.4z"/>
</symbol>
<symbol id="descr-n">
<path d="M242.8 34.3h1.4v3.4h3.8v-3.4h1.4v8.1H248v-3.6h-3.8v3.6h-1.4v-8.1z"/>
</symbol>
<g fill="#FF4452">
<use href="#descr-co"/>
<use href="#descr-b"/>
<use href="#descr-s"/>
<use href="#descr-e"/>
<use href="#descr-r"/>
<use href="#descr-o"/>
<use href="#descr-c"/>
<use href="#descr-c" transform="translate(10)"/>
<use href="#descr-i"/>
<use href="#descr-y"/>
<use href="#descr-c" transform="translate(40)"/>
<use href="#descr-k"/>
<use href="#descr-a"/>
<use href="#descr-j"/>
<use href="#descr-b" transform="translate(142)"/>
<use href="#descr-a" transform="translate(37)"/>
<use href="#descr-z"/>
<use href="#descr-a" transform="translate(57)"/>
<use href="#descr-v"/>
<use href="#descr-a" transform="translate(83)"/>
<use href="#descr-k" transform="translate(103)"/>
<use href="#descr-a" transform="translate(103)"/>
<use href="#descr-n"/>
<use href="#descr-c" transform="translate(182)"/>
<use href="#descr-i" transform="translate(172)"/>
<use href="#descr-y" transform="translate(172)"/>
</g>
<rect fill="#1E3685" x="1" y="52" width="278.5" height="28" rx="1"/>
<g fill="#FFF">
<path d="M23.4 61.3v.5c0 .1 0 .2-.1.3 0 .1-.1.1-.1.2l-.1.1h-2.7v9.8c0 .1 0 .1-.1.2 0 .1-.1.1-.2.1s-.2.1-.3.1h-1c-.1 0-.3 0-.3-.1-.1 0-.1-.1-.2-.1 0 0-.1-.1-.1-.2v-9.8h-2.7c-.1 0-.1 0-.1-.1 0 0-.1-.1-.1-.2s0-.2-.1-.3v-.5-.5c0-.1 0-.2.1-.3 0-.1.1-.1.1-.2l.1-.1h7.6c.1 0 .1 0 .1.1 0 0 .1.1.1.2s0 .2.1.3v.5zM47.3 72.1v.2s-.1.1-.2.1-.2.1-.4.1H45.4c-.1 0-.2 0-.3-.1-.1 0-.1-.1-.2-.1 0-.1-.1-.1-.1-.2l-1-2.7c-.1-.3-.2-.6-.3-.8-.1-.2-.2-.4-.4-.6-.1-.2-.3-.3-.5-.4-.2-.1-.4-.1-.6-.1h-.7v4.6c0 .1 0 .1-.1.2 0 .1-.1.1-.2.1s-.2.1-.3.1h-1c-.1 0-.3 0-.3-.1-.1 0-.1-.1-.2-.1 0 0-.1-.1-.1-.2V61c0-.3.1-.5.2-.6.1-.1.3-.2.5-.2h4c.4.1.8.2 1.2.4.3.2.6.4.9.7.2.3.4.6.6 1 .1.4.2.8.2 1.3 0 .4 0 .8-.1 1.1-.1.3-.2.6-.4.9-.2.3-.4.5-.7.7-.3.2-.6.4-.9.5.2.1.3.2.5.3.1.1.3.3.4.5.1.2.2.4.4.6.1.2.2.5.3.8l.9 2.4c.1.2.1.4.2.5v.2zm-2.8-8.3c0-.4-.1-.7-.2-1-.2-.3-.4-.5-.8-.6-.1 0-.2-.1-.4-.1h-1.6v3.4h1.1c.3 0 .6 0 .8-.1.2-.1.4-.2.6-.4.2-.2.3-.3.4-.5 0-.2.1-.4.1-.7zM72.3 67.9c0 .7-.1 1.4-.3 2-.2.6-.5 1.1-.9 1.5-.4.4-.8.7-1.4.9-.6.2-1.2.3-1.9.3s-1.3-.1-1.8-.3c-.5-.2-1-.5-1.4-.9-.4-.4-.7-.9-.9-1.5-.2-.6-.3-1.3-.3-2v-7.4c0-.1 0-.1.1-.2 0 0 .1-.1.2-.1s.2-.1.3-.1h1c.1 0 .3 0 .3.1.1 0 .1.1.2.1 0 .1.1.1.1.2v7.2c0 .5.1.9.2 1.3s.3.6.5.9c.2.2.4.4.7.5.3.1.6.2.9.2.3 0 .7-.1.9-.2.3-.1.5-.3.7-.5.2-.2.3-.5.4-.8.1-.3.2-.7.2-1.1v-7.3-.2s.1-.1.2-.1.2-.1.3-.1h1c.1 0 .2 0 .3.1.1 0 .1.1.2.1 0 .1.1.1.1.2v7.2zM98.2 66.1c0 1.1-.1 2.1-.4 2.9-.3.8-.6 1.4-1.1 1.9-.5.5-1.1.9-1.8 1.1-.7.2-1.5.4-2.5.4h-2.6c-.2 0-.3-.1-.5-.2-.1-.1-.2-.3-.2-.6V61c0-.3.1-.5.2-.6.1-.1.3-.2.5-.2h2.8c1 0 1.8.1 2.5.4.7.3 1.2.6 1.7 1.1.5.5.8 1.1 1 1.8.2.8.4 1.7.4 2.6zm-2.3.1c0-.6-.1-1.1-.2-1.6s-.3-.9-.6-1.3-.6-.6-1-.9c-.4-.2-1-.3-1.6-.3h-1.1v8.3h1.1c.6 0 1.1-.1 1.5-.3.4-.2.8-.4 1-.8.3-.4.5-.8.6-1.3.2-.5.3-1.1.3-1.8zM119.7 72c0 .1-.1.2-.1.3 0 .1-.1.1-.2.2-.1 0-.2.1-.4.1H117.3c-.1 0-.2 0-.3-.1-.1 0-.1-.1-.2-.1l-.1-.1c0-.1 0-.1-.1-.2l-3.2-10.8c-.1-.2-.1-.4-.1-.5 0-.1 0-.2.1-.3.1-.1.2-.1.4-.1H115.1c.1 0 .3 0 .3.1.1 0 .1.1.2.1 0 .1.1.1.1.2l2.6 9.4 2.6-9.3c0-.1.1-.2.1-.3 0-.1.1-.1.2-.2.1 0 .2-.1.3-.1h1.2c.1 0 .2.1.3.1.1.1.1.2.1.3 0 .1-.1.3-.1.5L119.7 72zM145.2 68.8c0 .6-.1 1.2-.3 1.7-.2.5-.5.9-.9 1.2-.4.3-.8.6-1.3.7s-1 .2-1.6.2c-.4 0-.7 0-1-.1-.3-.1-.6-.2-.8-.2l-.6-.3c-.2-.1-.3-.2-.4-.3-.1-.1-.1-.2-.2-.4v-.7-.5c0-.1 0-.2.1-.3 0-.1.1-.1.1-.2l.1-.1c.1 0 .2.1.3.2.1.1.3.2.5.3.2.1.5.2.8.3.3.1.7.2 1.1.2.3 0 .5 0 .7-.1.2-.1.4-.2.5-.3.1-.1.3-.3.3-.5.1-.2.1-.4.1-.6 0-.3-.1-.5-.2-.7-.1-.2-.3-.4-.5-.5-.2-.2-.5-.3-.7-.4-.3-.1-.6-.3-.8-.4-.3-.2-.6-.3-.8-.5-.3-.2-.5-.4-.7-.7-.2-.3-.4-.6-.5-.9-.1-.4-.2-.8-.2-1.3 0-.6.1-1.1.3-1.5.2-.4.5-.8.8-1.1.3-.3.7-.5 1.2-.7.4-.1.9-.2 1.4-.2.3 0 .5 0 .8.1.3 0 .5.1.7.2l.6.3c.2.1.3.2.3.2.1.1.1.1.1.2 0 0 0 .1.1.2v1.5c0 .1 0 .1-.1.2l-.1.1s-.2 0-.3-.1c-.1-.1-.3-.2-.5-.3-.2-.1-.4-.2-.7-.3-.3-.1-.5-.1-.8-.1-.2 0-.4 0-.6.1-.2.1-.3.2-.4.3-.1.1-.2.3-.3.4-.1.2-.1.3-.1.5 0 .3.1.5.2.7.1.2.3.4.5.5.2.2.5.3.7.4.3.1.6.3.9.4.3.2.6.3.9.5.3.2.5.4.7.7.2.3.4.6.5.9 0 .1.1.6.1 1.1zM167.9 71.4v.5c0 .1 0 .2-.1.3 0 .1-.1.1-.1.2l-.1.1h-5.4c-.2 0-.3-.1-.5-.2-.1-.1-.2-.3-.2-.6V61c0-.3.1-.5.2-.6.1-.1.3-.2.5-.2h5.5s.1.1.1.2 0 .2.1.3v.9c0 .1 0 .2-.1.3 0 .1-.1.1-.1.2l-.1.1h-3.9v3h3.3c.1 0 .1 0 .1.1 0 0 .1.1.1.2s0 .2.1.3v.9c0 .1 0 .2-.1.3 0 .1-.1.1-.1.2h-3.4v3.4h3.9s.1 0 .1.1c0 0 .1.1.1.2s0 .2.1.3c-.1-.1 0 .1 0 .2zM196.9 72.1v.2c0 .1-.1.1-.2.1s-.2.1-.3.1h-1c-.1 0-.2 0-.3-.1-.1 0-.1-.1-.2-.1 0 0-.1-.1-.1-.2v-9.9l-3.1 9.9c0 .1-.1.1-.1.2-.1.1-.1.1-.2.1s-.2.1-.3.1h-1c-.1 0-.2 0-.3-.1-.1 0-.2-.1-.2-.1-.1 0-.1-.1-.1-.2l-3-9.9v10.1c0 .1-.1.1-.2.1s-.2.1-.3.1h-1c-.1 0-.2 0-.3-.1-.1 0-.1-.1-.2-.1V61.2c0-.3.1-.6.2-.7.1-.2.4-.3.6-.3h1.4c.3 0 .5 0 .7.1.2 0 .3.1.5.2.1.1.2.3.3.4.1.2.2.4.2.7l2.3 7.2 2.4-7.2c.1-.3.2-.5.2-.7.1-.2.2-.3.3-.4.1-.1.2-.2.4-.2s.3-.1.5-.1h1.5c.1 0 .3 0 .4.1.1 0 .2.1.3.2.1.1.1.2.2.3 0 .1.1.3.1.4v10.9zM216.2 71.1c0 .6-.1 1-.3 1.2-.2.2-.5.3-1 .3s-.8-.1-1-.3c-.2-.2-.3-.6-.3-1.1 0-.6.1-1 .3-1.2.2-.2.5-.3 1-.3s.8.1 1 .3c.2.1.3.5.3 1.1zM241 72.1v.2s-.1.1-.2.1-.2.1-.4.1H239.1c-.1 0-.2 0-.3-.1-.1 0-.1-.1-.2-.1 0-.1-.1-.1-.1-.2l-1-2.7c-.1-.3-.2-.6-.3-.8-.1-.2-.2-.4-.4-.6-.1-.2-.3-.3-.5-.4-.2-.1-.4-.1-.6-.1h-.7v4.6c0 .1 0 .1-.1.2 0 .1-.1.1-.2.1s-.2.1-.3.1h-1c-.1 0-.3 0-.3-.1-.1 0-.1-.1-.2-.1 0 0-.1-.1-.1-.2V61c0-.3.1-.5.2-.6.1-.1.3-.2.5-.2h4c.4.1.8.2 1.2.4.3.2.6.4.9.7.2.3.4.6.6 1 .1.4.2.8.2 1.3 0 .4 0 .8-.1 1.1-.1.3-.2.6-.4.9-.2.3-.4.5-.7.7-.3.2-.6.4-.9.5.2.1.3.2.5.3.1.1.3.3.4.5.1.2.2.4.4.6.1.2.2.5.3.8l.9 2.4c.1.2.1.4.2.5v.2zm-2.8-8.3c0-.4-.1-.7-.2-1-.2-.3-.4-.5-.8-.6-.1 0-.2-.1-.4-.1h-1.6v3.4h1.1c.3 0 .6 0 .8-.1.2-.1.4-.2.6-.4.2-.2.3-.3.4-.5 0-.2.1-.4.1-.7zM266 67.9c0 .7-.1 1.4-.3 2-.2.6-.5 1.1-.9 1.5-.4.4-.8.7-1.4.9-.6.2-1.2.3-1.9.3s-1.3-.1-1.8-.3c-.5-.2-1-.5-1.4-.9-.4-.4-.7-.9-.9-1.5-.2-.6-.3-1.3-.3-2v-7.4c0-.1 0-.1.1-.2 0 0 .1-.1.2-.1s.2-.1.3-.1h1c.1 0 .3 0 .3.1.1 0 .1.1.2.1 0 .1.1.1.1.2v7.2c0 .5.1.9.2 1.3s.3.6.5.9c.2.2.4.4.7.5.3.1.6.2.9.2.3 0 .7-.1.9-.2.3-.1.5-.3.7-.5.2-.2.3-.5.4-.8.1-.3.2-.7.2-1.1v-7.3-.2s.1-.1.2-.1.2-.1.3-.1h1c.1 0 .2 0 .3.1.1 0 .1.1.2.1 0 .1.1.1.1.2v7.2z"/>
</g>
</svg>
