<svg width="40" height="40" viewBox="0 0 24 24" fill="none" xmlns="http://www.w3.org/2000/svg"><path d="M14.3078 0.923096H5.63089C5.07704 0.923096 4.5232 1.20002 4.15397 1.56925C3.78474 2.03079 3.50781 2.58463 3.50781 3.13848V20.8616C3.50781 21.4154 3.69243 21.9692 4.15397 22.4308C4.5232 22.8923 5.07704 23.0769 5.63089 23.0769H18.4617C19.0155 23.0769 19.5694 22.8 19.9386 22.4308C20.3078 21.9692 20.5847 21.4154 20.5847 20.8616V7.47694L14.3078 0.923096Z" stroke="#0E65B7" stroke-width="1.4" stroke-linecap="round" stroke-linejoin="round"/><path d="M14.3076 0.923096V7.47694H20.3076" stroke="#0E65B7" stroke-width="1.4" stroke-linecap="round" stroke-linejoin="round"/><path d="M23.0769 10.6154H0.923096V20.1231H23.0769V10.6154Z" fill="white" stroke="#0E65B7" stroke-width="1.4" stroke-linecap="round" stroke-linejoin="round"/><path d="M4.89233 13.0154H6.73849C7.10772 13.0154 7.47695 13.0154 7.66156 13.1077C7.93849 13.2 8.21541 13.3846 8.40003 13.5692C8.58464 13.7538 8.76926 14.0308 8.86156 14.4C8.95387 14.6769 9.04618 15.1385 9.04618 15.6C9.04618 15.9692 8.95387 16.3385 8.86156 16.6154C8.76926 16.9846 8.58464 17.2615 8.30772 17.4461C8.1231 17.6308 7.93849 17.7231 7.56926 17.8154C7.38464 17.9077 7.01541 17.9077 6.73849 17.9077H4.89233V13.0154ZM5.90772 13.8461V17.0769H6.64618C6.9231 17.0769 7.10772 17.0769 7.20003 16.9846C7.38464 16.9846 7.47695 16.8923 7.56926 16.8C7.66156 16.7077 7.75387 16.5231 7.84618 16.3385C7.93849 16.1538 7.93849 15.7846 7.93849 15.4154C7.93849 15.0462 7.93849 14.7692 7.84618 14.5846C7.75387 14.4 7.66156 14.2154 7.56926 14.1231C7.47695 14.0308 7.29233 13.9385 7.10772 13.9385C7.01541 13.8462 6.73849 13.8461 6.36926 13.8461H5.90772Z" fill="#0E65B7"/><path d="M9.69238 15.5077C9.69238 15.0462 9.78469 14.5846 9.877 14.2154C9.96931 13.9385 10.1539 13.7539 10.3385 13.5692C10.5232 13.3846 10.7078 13.2 10.9847 13.1077C11.2616 13.0154 11.6308 12.9231 12.0001 12.9231C12.7385 12.9231 13.2924 13.1077 13.7539 13.5692C14.2155 14.0308 14.4001 14.6769 14.4001 15.4154C14.4001 16.2462 14.2155 16.8 13.7539 17.2616C13.2924 17.7231 12.7385 17.9077 12.0001 17.9077C11.2616 17.9077 10.7078 17.7231 10.2462 17.2616C9.78469 16.8 9.69238 16.3385 9.69238 15.5077ZM10.7078 15.5077C10.7078 16.0616 10.8001 16.5231 11.077 16.8C11.3539 17.0769 11.6308 17.2616 12.0924 17.2616C12.4616 17.2616 12.8308 17.0769 13.0155 16.8C13.2924 16.5231 13.3847 16.0616 13.3847 15.5077C13.3847 14.9539 13.2924 14.4923 13.0155 14.2154C12.7385 13.9385 12.4616 13.8462 12.0001 13.8462C11.5385 13.8462 11.2616 14.0308 10.9847 14.3077C10.8001 14.4923 10.7078 14.9539 10.7078 15.5077Z" fill="#0E65B7"/><path d="M18.2769 16.1539L19.2 16.4308C19.0154 16.9846 18.8308 17.3539 18.4615 17.6308C18.0923 17.9077 17.7231 18 17.1692 18C16.5231 18 15.9692 17.8154 15.6 17.3539C15.2308 16.8923 14.9539 16.3385 14.9539 15.5077C14.9539 14.6769 15.1385 14.0308 15.6 13.5692C16.0615 13.1077 16.6154 12.9231 17.2615 12.9231C17.8154 12.9231 18.3692 13.1077 18.7385 13.4769C18.9231 13.6616 19.1077 14.0308 19.2 14.4L18.1846 14.6769C18.0923 14.4 18 14.2154 17.8154 14.0308C17.7231 13.8462 17.5385 13.8462 17.2615 13.8462C16.8923 13.8462 16.6154 13.9385 16.3385 14.2154C16.1539 14.4923 15.9692 14.8616 15.9692 15.5077C15.9692 16.1539 16.0615 16.5231 16.3385 16.8C16.5231 17.0769 16.8923 17.1693 17.1692 17.1693C17.4462 17.1693 17.6308 17.0769 17.8154 16.8923C18.0923 16.8 18.1846 16.5231 18.2769 16.1539Z" fill="#0E65B7"/></svg>