<svg width="40" height="40" viewBox="0 0 24 24" fill="none" xmlns="http://www.w3.org/2000/svg"><path d="M14.3078 0.923096H5.63089C5.07704 0.923096 4.5232 1.20002 4.15397 1.56925C3.78474 2.03079 3.50781 2.58463 3.50781 3.13848V20.8616C3.50781 21.4154 3.69243 21.9692 4.15397 22.4308C4.5232 22.8923 5.07704 23.0769 5.63089 23.0769H18.4617C19.0155 23.0769 19.5694 22.8 19.9386 22.4308C20.3078 21.9692 20.5847 21.4154 20.5847 20.8616V7.47694L14.3078 0.923096Z" stroke="#0E65B7" stroke-width="1.4" stroke-linecap="round" stroke-linejoin="round"/><path d="M14.3076 0.923096V7.47694H20.3076" stroke="#0E65B7" stroke-width="1.4" stroke-linecap="round" stroke-linejoin="round"/><path d="M23.0769 10.6154H0.923096V20.1231H23.0769V10.6154Z" fill="white" stroke="#0E65B7" stroke-width="1.4" stroke-linecap="round" stroke-linejoin="round"/><path d="M2.677 13.0154H4.52316C4.89239 13.0154 5.26162 13.0154 5.44623 13.1077C5.72316 13.2 6.00008 13.3846 6.18469 13.5692C6.36931 13.7538 6.55393 14.0308 6.64623 14.4C6.73854 14.6769 6.83085 15.1385 6.83085 15.6C6.83085 15.9692 6.73854 16.3385 6.64623 16.6154C6.55393 16.9846 6.36931 17.2615 6.09239 17.4461C5.90777 17.6308 5.72316 17.7231 5.35393 17.8154C5.16931 17.9077 4.80008 17.9077 4.52316 17.9077H2.677V13.0154ZM3.69239 13.8461V17.0769H4.43085C4.70777 17.0769 4.89239 17.0769 4.98469 16.9846C5.16931 16.9846 5.26162 16.8923 5.35393 16.8C5.44623 16.7077 5.53854 16.5231 5.63085 16.3385C5.72316 16.1538 5.72316 15.7846 5.72316 15.4154C5.72316 15.0462 5.72316 14.7692 5.63085 14.5846C5.53854 14.4 5.44623 14.2154 5.35393 14.1231C5.26162 14.0308 5.077 13.9385 4.89239 13.9385C4.80008 13.8462 4.52316 13.8461 4.06162 13.8461H3.69239Z" fill="#0E65B7"/><path d="M7.38477 15.5077C7.38477 15.0462 7.47707 14.5846 7.56938 14.2154C7.66169 13.9385 7.8463 13.7539 8.03092 13.5692C8.21553 13.3846 8.40015 13.2 8.67707 13.1077C8.954 13.0154 9.32323 12.9231 9.69246 12.9231C10.4309 12.9231 10.9848 13.1077 11.4463 13.5692C11.9078 14.0308 12.0925 14.6769 12.0925 15.4154C12.0925 16.2462 11.9078 16.8 11.4463 17.2616C10.9848 17.7231 10.4309 17.9077 9.69246 17.9077C8.954 17.9077 8.40015 17.7231 7.93861 17.2616C7.47707 16.8 7.38477 16.3385 7.38477 15.5077ZM8.40015 15.5077C8.40015 16.0616 8.49246 16.5231 8.76938 16.8C9.0463 17.0769 9.32323 17.2616 9.78477 17.2616C10.154 17.2616 10.5232 17.0769 10.7078 16.8C10.9848 16.5231 11.0771 16.0616 11.0771 15.5077C11.0771 14.9539 10.9848 14.4923 10.7078 14.2154C10.4309 13.9385 10.154 13.8462 9.69246 13.8462C9.23092 13.8462 8.954 14.0308 8.67707 14.3077C8.49246 14.4923 8.40015 14.9539 8.40015 15.5077Z" fill="#0E65B7"/><path d="M16.0616 16.1539L16.9847 16.4308C16.8001 16.9846 16.6154 17.3539 16.2462 17.6308C15.877 17.9077 15.5078 18 14.9539 18C14.3078 18 13.7539 17.8154 13.3847 17.3539C13.0154 16.8923 12.7385 16.3385 12.7385 15.5077C12.7385 14.6769 12.9231 14.0308 13.3847 13.5692C13.8462 13.1077 14.4001 12.9231 15.0462 12.9231C15.6001 12.9231 16.1539 13.1077 16.5231 13.4769C16.7078 13.6616 16.8924 14.0308 16.9847 14.4L15.9693 14.6769C15.877 14.4 15.7847 14.2154 15.6001 14.0308C15.4154 13.8462 15.2308 13.8462 14.9539 13.8462C14.5847 13.8462 14.3078 13.9385 14.0308 14.2154C13.8462 14.4923 13.6616 14.8616 13.6616 15.5077C13.6616 16.1539 13.7539 16.5231 14.0308 16.8C14.2154 17.0769 14.5847 17.1693 14.8616 17.1693C15.1385 17.1693 15.3231 17.0769 15.5078 16.8923C15.6924 16.7077 15.9693 16.5231 16.0616 16.1539Z" fill="#0E65B7"/><path d="M17.354 17.9077L19.0155 15.3231L17.5386 13.0154H18.6463L19.6617 14.5846L20.5848 13.0154H21.6925L20.2155 15.4154L21.8771 17.9077H20.6771L19.5694 16.2462L18.4617 17.9077H17.354Z" fill="#0E65B7"/></svg>