<svg width="40" height="40" viewBox="0 0 24 24" fill="none" xmlns="http://www.w3.org/2000/svg"><path d="M14.3078 0.923096H5.63089C5.07704 0.923096 4.5232 1.20002 4.15397 1.56925C3.78474 2.03079 3.50781 2.58463 3.50781 3.13848V20.8616C3.50781 21.4154 3.69243 21.9692 4.15397 22.4308C4.5232 22.8923 5.07704 23.0769 5.63089 23.0769H18.4617C19.0155 23.0769 19.5694 22.8 19.9386 22.4308C20.3078 21.9692 20.5847 21.4154 20.5847 20.8616V7.47694L14.3078 0.923096Z" stroke="#0E65B7" stroke-width="1.4" stroke-linecap="round" stroke-linejoin="round"/><path d="M14.3079 0.923096V7.47694H20.3079" stroke="#0E65B7" stroke-width="1.4" stroke-linecap="round" stroke-linejoin="round"/><path d="M23.0769 10.6154H0.923096V20.1231H23.0769V10.6154Z" fill="white" stroke="#0E65B7" stroke-width="1.4" stroke-linecap="round" stroke-linejoin="round"/><path d="M7.19998 13.0154H8.21537V16.1538C8.21537 16.5231 8.21537 16.8923 8.12306 17.0769C8.03075 17.3538 7.84613 17.6308 7.56921 17.7231C7.29229 17.8154 7.01537 18 6.55383 18C6.09229 18 5.72306 17.9077 5.44614 17.6308C5.16921 17.3538 5.0769 16.9846 5.0769 16.4308L5.99998 16.3385C5.99998 16.6154 6.09229 16.8 6.09229 16.8923C6.1846 17.0769 6.36921 17.1692 6.55383 17.1692C6.73844 17.1692 6.92306 17.0769 7.01537 16.9846C7.10767 16.8923 7.10767 16.6154 7.10767 16.2462V13.0154H7.19998Z" fill="#0E65B7"/><path d="M9.23071 17.9077V13.0154H10.7999C11.3538 13.0154 11.8153 13.0154 11.9999 13.1077C12.2769 13.2 12.5538 13.3846 12.7384 13.5692C12.923 13.8461 13.0153 14.1231 13.0153 14.4923C13.0153 14.7692 12.923 15.0461 12.8307 15.2308C12.7384 15.4154 12.5538 15.6 12.4615 15.6923C12.3692 15.7846 12.0923 15.8769 11.9076 15.9692C11.6307 16.0615 11.3538 16.0615 10.8923 16.0615H10.2461V17.9077H9.23071ZM10.1538 13.8461V15.2308H10.7076C11.0769 15.2308 11.3538 15.2308 11.4461 15.1385C11.5384 15.0461 11.723 15.0462 11.723 14.8615C11.723 14.6769 11.8153 14.5846 11.8153 14.4923C11.8153 14.3077 11.723 14.1231 11.6307 14.0308C11.5384 13.9385 11.3538 13.8461 11.2615 13.8461C11.1692 13.8461 10.8923 13.8461 10.523 13.8461H10.1538Z" fill="#0E65B7"/><path d="M16.0616 16.1539V15.3231H18.1847V17.2616C18.0001 17.4462 17.7232 17.6308 17.2616 17.8154C16.8001 18 16.4309 18 16.0616 18C15.5078 18 15.1385 17.9077 14.7693 17.7231C14.4001 17.5385 14.1232 17.1693 13.9385 16.8C13.7539 16.4308 13.6616 15.9692 13.6616 15.5077C13.6616 14.9539 13.7539 14.5846 13.9385 14.1231C14.1232 13.7539 14.4924 13.3846 14.8616 13.2C15.1385 13.0154 15.6001 12.9231 16.0616 12.9231C16.7078 12.9231 17.1693 13.0154 17.4462 13.2923C17.8155 13.5692 18.0001 13.9385 18.0924 14.3077L17.077 14.4923C16.9847 14.2154 16.8924 14.0308 16.7078 13.9385C16.5232 13.8462 16.2462 13.7539 15.9693 13.7539C15.5078 13.7539 15.2309 13.8462 14.9539 14.1231C14.677 14.4 14.5847 14.7693 14.5847 15.3231C14.5847 15.8769 14.677 16.3385 14.9539 16.6154C15.2309 16.8923 15.5078 17.0769 15.9693 17.0769C16.1539 17.0769 16.3385 17.0769 16.6155 16.9846C16.8001 16.8923 16.9847 16.8 17.1693 16.7077V16.0616L16.0616 16.1539Z" fill="#0E65B7"/></svg>