<svg width="24" height="24" viewBox="0 0 24 24" fill="none" xmlns="http://www.w3.org/2000/svg"><path d="M14.3076 0.912537H5.53836C4.98451 0.912537 4.43067 1.1863 4.06144 1.55132C3.69221 1.91634 3.41528 2.46387 3.41528 3.10265V20.8973C3.41528 21.4449 3.5999 22.0836 4.06144 22.4487C4.43067 22.9049 4.98451 23.0874 5.53836 23.0874H18.3691C18.923 23.0874 19.4768 22.8137 19.8461 22.4487C20.2153 21.9924 20.4922 21.4449 20.4922 20.8973V7.48288L14.3076 0.912537Z" stroke="#0E65B7" stroke-width="1.4" stroke-linecap="round" stroke-linejoin="round"/><path d="M14.3076 0.912537V7.48288H20.3076" stroke="#0E65B7" stroke-width="1.4" stroke-linecap="round" stroke-linejoin="round"/><path fill="white" d="M23.1538 10.5856H1V20.0761H23.1538V10.5856Z" stroke="#0E65B7" stroke-width="1.4" stroke-linecap="round" stroke-linejoin="round"/><path d="M11.0458 16.596C11.0458 16.2698 11.085 16.01 11.1635 15.8167C11.242 15.6233 11.3851 15.4334 11.5929 15.247C11.803 15.0583 11.9426 14.9057 12.0119 14.7892C12.0812 14.6704 12.1158 14.5458 12.1158 14.4153C12.1158 14.0216 11.9357 13.8247 11.5756 13.8247C11.4048 13.8247 11.2674 13.8783 11.1635 13.9855C11.0619 14.0903 11.0088 14.2359 11.0042 14.4223H10C10.0046 13.9773 10.1466 13.629 10.4259 13.3774C10.7076 13.1258 11.0908 13 11.5756 13C12.065 13 12.4448 13.12 12.7148 13.3599C12.9849 13.5976 13.12 13.9342 13.12 14.3699C13.12 14.5679 13.0761 14.7555 12.9884 14.9325C12.9007 15.1073 12.7472 15.3018 12.5279 15.5161L12.2474 15.7852C12.0719 15.9553 11.9715 16.1545 11.9461 16.3828L11.9323 16.596H11.0458ZM10.9453 17.6688C10.9453 17.5127 10.9973 17.3846 11.1012 17.2844C11.2074 17.1819 11.3424 17.1306 11.5063 17.1306C11.6702 17.1306 11.8041 17.1819 11.908 17.2844C12.0142 17.3846 12.0673 17.5127 12.0673 17.6688C12.0673 17.8226 12.0154 17.9496 11.9115 18.0497C11.8099 18.1499 11.6748 18.2 11.5063 18.2C11.3378 18.2 11.2016 18.1499 11.0977 18.0497C10.9961 17.9496 10.9453 17.8226 10.9453 17.6688Z" fill="#0E65B7"/></svg>