<svg width="40" height="40" viewBox="0 0 24 24" fill="none" xmlns="http://www.w3.org/2000/svg"><path d="M14.2153 0.923096H5.53836C4.98451 0.923096 4.43067 1.20002 4.06144 1.56925C3.69221 2.03079 3.41528 2.58463 3.41528 3.13848V20.8616C3.41528 21.4154 3.5999 21.9692 4.06144 22.4308C4.43067 22.8923 4.98451 23.0769 5.53836 23.0769H18.3691C18.923 23.0769 19.4768 22.8 19.8461 22.4308C20.2153 21.9692 20.4922 21.4154 20.4922 20.8616V7.47694L14.2153 0.923096Z" stroke="#0E65B7" stroke-width="1.4" stroke-linecap="round" stroke-linejoin="round"/><path d="M14.2153 0.923096V7.47694H20.2153" stroke="#0E65B7" stroke-width="1.4" stroke-linecap="round" stroke-linejoin="round"/><path d="M23.0769 10.6154H0.923096V20.1231H23.0769V10.6154Z" fill="white" stroke="#0E65B7" stroke-width="1.4" stroke-linecap="round" stroke-linejoin="round"/><path d="M5.0769 17.9077V13.0154H6.64613C7.19998 13.0154 7.66152 13.0154 7.84613 13.1077C8.12306 13.2 8.39998 13.3846 8.5846 13.5692C8.76921 13.8461 8.86152 14.1231 8.86152 14.4923C8.86152 14.7692 8.76921 15.0461 8.6769 15.2308C8.5846 15.4154 8.39998 15.6 8.30767 15.6923C8.21537 15.7846 7.93844 15.8769 7.75383 15.9692C7.4769 16.0615 7.19998 16.0615 6.73844 16.0615H6.09229V17.9077H5.0769ZM5.99998 13.8461V15.2308H6.55383C6.92306 15.2308 7.19998 15.2308 7.29229 15.1385C7.3846 15.0461 7.56921 15.0462 7.56921 14.8615C7.56921 14.6769 7.66152 14.5846 7.66152 14.4923C7.66152 14.3077 7.56921 14.1231 7.4769 14.0308C7.3846 13.9385 7.19998 13.8461 7.10767 13.8461C7.01537 13.8461 6.73844 13.8461 6.36921 13.8461H5.99998Z" fill="#0E65B7"/><path d="M9.6001 17.9077V13.0154H10.5232L12.5539 16.2462V13.0154H13.477V17.9077H12.4616L10.5232 14.6769V17.9077H9.6001Z" fill="#0E65B7"/><path d="M16.7999 16.1539V15.3231H18.923V17.2616C18.7384 17.4462 18.4614 17.6308 17.9999 17.8154C17.5384 18 17.1691 18 16.7999 18C16.2461 18 15.8768 17.9077 15.5076 17.7231C15.1384 17.5385 14.8614 17.1693 14.6768 16.8C14.4922 16.4308 14.3999 15.9692 14.3999 15.5077C14.3999 14.9539 14.4922 14.5846 14.6768 14.1231C14.8614 13.7539 15.2307 13.3846 15.5999 13.2C15.8768 13.0154 16.3384 12.9231 16.7999 12.9231C17.4461 12.9231 17.9076 13.0154 18.1845 13.2923C18.5537 13.5692 18.7384 13.9385 18.8307 14.3077L17.8153 14.4923C17.723 14.2154 17.6307 14.0308 17.4461 13.9385C17.2614 13.8462 17.0768 13.8462 16.7999 13.8462C16.3384 13.8462 16.0614 13.9385 15.7845 14.2154C15.5076 14.4923 15.4153 14.8616 15.4153 15.4154C15.4153 15.9693 15.5076 16.4308 15.7845 16.7077C16.0614 16.9846 16.3384 17.1693 16.7999 17.1693C16.9845 17.1693 17.1691 17.1692 17.4461 17.0769C17.6307 16.9846 17.8153 16.8923 17.9999 16.8V16.1539H16.7999Z" fill="#0E65B7"/></svg>