<svg width="40" height="40" viewBox="0 0 24 24" fill="none" xmlns="http://www.w3.org/2000/svg"><path d="M14.3078 0.923096H5.63089C5.07704 0.923096 4.5232 1.20002 4.15397 1.56925C3.78474 2.03079 3.50781 2.58463 3.50781 3.13848V20.8616C3.50781 21.4154 3.69243 21.9692 4.15397 22.4308C4.5232 22.8923 5.07704 23.0769 5.63089 23.0769H18.4617C19.0155 23.0769 19.5694 22.8 19.9386 22.4308C20.3078 21.9692 20.5847 21.4154 20.5847 20.8616V7.47694L14.3078 0.923096Z" stroke="#0E65B7" stroke-width="1.4" stroke-linecap="round" stroke-linejoin="round"/><path d="M14.3079 0.923096V7.47694H20.3079" stroke="#0E65B7" stroke-width="1.4" stroke-linecap="round" stroke-linejoin="round"/><path d="M23.0769 10.6154H0.923096V20.1231H23.0769V10.6154Z" fill="white" stroke="#0E65B7" stroke-width="1.4" stroke-linecap="round" stroke-linejoin="round"/><path d="M5.90771 17.9077V13.0154H7.47695C8.03079 13.0154 8.49233 13.0154 8.67695 13.1077C8.95387 13.2 9.23079 13.3846 9.41541 13.5692C9.60002 13.8461 9.69233 14.1231 9.69233 14.4923C9.69233 14.7692 9.60002 15.0461 9.50772 15.2308C9.41541 15.4154 9.23079 15.6 9.13848 15.6923C9.04618 15.7846 8.76925 15.8769 8.58464 15.9692C8.30772 16.0615 8.03079 16.0615 7.56925 16.0615H6.9231V17.9077H5.90771ZM6.83079 13.8461V15.2308H7.38464C7.75387 15.2308 8.03079 15.2308 8.1231 15.1385C8.21541 15.0461 8.40002 15.0462 8.40002 14.8615C8.40002 14.6769 8.49233 14.5846 8.49233 14.4923C8.49233 14.3077 8.40002 14.1231 8.30771 14.0308C8.21541 13.9385 8.03079 13.8461 7.93848 13.8461C7.84618 13.8461 7.56925 13.8461 7.20002 13.8461H6.83079Z" fill="#0E65B7"/><path d="M10.4309 17.9077V13.0154H12.0001C12.554 13.0154 13.0155 13.0154 13.2001 13.1077C13.4771 13.2 13.754 13.3846 13.9386 13.5692C14.1232 13.8461 14.2155 14.1231 14.2155 14.4923C14.2155 14.7692 14.1232 15.0461 14.0309 15.2308C13.9386 15.4154 13.754 15.6 13.6617 15.6923C13.5694 15.7846 13.2924 15.8769 13.1078 15.9692C12.8309 16.0615 12.554 16.0615 12.0924 16.0615H11.4463V17.9077H10.4309ZM11.4463 13.8461V15.2308H12.0001C12.3694 15.2308 12.6463 15.2308 12.7386 15.1385C12.8309 15.0461 13.0155 15.0462 13.0155 14.8615C13.0155 14.6769 13.1078 14.5846 13.1078 14.4923C13.1078 14.3077 13.0155 14.1231 12.9232 14.0308C12.8309 13.9385 12.6463 13.8461 12.554 13.8461C12.4617 13.8461 12.1848 13.8461 11.8155 13.8461H11.4463Z" fill="#0E65B7"/><path d="M16.0616 17.9077V13.8461H14.5847V13.0154H18.4616V13.8461H16.9847V17.9077H16.0616Z" fill="#0E65B7"/></svg>