<svg width="40" height="40" viewBox="0 0 24 24" fill="none" xmlns="http://www.w3.org/2000/svg"><path d="M14.3078 0.923096H5.63089C5.07704 0.923096 4.5232 1.20002 4.15397 1.56925C3.78474 2.03079 3.50781 2.58463 3.50781 3.13848V20.8616C3.50781 21.4154 3.69243 21.9692 4.15397 22.4308C4.5232 22.8923 5.07704 23.0769 5.63089 23.0769H18.4617C19.0155 23.0769 19.5694 22.8 19.9386 22.4308C20.3078 21.9692 20.5847 21.4154 20.5847 20.8616V7.47694L14.3078 0.923096Z" stroke="#0E65B7" stroke-width="1.4" stroke-linecap="round" stroke-linejoin="round"/><path d="M14.3079 0.923096V7.47694H20.3079" stroke="#0E65B7" stroke-width="1.4" stroke-linecap="round" stroke-linejoin="round"/><path d="M23.0769 10.6154H0.923096V20.1231H23.0769V10.6154Z" fill="white" stroke="#0E65B7" stroke-width="1.4" stroke-linecap="round" stroke-linejoin="round"/><path d="M5.0769 16.3385L5.99998 16.2462C6.09229 16.5231 6.1846 16.8 6.36921 16.9846C6.55383 17.1692 6.83075 17.1692 7.10767 17.1692C7.3846 17.1692 7.66152 17.0769 7.84613 16.9846C8.03075 16.8923 8.12306 16.7077 8.12306 16.5231C8.12306 16.4308 8.12306 16.3385 8.03075 16.2462C7.93844 16.1538 7.84614 16.0615 7.66152 16.0615C7.56921 16.0615 7.29229 15.9692 6.83075 15.8769C6.2769 15.7846 5.90767 15.6 5.72306 15.4154C5.44613 15.1385 5.26152 14.8615 5.26152 14.4C5.26152 14.1231 5.35383 13.9385 5.44614 13.6615C5.63075 13.4769 5.81537 13.2923 6.09229 13.2C6.36921 13.1077 6.64613 13.0154 7.01537 13.0154C7.66152 13.0154 8.12306 13.1077 8.39998 13.3846C8.6769 13.6615 8.86152 14.0308 8.86152 14.4923H7.84613C7.84613 14.2154 7.75383 14.0308 7.56921 13.9385C7.3846 13.8462 7.19998 13.7538 6.92306 13.7538C6.64613 13.7538 6.36921 13.8462 6.2769 13.9385C6.1846 14.0308 6.09229 14.1231 6.09229 14.2154C6.09229 14.3077 6.1846 14.4 6.2769 14.4923C6.36921 14.5846 6.73844 14.6769 7.19998 14.8615C7.66152 14.9538 8.03075 15.1385 8.30767 15.2308C8.49229 15.3231 8.6769 15.5077 8.86152 15.6923C9.04614 15.8769 9.04613 16.1538 9.04613 16.4308C9.04613 16.7077 8.95383 16.9846 8.76921 17.2615C8.5846 17.5385 8.39998 17.7231 8.12306 17.8154C7.84614 17.9077 7.4769 18 7.01537 18C6.36921 18 5.90767 17.8154 5.63075 17.5385C5.35383 17.2615 5.0769 16.8923 5.0769 16.3385Z" fill="#0E65B7"/><path d="M11.0768 17.9077L9.323 13.0154H10.4307L11.6307 16.6154L12.8307 13.0154H13.8461L12.0922 17.9077H11.0768Z" fill="#0E65B7"/><path d="M16.7076 16.1539V15.3231H18.8307V17.2616C18.6461 17.4462 18.3692 17.6308 17.9076 17.8154C17.4461 18 17.0768 18 16.7076 18C16.1538 18 15.7845 17.9077 15.4153 17.7231C15.0461 17.5385 14.7692 17.1693 14.5845 16.8C14.3999 16.4308 14.3076 15.9692 14.3076 15.5077C14.3076 14.9539 14.3999 14.5846 14.5845 14.1231C14.7692 13.7539 15.1384 13.3846 15.5076 13.2C15.7845 13.0154 16.2461 12.9231 16.7076 12.9231C17.3538 12.9231 17.8153 13.0154 18.0922 13.2923C18.4615 13.5692 18.6461 13.9385 18.7384 14.3077L17.723 14.4923C17.6307 14.2154 17.5384 14.0308 17.3538 13.9385C17.1692 13.8462 16.8922 13.7539 16.6153 13.7539C16.1538 13.7539 15.8768 13.8462 15.5999 14.1231C15.323 14.4 15.2307 14.7693 15.2307 15.3231C15.2307 15.8769 15.323 16.3385 15.5999 16.6154C15.8768 16.8923 16.1538 17.0769 16.6153 17.0769C16.7999 17.0769 16.9845 17.0769 17.2615 16.9846C17.4461 16.8923 17.6307 16.8 17.8153 16.7077V16.0616L16.7076 16.1539Z" fill="#0E65B7"/></svg>