<svg width="40" height="40" viewBox="0 0 24 24" fill="none" xmlns="http://www.w3.org/2000/svg"><path d="M14.2153 0.923096H5.53836C4.98451 0.923096 4.43067 1.20002 4.06144 1.56925C3.69221 2.03079 3.41528 2.58463 3.41528 3.13848V20.8616C3.41528 21.4154 3.5999 21.9692 4.06144 22.4308C4.43067 22.8923 4.98451 23.0769 5.53836 23.0769H18.3691C18.923 23.0769 19.4768 22.8 19.8461 22.4308C20.2153 21.9692 20.4922 21.4154 20.4922 20.8616V7.47694L14.2153 0.923096Z" stroke="#0E65B7" stroke-width="1.4" stroke-linecap="round" stroke-linejoin="round"/><path d="M14.2153 0.923096V7.47694H20.2153" stroke="#0E65B7" stroke-width="1.4" stroke-linecap="round" stroke-linejoin="round"/><path d="M23.0769 10.6154H0.923096V20.1231H23.0769V10.6154Z" fill="white" stroke="#0E65B7" stroke-width="1.4" stroke-linecap="round" stroke-linejoin="round"/><path d="M5.35376 17.9077L7.0153 15.3231L5.53837 13.0154H6.64607L7.66145 14.5846L8.58453 13.0154H9.69222L8.2153 15.4154L9.87684 17.9077H8.67684L7.56914 16.2462L6.46145 17.9077H5.35376Z" fill="#0E65B7"/><path d="M10.4307 17.9077V13.1077H11.446V17.1692H13.9384V18H10.4307V17.9077Z" fill="#0E65B7"/><path d="M14.3076 16.3385L15.2307 16.2462C15.323 16.5231 15.4153 16.8 15.5999 16.9846C15.7845 17.1692 15.9692 17.1692 16.3384 17.1692C16.6153 17.1692 16.8922 17.0769 17.0768 16.9846C17.2615 16.8923 17.3538 16.7077 17.3538 16.5231C17.3538 16.4308 17.3538 16.3385 17.2615 16.2462C17.1692 16.1538 17.0768 16.0615 16.8922 16.0615C16.7999 16.0615 16.523 15.9692 16.0615 15.8769C15.5076 15.7846 15.1384 15.6 14.9538 15.4154C14.6768 15.1385 14.4922 14.8615 14.4922 14.4C14.4922 14.1231 14.5845 13.9385 14.6768 13.6615C14.8615 13.4769 15.0461 13.2923 15.323 13.2C15.5999 13.1077 15.8768 13.0154 16.2461 13.0154C16.8922 13.0154 17.3538 13.1077 17.6307 13.3846C17.9076 13.6615 18.0922 14.0308 18.0922 14.4923H17.0768C17.0768 14.2154 16.9845 14.0308 16.7999 13.9385C16.6153 13.8462 16.4307 13.7538 16.1538 13.7538C15.8768 13.7538 15.5999 13.8462 15.5076 13.9385C15.4153 14.0308 15.323 14.1231 15.323 14.2154C15.323 14.3077 15.4153 14.4 15.5076 14.4923C15.5999 14.5846 15.9692 14.6769 16.4307 14.8615C16.8922 14.9538 17.2615 15.1385 17.5384 15.2308C17.723 15.3231 17.9076 15.5077 18.0922 15.6923C18.2768 15.8769 18.2768 16.1538 18.2768 16.4308C18.2768 16.7077 18.1845 16.9846 17.9999 17.2615C17.8153 17.5385 17.6307 17.7231 17.3538 17.8154C17.0768 17.9077 16.7076 18 16.2461 18C15.5999 18 15.1384 17.8154 14.8615 17.5385C14.5845 17.2615 14.3999 16.8923 14.3076 16.3385Z" fill="#0E65B7"/></svg>