<svg width="40" height="40" viewBox="0 0 24 24" fill="none" xmlns="http://www.w3.org/2000/svg"><path d="M14.2153 0.923096H5.53836C4.98451 0.923096 4.43067 1.20002 4.06144 1.56925C3.69221 2.03079 3.41528 2.58463 3.41528 3.13848V20.8616C3.41528 21.4154 3.5999 21.9692 4.06144 22.4308C4.43067 22.8923 4.98451 23.0769 5.53836 23.0769H18.3691C18.923 23.0769 19.4768 22.8 19.8461 22.4308C20.2153 21.9692 20.4922 21.4154 20.4922 20.8616V7.47694L14.2153 0.923096Z" stroke="#0E65B7" stroke-width="1.4" stroke-linecap="round" stroke-linejoin="round"/><path d="M14.2153 0.923096V7.47694H20.2153" stroke="#0E65B7" stroke-width="1.4" stroke-linecap="round" stroke-linejoin="round"/><path d="M23.0769 10.6154H0.923096V20.1231H23.0769V10.6154Z" fill="white" stroke="#0E65B7" stroke-width="1.4" stroke-linecap="round" stroke-linejoin="round"/><path d="M3.04614 17.9077L4.70768 15.3231L3.23076 13.0154H4.33845L5.35384 14.5846L6.27691 13.0154H7.3846L5.90768 15.4154L7.56922 17.9077H6.46153L5.35384 16.2462L4.24614 17.9077H3.04614Z" fill="#0E65B7"/><path d="M8.12305 17.9077V13.1077H9.13843V17.1692H11.6307V18H8.12305V17.9077Z" fill="#0E65B7"/><path d="M12.0923 16.3385L13.0154 16.2462C13.1077 16.5231 13.2 16.8 13.3846 16.9846C13.5692 17.1692 13.8461 17.1692 14.1231 17.1692C14.4 17.1692 14.6769 17.0769 14.8615 16.9846C15.0461 16.8923 15.1384 16.7077 15.1384 16.5231C15.1384 16.4308 15.1384 16.3385 15.0461 16.2462C14.9538 16.1538 14.8615 16.0615 14.6769 16.0615C14.5846 16.0615 14.3077 15.9692 13.8461 15.8769C13.2923 15.7846 12.9231 15.6 12.7384 15.4154C12.4615 15.1385 12.2769 14.8615 12.2769 14.4C12.2769 14.1231 12.3692 13.9385 12.4615 13.6615C12.6461 13.4769 12.8307 13.2923 13.1077 13.2C13.3846 13.1077 13.6615 13.0154 14.0307 13.0154C14.6769 13.0154 15.1384 13.1077 15.4154 13.3846C15.6923 13.6615 15.8769 14.0308 15.8769 14.4923H14.8615C14.8615 14.2154 14.7692 14.0308 14.5846 13.9385C14.4 13.8462 14.2154 13.7538 13.9384 13.7538C13.6615 13.7538 13.3846 13.8462 13.2923 13.9385C13.2 14.0308 13.1077 14.1231 13.1077 14.2154C13.1077 14.3077 13.2 14.4 13.2923 14.4923C13.3846 14.5846 13.7538 14.6769 14.2154 14.8615C14.6769 14.9538 15.0461 15.1385 15.3231 15.2308C15.5077 15.3231 15.6923 15.5077 15.8769 15.6923C16.0615 15.8769 16.0615 16.1538 16.0615 16.4308C16.0615 16.7077 15.9692 16.9846 15.7846 17.2615C15.6 17.5385 15.4154 17.7231 15.1384 17.8154C14.8615 17.9077 14.4923 18 14.0307 18C13.3846 18 12.9231 17.8154 12.6461 17.5385C12.2769 17.2615 12.0923 16.8923 12.0923 16.3385Z" fill="#0E65B7"/><path d="M16.3384 17.9077L17.9999 15.3231L16.523 13.0154H17.6307L18.6461 14.5846L19.5691 13.0154H20.6768L19.1999 15.4154L20.8615 17.9077H19.6615L18.5538 16.2462L17.4461 17.9077H16.3384Z" fill="#0E65B7"/></svg>