<svg width="24" height="24" viewBox="0 0 24 24" fill="none" xmlns="http://www.w3.org/2000/svg"><path d="M14.3076 0.912537H5.53836C4.98451 0.912537 4.43067 1.1863 4.06144 1.55132C3.69221 1.91634 3.41528 2.46387 3.41528 3.10265V20.8973C3.41528 21.4449 3.5999 22.0836 4.06144 22.4487C4.43067 22.9049 4.98451 23.0874 5.53836 23.0874H18.3691C18.923 23.0874 19.4768 22.8137 19.8461 22.4487C20.2153 21.9924 20.4922 21.4449 20.4922 20.8973V7.48288L14.3076 0.912537Z" stroke="#0E65B7" stroke-width="1.4" stroke-linecap="round" stroke-linejoin="round"/><path d="M14.3076 0.912537V7.48288H20.3076" stroke="#0E65B7" stroke-width="1.4" stroke-linecap="round" stroke-linejoin="round"/><path fill="white" d="M23.0769 10.5856H0.923096V20.0761H23.0769V10.5856Z" stroke="#0E65B7" stroke-width="1.4" stroke-linecap="round" stroke-linejoin="round"/><path d="M7.53125 17.1763H10.04V18H6.24951V17.3984L8.71045 13.854H6.25293V13.0234H9.98535V13.6113L7.53125 17.1763Z" fill="#0E65B7"/><path d="M12.3398 18H11.3144V13.0234H12.3398V18Z" fill="#0E65B7"/><path d="M14.8788 16.2466V18H13.8534V13.0234H15.7948C16.1685 13.0234 16.4966 13.0918 16.7792 13.2285C17.064 13.3652 17.2828 13.5601 17.4354 13.813C17.5881 14.0636 17.6644 14.3496 17.6644 14.6709C17.6644 15.1585 17.497 15.5436 17.162 15.8262C16.8293 16.1064 16.3679 16.2466 15.7777 16.2466H14.8788ZM14.8788 15.416H15.7948C16.066 15.416 16.2722 15.3522 16.4135 15.2246C16.557 15.097 16.6288 14.9147 16.6288 14.6777C16.6288 14.4339 16.557 14.2368 16.4135 14.0864C16.2699 13.936 16.0717 13.8586 15.8187 13.854H14.8788V15.416Z" fill="#0E65B7"/></svg>