<svg width="327" height="467" viewBox="0 0 327 467" fill="none" xmlns="http://www.w3.org/2000/svg">
<g id="Group 10">
<g id="Group 3">
<mask id="mask0" mask-type="alpha" maskUnits="userSpaceOnUse" x="0" y="39" width="195" height="193">
<path id="Clip 2" fill-rule="evenodd" clip-rule="evenodd" d="M0.642578 39.7816H194.128V231.974H0.642578V39.7816Z" fill="white"/>
</mask>
<g mask="url(#mask0)">
<path id="Fill 1" fill-rule="evenodd" clip-rule="evenodd" d="M192.524 73.8571L136.723 40.261C134.516 38.9324 131.706 40.5227 131.706 43.0989V110.292C131.706 112.869 128.897 114.459 126.69 113.13L70.8882 79.5342V79.533L5.65857 40.261C3.4516 38.9324 0.64209 40.5227 0.64209 43.0989V189.201C0.64209 191.777 3.45041 193.367 5.65738 192.042L61.1583 158.625C63.3641 157.297 66.1748 158.887 66.1748 161.463V228.655C66.1748 231.233 68.9843 232.823 71.1901 231.495L126.992 197.898C129.13 196.61 129.13 193.508 126.992 192.221L70.8882 158.443C68.8999 157.247 68.7633 154.481 70.4746 153.064H70.3938L192.524 79.533C194.662 78.246 194.662 75.1441 192.524 73.8571Z" fill="#4BA3E3"/>
</g>
</g>
<path id="Fill 4" fill-rule="evenodd" clip-rule="evenodd" d="M325.073 152.672L269.204 118.961C266.994 117.628 264.181 119.223 264.181 121.808V189.233C264.181 191.818 261.368 193.414 259.159 192.081L203.29 158.369V158.368L137.982 118.961C135.774 117.628 132.959 119.223 132.959 121.808V268.414C132.959 270.998 135.771 272.593 137.981 271.263L193.55 237.732C195.757 236.399 198.571 237.995 198.571 240.58V308.003C198.571 310.59 201.384 312.185 203.592 310.852L259.461 277.139C261.602 275.848 261.602 272.735 259.461 271.444L203.29 237.55C201.299 236.349 201.163 233.573 202.876 232.151H202.795L325.073 158.368C327.213 157.076 327.213 153.964 325.073 152.672Z" fill="#4BA3E3"/>
<path id="Fill 6" fill-rule="evenodd" clip-rule="evenodd" d="M195.35 308.339L139.481 274.627C137.271 273.294 134.459 274.89 134.458 277.475V344.9C134.458 347.485 131.645 349.081 129.437 347.748L73.5667 314.036V314.035L8.25817 274.627C6.04972 273.294 3.23682 274.89 3.23682 277.475V424.081C3.23682 426.666 6.04734 428.26 8.25698 426.93L63.8262 393.399C66.0334 392.066 68.8475 393.662 68.8475 396.247V463.671C68.8475 466.257 71.6605 467.851 73.8689 466.519L129.738 432.808C131.88 431.515 131.88 428.402 129.738 427.111L73.5667 393.217C71.576 392.015 71.4391 389.241 73.1526 387.818H73.0717L195.35 314.035C197.49 312.743 197.49 309.63 195.35 308.339Z" fill="#4BA3E3"/>
<path id="Fill 8" fill-rule="evenodd" clip-rule="evenodd" d="M66.3687 3.34185V71.0322C66.3687 73.6275 69.1712 75.2295 71.3727 73.8911L127.036 40.0466C129.169 38.7489 129.169 35.624 127.036 34.3275L71.3727 0.482928C69.1712 -0.855471 66.3687 0.746534 66.3687 3.34185Z" fill="#4BA3E3"/>
</g>
</svg>
