<svg width="40" height="40" viewBox="0 0 40 40" fill="none" xmlns="http://www.w3.org/2000/svg">
<path d="M23.8462 1.521H9.23084C8.30777 1.521 7.38469 1.97727 6.76931 2.58563C6.15392 3.194 5.69238 4.10655 5.69238 5.17119V34.829C5.69238 35.7415 6.00008 36.8062 6.76931 37.4145C7.38469 38.175 8.30777 38.4792 9.23084 38.4792H30.6155C31.5385 38.4792 32.4616 38.0229 33.077 37.4145C33.6924 36.6541 34.1539 35.7415 34.1539 34.829V12.4716L23.8462 1.521Z" stroke="#0E65B7" stroke-width="2" stroke-linecap="round" stroke-linejoin="round"/>
<path d="M23.8462 1.521V12.4716H33.8462" stroke="#0E65B7" stroke-width="2" stroke-linecap="round" stroke-linejoin="round"/>
<path d="M38.4617 17.6426H1.53857V33.4601H38.4617V17.6426Z" fill="white" stroke="#0E65B7" stroke-width="2" stroke-linecap="round" stroke-linejoin="round"/>
<path d="M9.38477 29.6578V21.5969H12.0002C12.9232 21.5969 13.6925 21.5969 14.0002 21.749C14.4617 21.9011 14.9232 22.2053 15.2309 22.5095C15.5386 22.9657 15.6925 23.422 15.6925 24.0304C15.6925 24.4867 15.5386 24.9429 15.3848 25.2471C15.2309 25.5513 14.9232 25.8555 14.7694 26.0076C14.6155 26.1597 14.154 26.3118 13.8463 26.4638C13.3848 26.6159 12.9232 26.6159 12.154 26.6159H11.0771V29.6578H9.38477ZM11.0771 23.1178V25.3992H12.0002C12.6155 25.3992 13.0771 25.3992 13.2309 25.2471C13.3848 25.095 13.6925 25.095 13.6925 24.7908C13.6925 24.4867 13.8463 24.3346 13.8463 24.1825C13.8463 23.8783 13.6925 23.5741 13.5386 23.422C13.3848 23.2699 13.0771 23.1178 12.9232 23.1178C12.7694 23.1178 12.3078 23.1178 11.6925 23.1178H11.0771Z" fill="#0E65B7"/>
<path d="M16.9229 21.749H19.9998C20.6152 21.749 21.2305 21.749 21.5382 21.9011C21.9998 22.0532 22.4613 22.3574 22.769 22.6616C23.0767 22.9658 23.3844 23.422 23.5382 24.0304C23.6921 24.4867 23.8459 25.2471 23.8459 26.0076C23.8459 26.6159 23.6921 27.2243 23.5382 27.6806C23.3844 28.2889 23.0767 28.7452 22.6152 29.0494C22.3075 29.3536 21.9998 29.5057 21.3844 29.6578C21.0767 29.8099 20.4613 29.8099 19.9998 29.8099H16.9229V21.749ZM18.6152 23.1178V28.441H19.8459C20.3075 28.441 20.6152 28.441 20.769 28.2889C21.0767 28.2889 21.2305 28.1369 21.3844 27.9848C21.5382 27.8327 21.6921 27.5285 21.8459 27.2243C21.9998 26.9201 21.9998 26.3118 21.9998 25.7034C21.9998 25.095 21.9998 24.6388 21.8459 24.3346C21.6921 24.0304 21.5382 23.7262 21.3844 23.5741C21.2305 23.422 20.9229 23.2699 20.6152 23.2699C20.4613 23.2699 19.9998 23.1178 19.2305 23.1178H18.6152Z" fill="#0E65B7"/>
<path d="M25.231 29.6578V21.5969H30.7694V22.9657H26.9233V24.9429H30.3079V26.3118H26.9233V29.6578H25.231Z" fill="#0E65B7"/>
</svg>
