<svg width="40" height="40" viewBox="0 0 24 24" fill="none" xmlns="http://www.w3.org/2000/svg"><path d="M14.3078 0.923096H5.63089C5.07704 0.923096 4.5232 1.20002 4.15397 1.56925C3.78474 2.03079 3.50781 2.58463 3.50781 3.13848V20.8616C3.50781 21.4154 3.69243 21.9692 4.15397 22.4308C4.5232 22.8923 5.07704 23.0769 5.63089 23.0769H18.4617C19.0155 23.0769 19.5694 22.8 19.9386 22.4308C20.3078 21.9692 20.5847 21.4154 20.5847 20.8616V7.47694L14.3078 0.923096Z" stroke="#0E65B7" stroke-width="1.4" stroke-linecap="round" stroke-linejoin="round"/><path d="M14.3079 0.923096V7.47694H20.3079" stroke="#0E65B7" stroke-width="1.4" stroke-linecap="round" stroke-linejoin="round"/><path d="M23.0769 10.6154H0.923096V20.1231H23.0769V10.6154Z" fill="white" stroke="#0E65B7" stroke-width="1.4" stroke-linecap="round" stroke-linejoin="round"/><path d="M3.6001 17.9077V13.0154H5.16933C5.72317 13.0154 6.18471 13.0154 6.36933 13.1077C6.64625 13.2 6.92317 13.3846 7.10779 13.5692C7.29241 13.8461 7.38471 14.1231 7.38471 14.4923C7.38471 14.7692 7.29241 15.0461 7.2001 15.2308C7.10779 15.4154 6.92317 15.6 6.83087 15.6923C6.73856 15.7846 6.46164 15.8769 6.27702 15.9692C6.0001 16.0615 5.72317 16.0615 5.26164 16.0615H4.61548V17.9077H3.6001ZM4.61548 13.8461V15.2308H5.16933C5.53856 15.2308 5.81548 15.2308 5.90779 15.1385C6.0001 15.0461 6.18471 15.0462 6.18471 14.8615C6.18471 14.6769 6.27702 14.5846 6.27702 14.4923C6.27702 14.3077 6.18471 14.1231 6.09241 14.0308C6.0001 13.9385 5.81548 13.8461 5.72317 13.8461C5.63087 13.8461 5.35394 13.8461 4.98471 13.8461H4.61548Z" fill="#0E65B7"/><path d="M8.21558 17.9077V13.0154H9.78481C10.3387 13.0154 10.8002 13.0154 10.9848 13.1077C11.2617 13.2 11.5387 13.3846 11.7233 13.5692C11.9079 13.8461 12.0002 14.1231 12.0002 14.4923C12.0002 14.7692 11.9079 15.0461 11.8156 15.2308C11.7233 15.4154 11.5387 15.6 11.4463 15.6923C11.354 15.7846 11.0771 15.8769 10.8925 15.9692C10.6156 16.0615 10.3387 16.0615 9.87712 16.0615H9.23096V17.9077H8.21558ZM9.13865 13.8461V15.2308H9.6925C10.0617 15.2308 10.3387 15.2308 10.431 15.1385C10.5233 15.0461 10.7079 15.0462 10.7079 14.8615C10.7079 14.6769 10.8002 14.5846 10.8002 14.4923C10.8002 14.3077 10.7079 14.1231 10.6156 14.0308C10.5233 13.9385 10.3387 13.8461 10.2463 13.8461C10.154 13.8461 9.87712 13.8461 9.50788 13.8461H9.13865Z" fill="#0E65B7"/><path d="M13.8463 17.9077V13.8461H12.3694V13.0154H16.2463V13.8461H14.7694V17.9077H13.8463Z" fill="#0E65B7"/><path d="M16.4309 17.9077L18.0924 15.3231L16.6155 13.0154H17.7232L18.7386 14.5846L19.6617 13.0154H20.7694L19.2924 15.4154L20.954 17.9077H19.754L18.6463 16.2462L17.5386 17.9077H16.4309Z" fill="#0E65B7"/></svg>