<svg width="186" height="130" viewBox="0 0 186 130" fill="none" xmlns="http://www.w3.org/2000/svg">
<mask id="mask0" mask-type="alpha" maskUnits="userSpaceOnUse" x="93" y="38" width="93" height="92">
<path fill-rule="evenodd" clip-rule="evenodd" d="M93.77 38.9082H185.475V130H93.77V38.9082Z" fill="white"/>
</mask>
<g mask="url(#mask0)">
<path fill-rule="evenodd" clip-rule="evenodd" d="M184.714 55.0587L158.267 39.1354C157.221 38.5057 155.889 39.2594 155.889 40.4805V72.3276C155.889 73.5486 154.557 74.3023 153.511 73.6726L127.063 57.7494V57.7488L96.1471 39.1354C95.1011 38.5057 93.7695 39.2594 93.7695 40.4805V109.727C93.7695 110.948 95.1006 111.702 96.1466 111.074L122.452 95.2355C123.497 94.6058 124.829 95.3595 124.829 96.5806V128.427C124.829 129.649 126.161 130.402 127.207 129.773L153.654 113.849C154.668 113.239 154.668 111.769 153.654 111.159L127.063 95.1493C126.121 94.5821 126.056 93.2715 126.867 92.5995H126.829L184.714 57.7488C185.728 57.1389 185.728 55.6686 184.714 55.0587Z" fill="#4BA3E3"/>
</g>
<path fill-rule="evenodd" clip-rule="evenodd" d="M124.922 21.6371V53.7197C124.922 54.9498 126.251 55.7091 127.294 55.0748L153.676 39.0337C154.687 38.4187 154.687 36.9376 153.676 36.3231L127.294 20.2821C126.251 19.6478 124.922 20.4071 124.922 21.6371Z" fill="#4BA3E3"/>
<mask id="mask1" mask-type="alpha" maskUnits="userSpaceOnUse" x="0" y="18" width="92" height="92">
<path fill-rule="evenodd" clip-rule="evenodd" d="M0 18.855H91.7046V109.947H0V18.855Z" fill="white"/>
</mask>
<g mask="url(#mask1)">
<path fill-rule="evenodd" clip-rule="evenodd" d="M90.9443 35.0054L64.4965 19.0822C63.4505 18.4525 62.1189 19.2062 62.1189 20.4273V52.2743C62.1189 53.4954 60.7873 54.2491 59.7413 53.6194L33.2935 37.6962V37.6956L2.37713 19.0822C1.33111 18.4525 -0.000488281 19.2062 -0.000488281 20.4273V89.6742C-0.000488281 90.8947 1.33055 91.6484 2.37656 91.0204L28.6819 75.1823C29.7273 74.5526 31.0595 75.3063 31.0595 76.5274V108.374C31.0595 109.595 32.3911 110.349 33.4365 109.72L59.8843 93.7962C60.8977 93.1857 60.8977 91.7155 59.8843 91.1055L33.2935 75.096C32.3511 74.5289 32.2863 73.2182 33.0974 72.5463H33.0591L90.9443 37.6956C91.9577 37.0856 91.9577 35.6154 90.9443 35.0054Z" fill="#4BA3E3"/>
</g>
<path fill-rule="evenodd" clip-rule="evenodd" d="M31.1523 1.58391V33.6665C31.1523 34.8966 32.4806 35.6559 33.5241 35.0215L59.9062 18.9805C60.917 18.3655 60.917 16.8844 59.9062 16.2699L33.5241 0.228889C32.4806 -0.40546 31.1523 0.353828 31.1523 1.58391Z" fill="#4BA3E3"/>
</svg>
