<svg width="150" height="47" viewBox="0 0 150 47" fill="none" xmlns="http://www.w3.org/2000/svg">
<path fill-rule="evenodd" clip-rule="evenodd" d="M0 40.3928C0 40.8845 0.578738 41.1879 1.0332 40.9345L12.5294 34.5237C12.9697 34.2781 12.9697 33.686 12.5294 33.4405L1.0332 27.0297C0.578738 26.7762 0 27.0796 0 27.5714V40.3928Z" fill="#EDF5FC"/>
<path fill-rule="evenodd" clip-rule="evenodd" d="M0 25.5635C0 26.0552 0.578738 26.3586 1.0332 26.1051L12.5294 19.6943C12.9697 19.4488 12.9697 18.8567 12.5294 18.6111L1.0332 12.2003C0.578738 11.9469 0 12.2503 0 12.742V25.5635Z" fill="#EDF5FC"/>
<mask id="mask0" mask-type="alpha" maskUnits="userSpaceOnUse" x="38" y="1" width="15" height="15">
<path fill-rule="evenodd" clip-rule="evenodd" d="M38.9702 1.06226H52.0874V15.3356H38.9702V1.06226Z" fill="white"/>
</mask>
<g mask="url(#mask0)">
<path fill-rule="evenodd" clip-rule="evenodd" d="M38.9702 14.6941C38.9702 15.1923 39.5605 15.4997 40.0241 15.243L51.7504 8.74766C52.1998 8.49885 52.1998 7.89913 51.7504 7.65017L40.0241 1.15488C39.5605 0.898094 38.9702 1.20564 38.9702 1.7037V14.6941Z" fill="#EDF5FC"/>
</g>
<mask id="mask1" mask-type="alpha" maskUnits="userSpaceOnUse" x="12" y="1" width="41" height="46">
<path fill-rule="evenodd" clip-rule="evenodd" d="M12.8599 1.09277H52.5545V46.2162H12.8599V1.09277Z" fill="white"/>
</mask>
<g mask="url(#mask1)">
<path fill-rule="evenodd" clip-rule="evenodd" d="M13.9145 1.18622C13.4623 0.927297 12.8857 1.23707 12.8857 1.73914L12.8599 45.5694C12.8595 46.0715 13.4357 46.3816 13.888 46.1231L52.2254 24.2259C52.6639 23.9754 52.6642 23.3708 52.2259 23.12L13.9145 1.18622Z" fill="#EDF5FC"/>
</g>
<path fill-rule="evenodd" clip-rule="evenodd" d="M97.4458 39.3584C97.4458 39.8501 98.0245 40.1535 98.479 39.9001L109.975 33.4893C110.416 33.2437 110.416 32.6516 109.975 32.406L98.479 25.9953C98.0245 25.7418 97.4458 26.0452 97.4458 26.5369V39.3584Z" fill="#EDF5FC"/>
<path fill-rule="evenodd" clip-rule="evenodd" d="M97.4458 24.5293C97.4458 25.021 98.0245 25.3244 98.479 25.071L109.975 18.6602C110.416 18.4146 110.416 17.8225 109.975 17.5769L98.479 11.1661C98.0245 10.9127 97.4458 11.2161 97.4458 11.7078V24.5293Z" fill="#EDF5FC"/>
<mask id="mask2" mask-type="alpha" maskUnits="userSpaceOnUse" x="136" y="0" width="14" height="15">
<path fill-rule="evenodd" clip-rule="evenodd" d="M136.416 0.0280762H149.533V14.3014H136.416V0.0280762Z" fill="white"/>
</mask>
<g mask="url(#mask2)">
<path fill-rule="evenodd" clip-rule="evenodd" d="M136.416 13.66C136.416 14.1582 137.006 14.4656 137.47 14.2088L149.196 7.71348C149.646 7.46467 149.646 6.86495 149.196 6.61599L137.47 0.120702C137.006 -0.136085 136.416 0.171457 136.416 0.669519V13.66Z" fill="#EDF5FC"/>
</g>
<mask id="mask3" mask-type="alpha" maskUnits="userSpaceOnUse" x="110" y="0" width="41" height="46">
<path fill-rule="evenodd" clip-rule="evenodd" d="M110.306 0.0585938H150V45.182H110.306V0.0585938Z" fill="white"/>
</mask>
<g mask="url(#mask3)">
<path fill-rule="evenodd" clip-rule="evenodd" d="M111.36 0.152045C110.908 -0.106883 110.332 0.20289 110.332 0.704961L110.306 44.5352C110.305 45.0373 110.881 45.3474 111.334 45.0889L149.671 23.1918C150.11 22.9412 150.11 22.3367 149.672 22.0858L111.36 0.152045Z" fill="#EDF5FC"/>
</g>
<mask id="mask4" mask-type="alpha" maskUnits="userSpaceOnUse" x="79" y="0" width="14" height="14">
<path fill-rule="evenodd" clip-rule="evenodd" d="M79.3652 0H92.4825V13.6786H79.3652V0Z" fill="white"/>
</mask>
<g mask="url(#mask4)">
<path fill-rule="evenodd" clip-rule="evenodd" d="M79.3652 13.0639C79.3652 13.5413 79.9556 13.8359 80.4191 13.5898L92.1455 7.36517C92.5948 7.12673 92.5948 6.552 92.1455 6.31342L80.4191 0.0887665C79.9556 -0.157321 79.3652 0.137407 79.3652 0.614716V13.0639Z" fill="#EDF5FC"/>
</g>
<mask id="mask5" mask-type="alpha" maskUnits="userSpaceOnUse" x="53" y="0" width="40" height="44">
<path fill-rule="evenodd" clip-rule="evenodd" d="M53.2549 0.0290527H92.9495V43.2723H53.2549V0.0290527Z" fill="white"/>
</mask>
<g mask="url(#mask5)">
<path fill-rule="evenodd" clip-rule="evenodd" d="M54.3096 0.118611C53.8573 -0.129529 53.2807 0.167337 53.2807 0.648488L53.2549 42.6525C53.2546 43.1337 53.8307 43.4308 54.2831 43.1831L92.6204 22.1984C93.0589 21.9582 93.0592 21.3789 92.6209 21.1385L54.3096 0.118611Z" fill="#EDF5FC"/>
</g>
</svg>
