<svg xmlns="http://www.w3.org/2000/svg" xmlns:xlink="http://www.w3.org/1999/xlink"><symbol id="calendar" viewBox="0 0 24 24"><path fill-rule="evenodd" d="M23.3 4.2h-3.8V3h-2v1.2h-10V3h-2v1.2H1.7v17.6h21.6V4.2zM3.3 8h18.4V5.8h-2.2V7h-2V5.8h-10V7h-2V5.8H3.3V8zm0 1.6v10.6h18.4V9.6H3.3zM9 12v2H6v-2h3zm5 0h-3v2h3v-2zm5 0v2h-3v-2h3zM9 18v-2H6v2h3zm2-2h3v2h-3v-2zm8 2v-2h-3v2h3z"/></symbol><symbol id="close" viewBox="0 0 20 20"><g fill="none"><path d="M15 5L5 15M5 5l10 10" stroke-width="1.5" stroke-linecap="round" stroke-linejoin="round"/></g></symbol><symbol id="colored-calendar" viewBox="0 0 48 48"><path d="M0 12.63v30.74a3.75 3.75 0 003.75 3.76h40.5A3.75 3.75 0 0048 43.37V12.64H0z" fill="#D8DCE1"/><path fill-rule="evenodd" d="M44.25 2.13H3.75A3.75 3.75 0 000 5.88v6.75h48V5.87a3.75 3.75 0 00-3.75-3.75zM6 9.63a2.25 2.25 0 110-4.5 2.25 2.25 0 010 4.5zm33.75-2.26a2.25 2.25 0 104.5 0 2.25 2.25 0 00-4.5 0z"/><path d="M24 19.38a3 3 0 100 6 3 3 0 000-6zm-7.5 0a3 3 0 100 6 3 3 0 000-6zm-7.5 0a3 3 0 100 6 3 3 0 000-6zm22.5 0a3 3 0 100 6 3 3 0 000-6zm7.5 6a3 3 0 100-6.01 3 3 0 000 6zm-15 1.5a3 3 0 100 6 3 3 0 000-6zm-7.5 0a3 3 0 100 6 3 3 0 000-6zm-7.5 0a3 3 0 100 6 3 3 0 000-6zm22.5 0a3 3 0 100 6 3 3 0 000-6zm7.5 0a3 3 0 100 6 3 3 0 000-6zm-15 7.5a3 3 0 100 6 3 3 0 000-6zm-15 0a3 3 0 100 6 3 3 0 000-6zm22.5 0a3 3 0 100 6 3 3 0 000-6zm7.5 0a3 3 0 100 6 3 3 0 000-6z" fill="#fff"/><path d="M6 8.5a1.13 1.13 0 01-1.13-1.13V2.13a1.13 1.13 0 012.25 0v5.25A1.1 1.1 0 016 8.5zm36 0a1.13 1.13 0 01-1.13-1.13V2.13a1.13 1.13 0 012.26 0v5.25c0 .63-.5 1.13-1.13 1.13z" fill="#5C546A"/><path d="M9 25.38a3 3 0 100-6 3 3 0 000 6z" fill="#FF4452"/><path d="M31.5 32.88a3 3 0 100-6 3 3 0 000 6zm-15 7.9a3 3 0 100-6 3 3 0 000 6z"/></symbol><symbol id="colored-checklist" viewBox="0 0 48 48"><path d="M38.28 2.42H6.85a.79.79 0 00-.8.79v40.87a3.83 3.83 0 003.84 3.83h22.7a.8.8 0 00.57-.23l8.72-8.73a.79.79 0 00.23-.56V6.25a3.83 3.83 0 00-3.83-3.83z" fill="#EBEEF2"/><path d="M38.28 2.42h-2.73a3.83 3.83 0 013.83 3.83v32.14a.79.79 0 01-.24.56l-.42.42h2.74l.42-.42a.79.79 0 00.23-.56V6.25a3.83 3.83 0 00-3.83-3.83z" fill="#DCE0E5"/><path d="M42.05 38.09a.79.79 0 00-.73-.49H32.6a.79.79 0 00-.8.8v8.72a.79.79 0 001.36.56l8.72-8.73a.79.79 0 00.17-.86z" fill="#D1D6DE"/><path d="M12.07 6.33a.79.79 0 01-.79-.8V.89a.79.79 0 111.58 0v4.66a.79.79 0 01-.79.79zm8.01 0a.79.79 0 01-.79-.8V.89a.79.79 0 011.58 0v4.66a.79.79 0 01-.79.79zm8.01 0a.79.79 0 01-.79-.8V.89a.79.79 0 111.58 0v4.66a.79.79 0 01-.79.79zm8.01 0a.79.79 0 01-.79-.8V.89a.79.79 0 011.58 0v4.66a.79.79 0 01-.79.79z" fill="#444966"/><path d="M14.26 15.68a.79.79 0 01-.56-.23l-1.56-1.56a.79.79 0 111.12-1.12l1 1 2.35-2.34a.79.79 0 011.12 1.11l-2.91 2.9a.79.79 0 01-.56.24z"/><path d="M34.89 12.37H23.83a.79.79 0 110-1.58h11.06a.79.79 0 010 1.58zm-7.16 3.71h-3.9a.79.79 0 010-1.57h3.9a.79.79 0 010 1.58z" fill="#66707C"/><path d="M14.26 26.76a.79.79 0 01-.56-.23l-1.56-1.56a.79.79 0 111.12-1.12l1 1 2.35-2.34a.79.79 0 011.12 1.11l-2.91 2.91a.79.79 0 01-.56.23z"/><path d="M34.89 23.45H23.83a.79.79 0 110-1.58h11.06a.79.79 0 010 1.58zm-7.16 3.72h-3.9a.79.79 0 010-1.58h3.9a.79.79 0 010 1.58zm7.16 7.36H23.83a.79.79 0 010-1.58h11.06a.79.79 0 010 1.58zm-7.16 3.72h-3.9a.79.79 0 010-1.58h3.9a.79.79 0 110 1.58z" fill="#66707C"/><path d="M11.33 35.45a3.61 3.61 0 003.6 3.6 3.61 3.61 0 003.61-3.6 3.61 3.61 0 00-3.6-3.61 3.61 3.61 0 00-3.61 3.61zm1.58 0a2.03 2.03 0 114.06 0 2.03 2.03 0 01-4.06 0z" fill="#FF4452"/><circle r="3.5" cx="15" cy="35.5" fill="#FF4452"/><circle cx="15" r="2" cy="35.5" fill="#EBEEF2"/></symbol><symbol id="colored-human" viewBox="0 0 48 48"><path d="M27.72 28.53h-7.9c-.7 0-1.38-.3-2.04-.16A9.7 9.7 0 0010 37.81v9.33a.76.76 0 00.77.75h26a.76.76 0 00.77-.75V37.8a9.7 9.7 0 00-7.78-9.44c-.66-.13-1.34.16-2.04.16z"/><path d="M23.75 42.24l7.37-13.55a8.87 8.87 0 00-3.76-.83h-7.21c-1.34 0-2.62.3-3.76.83l7.36 13.55z" fill="#EBEEF2"/><path d="M25.02 31.18a3.58 3.58 0 002.17-3.32h-6.87c0 1.5.9 2.8 2.17 3.32l-1.14 6.5 2.4 4.56 2.4-4.56-1.13-6.5z" fill="#FF4452"/><path d="M36.32 19.86V13.2C36.32 6.46 30.75 1 23.87 1a12.33 12.33 0 00-12.45 12.2v6.66c0 1.79-.6 3.98-1.34 5.36a.7.7 0 00.63 1.03h26.31a.7.7 0 00.63-1.03 12.55 12.55 0 01-1.33-5.36z" fill="#444966"/><path d="M33.09 16.76v1.9c0 5-4.14 9.04-9.23 9.04a9.14 9.14 0 01-9.24-9.04v-5.89c0-.31.02-.63.06-.94h1.18a3 3 0 012.8 1.92 4.63 4.63 0 001.73 2.18 4.77 4.77 0 002.7.83h10z" fill="#FCD0AE"/></symbol><symbol id="copy" viewBox="0 0 896 1024"><path d="M686 17Q670 0 646 0H268q-28 0-49 18.5T194 64h-79q-48 0-81.5 33.5T0 179v730q0 48 33.5 81.5T115 1024h604q48 0 81.5-33.5T834 909v-80q27-5 44.5-26t17.5-48V250q0-24-17-40zm117 207H644V65zm-33 685q0 21-14.5 36T720 960H115q-21 0-36-15t-15-36V179q0-21 15-36t36-15h78v627q0 31 22 53t53 22h502v79zm62-155q0 12-12 12H268q-4 0-7.5-3.5T257 754V76q0-5 3.5-8.5T268 64h308v192q0 13 9.5 22.5T608 288h224v466zM672 447H417q-13 0-22.5-9.5T385 415t9.5-22.5T417 383h255q13 0 22.5 9.5T704 415t-9.5 22.5T672 447zm0 129H417q-13 0-22.5-9.5T385 544t9.5-22.5T417 512h255q13 0 22.5 9.5T704 544t-9.5 22.5T672 576zM544 705H416q-13 0-22.5-9.5T384 673t9.5-22.5T416 641h128q14 0 23 9.5t9 22.5-9 22.5-23 9.5z"/></symbol><symbol id="delete" viewBox="0 0 896 1024"><path d="M864 191H705V73q0-30-21.5-51.5T632 0H264q-30 0-51.5 21.5T191 73v118H32q-13 0-22.5 9.5T0 224q0 13 9.5 22.5T32 256h33v695q0 30 21.5 51.5T138 1024h619q30 0 51.5-21.5T830 951V256h33q14 0 23.5-9.5T896 224q0-14-9.5-23.5T864 191zm-609 0V73q0-9 9-9h368q9 0 9 9v119H255v-1zm511 760q0 9-9 9H138q-9 0-9-9V256h637v695zM256 416v384q0 14-9.5 23t-22.5 9-22.5-9-9.5-23V416q0-13 9.5-22.5T224 384t22.5 9.5T256 416zm224 0v384q0 14-9.5 23t-22.5 9-22.5-9-9.5-23V416q0-13 9.5-22.5T448 384t22.5 9.5T480 416zm225 0v384q0 14-9.5 23t-22.5 9-22.5-9-9.5-23V416q0-13 9.5-22.5T673 384t22.5 9.5T705 416z"/></symbol><symbol id="done" viewBox="0 0 1200 1200"><path d="M600 0C268.629 0 0 268.629 0 600s268.629 600 600 600 600-268.629 600-600S931.371 0 600 0zm257.446 281.03l124.658 124.658-389.355 389.429L468.823 918.97 344.165 794.312l-126.27-126.343 123.853-123.853 126.27 126.343L857.446 281.03z"/></symbol><symbol id="down" viewBox="0 0 448 513"><path d="M447.046 283.925c-1.664-3.989-5.547-6.592-9.856-6.592H320.305V10.667C320.305 4.779 315.526 0 309.638 0H138.971c-5.888 0-10.667 4.779-10.667 10.667v266.667H10.971a10.702 10.702 0 00-9.856 6.571c-1.643 3.989-.747 8.576 2.304 11.627l212.8 213.504a10.675 10.675 0 007.552 3.136c2.837 0 5.547-1.131 7.552-3.115l213.419-213.504a10.645 10.645 0 002.304-11.628z"/></symbol><symbol id="download" viewBox="0 0 29.978 29.978"><path d="M25.462 19.105v6.848H4.515v-6.848H.489v8.861c0 1.111.9 2.012 2.016 2.012h24.967c1.115 0 2.016-.9 2.016-2.012v-8.861h-4.026zM14.62 18.426l-5.764-6.965s-.877-.828.074-.828h3.248V9.217.494S12.049 0 12.793 0h4.572c.536 0 .524.416.524.416V10.424h2.998c1.154 0 .285.867.285.867s-4.904 6.51-5.588 7.193c-.492.495-.964-.058-.964-.058z"/></symbol><symbol id="exclamation" viewBox="0 0 24 24"><g fill="none"><path d="M12 22c5.523 0 10-4.477 10-10S17.523 2 12 2 2 6.477 2 12s4.477 10 10 10zM12 8v4M12 16h.01" stroke-width="2" stroke-linecap="round" stroke-linejoin="round"/></g></symbol><symbol id="next" viewBox="0 0 34 34"><path d="M20.5 21.6l-9.1-9.1 3.1-2.9 12 12-12.1 12-3-3.1 9.1-8.9z"/></symbol><symbol id="question" viewBox="0 0 24 24"><path d="M12.5 22.8C6.535 22.8 1.7 17.965 1.7 12c0-5.965 4.835-10.8 10.8-10.8 5.965 0 10.8 4.835 10.8 10.8 0 5.965-4.835 10.8-10.8 10.8zm0-1.6a9.2 9.2 0 100-18.4 9.2 9.2 0 000 18.4zm-1.11-6.784h1.744c-.01-.529.035-.896.133-1.1.098-.206.35-.477.756-.814.783-.652 1.295-1.167 1.534-1.545.24-.378.359-.78.359-1.203 0-.766-.326-1.437-.978-2.013-.651-.577-1.529-.865-2.631-.865-1.049 0-1.895.285-2.54.854-.645.57-.992 1.263-1.042 2.079l1.763.218c.123-.57.349-.993.677-1.271.328-.278.736-.417 1.224-.417.506 0 .908.133 1.206.4.299.266.448.587.448.96 0 .27-.084.515-.253.739-.11.14-.444.44-1.005.895-.56.456-.934.866-1.12 1.23-.188.365-.281.83-.281 1.395 0 .055.002.207.007.458zm0 .663V17h1.921v-1.92h-1.92z"/></symbol><symbol id="simple-check" viewBox="0 0 20 20"><g fill="none"><path d="M16.667 5L7.5 14.167 3.333 10" stroke-width="2" stroke-linecap="round" stroke-linejoin="round"/></g></symbol><symbol id="up" viewBox="0 0 448 513"><path d="M1.124 228.247c1.664 3.989 5.547 6.592 9.856 6.592h116.885v266.666c0 5.888 4.779 10.667 10.667 10.667h170.667c5.888 0 10.667-4.779 10.667-10.667V234.838h117.333c4.309 0 8.192-2.603 9.856-6.571 1.643-3.989.747-8.576-2.304-11.627L231.951 3.136A10.675 10.675 0 00224.399 0a10.744 10.744 0 00-7.552 3.115L3.428 216.619a10.645 10.645 0 00-2.304 11.628z"/></symbol></svg>