<svg xmlns="http://www.w3.org/2000/svg" xmlns:xlink="http://www.w3.org/1999/xlink"><defs><clipPath id="clip0"><path fill="#fff" d="M0 0h25.8v24H0z"/></clipPath><clipPath id="clip0"><path fill="#fff" transform="translate(.22)" d="M0 0h16v16H0z"/></clipPath></defs><symbol id="align-center" viewBox="0 0 24 24"><path d="M18 10H6M21 6H3M21 14H3M18 18H6" stroke-width="2" stroke-linecap="round" stroke-linejoin="round"/></symbol><symbol id="align-justify" viewBox="0 0 24 24"><path d="M21 10H3M21 6H3M21 14H3M21 18H3" stroke-width="2" stroke-linecap="round" stroke-linejoin="round"/></symbol><symbol id="align-left" viewBox="0 0 24 24"><path d="M17 10H3M21 6H3M21 14H3M17 18H3" stroke-width="2" stroke-linecap="round" stroke-linejoin="round"/></symbol><symbol id="align-right" viewBox="0 0 24 24"><path d="M21 10H7M21 6H3M21 14H3M21 18H7" stroke-width="2" stroke-linecap="round" stroke-linejoin="round"/></symbol><symbol id="archive" viewBox="0 0 24 24"><path d="M21 8v13H3V8M23 3H1v5h22V3zM10 12h4" stroke-width="2" stroke-linecap="round" stroke-linejoin="round"/></symbol><symbol id="arrdown" viewBox="0 0 14 14"><path d="M2.333 8.167L7 12.833l4.667-4.666M7 12.833V1.167" stroke-width="2" stroke-linecap="round" stroke-linejoin="round"/></symbol><symbol id="arrow-right" viewBox="0 0 12 15"><path d="M0 .668v13.664c0 .522.54.84.958.57l10.739-6.824a.702.702 0 000-1.156L.958.098C.54-.172 0 .145 0 .668z" fill="currentColor"/></symbol><symbol id="arrow-up"><path d="M20 11l-8-7.996L4 11" stroke-width="2" stroke-linecap="round" stroke-linejoin="round"/><path d="M12 5l.014 15.059.001.941" stroke-width="2" stroke-linecap="round" stroke-linejoin="round"/></symbol><symbol id="arrow" viewBox="0 0 10 4"><path d="M5 4L.67.25h8.66L5 4z"/></symbol><symbol id="arrup" viewBox="0 0 14 14"><path d="M11.667 5.833L7 1.167 2.333 5.833M7 1.167v11.666" stroke-width="2" stroke-linecap="round" stroke-linejoin="round"/></symbol><symbol id="await" viewBox="0 0 24 24"><path d="M12 22c5.523 0 10-4.47 10-10 0-5.523-4.7-10-10-10C6.477 2 2 6.477 2 12c0 5.53 4.477 10 10 10zm0-10h4m-4 0V6" stroke-width="2" stroke-linecap="round" stroke-linejoin="round"/></symbol><symbol id="award" viewBox="0 0 24 24"><path d="M12 15a7 7 0 100-14 7 7 0 000 14z" stroke-width="2" stroke-linecap="round" stroke-linejoin="round"/><path d="M8.21 13.89L7 23l5-3 5 3-1.21-9.12" stroke-width="2" stroke-linecap="round" stroke-linejoin="round"/></symbol><symbol id="baby-minding" viewBox="0 0 20 20"><path d="M17.9 7.7c0-3.6-3-6.6-6.6-6.6v6.6M17.9 7.8c0 3.7-3.2 6.6-7.2 6.6s-7.2-2.9-7.2-6.6h14.4z" stroke-width="2" stroke-linecap="round" stroke-linejoin="round"/><path d="M3.5 7.8S3.4 5 3.1 4.3c-.4-1.2-1.9-1-1.9-1M4.2 19a1.6 1.6 0 100-3.2 1.6 1.6 0 000 3.2zM17.1 19a1.6 1.6 0 100-3.2 1.6 1.6 0 000 3.2zM5.2 15.9l1.6-2.5M16.3 16l-1.6-2.7" stroke-width="2" stroke-linecap="round" stroke-linejoin="round"/></symbol><symbol id="blind-mode-black" viewBox="0 0 36 36"><rect rx="3" fill="#25282B"/><path d="M6 18s4.364-9 12-9 12 9 12 9-4.364 9-12 9-12-9-12-9z" fill="#25282B" stroke="#fff" stroke-width="2" stroke-linecap="round" stroke-linejoin="round"/><circle cx="18" cy="18" r="4" stroke="#fff" stroke-width="2"/></symbol><symbol id="blind-mode-blue" viewBox="0 0 36 36"><rect x=".5" y=".5" width="35" height="35" rx="2.5" fill="#9DD1FF"/><path d="M6 18s4.364-9 12-9 12 9 12 9-4.364 9-12 9-12-9-12-9z" stroke="#25282B" stroke-width="2" stroke-linecap="round" stroke-linejoin="round"/><circle cx="18" cy="18" r="4" stroke="#25282B" stroke-width="2"/><rect x=".5" y=".5" width="35" height="35" rx="2.5" stroke="#000"/></symbol><symbol id="blind-mode-image" viewBox="0 0 36 36"><path d="M30.444 2H5.556A3.556 3.556 0 002 5.556v24.888A3.556 3.556 0 005.556 34h24.888A3.556 3.556 0 0034 30.444V5.556A3.556 3.556 0 0030.444 2z" stroke-width="2" stroke-linecap="round" stroke-linejoin="round"/><path d="M12 15a3 3 0 100-6 3 3 0 000 6zM34 23.636L24.937 15 5 34" stroke-width="2" stroke-linecap="round" stroke-linejoin="round"/></symbol><symbol id="blind-mode-large" viewBox="0 0 36 36"><path d="M22.893 23.2l-.162-.37H12.249l-.163.37-1.839 4.18H8.935l7.68-16.96h1.776l7.704 16.96h-1.362l-1.84-4.18zm-1.477-1.21h.95l-.383-.87-3.926-8.918-.567-1.289-.567 1.29-3.926 8.917-.383.87h8.802z" stroke-width="1.24"/></symbol><symbol id="blind-mode-medium" viewBox="0 0 36 36"><path d="M21.753 24.211l-.131-.299h-8.279l-.131.299-1.447 3.289h-1.01L16.8 14.15h1.386L24.25 27.5H23.2l-1.447-3.289zm-1.175-.939h.766l-.308-.701-3.096-7.032-.457-1.039-.458 1.04-3.096 7.03-.308.702h6.957z"/></symbol><symbol id="blind-mode-mute" viewBox="0 0 36 36"><path d="M9.578 11.842h.397l.29-.273 11.072-10.46-.687-.726.687.727a.359.359 0 01.416-.074.414.414 0 01.247.398v33.132a.414.414 0 01-.247.398.359.359 0 01-.416-.074L10.264 24.431l-.289-.273H3.4c-.2 0-.4-.172-.4-.432V12.274c0-.26.2-.432.4-.432h6.178z" stroke-width="2"/><path d="M25 13l10 10m0-10L25 23" stroke-width="2" stroke-linecap="round"/></symbol><symbol id="blind-mode-noimage" viewBox="0 0 36 36"><path d="M30.444 2H5.556A3.556 3.556 0 002 5.556v24.888A3.556 3.556 0 005.556 34h24.888A3.556 3.556 0 0034 30.444V5.556A3.556 3.556 0 0030.444 2z" stroke-width="2" stroke-linecap="round" stroke-linejoin="round"/><path d="M3 3l30 30m0-30L3 33" stroke-width="2" stroke-linecap="round"/></symbol><symbol id="blind-mode-small" viewBox="0 0 36 36"><path d="M20.723 25.174l-.132-.299H14.36l-.132.299-1.023 2.326h-.444l4.302-9.5h.32l-.365.828-2.265 5.146-.308.701h6.062l-.308-.701-2.265-5.146-.365-.828h.335l4.316 9.5h-.473l-1.023-2.326z"/></symbol><symbol id="blind-mode-sound" viewBox="0 0 36 36"><path d="M9.578 11.842h.397l.29-.273 11.072-10.46-.687-.726.687.727a.359.359 0 01.416-.074.414.414 0 01.247.398v33.132a.414.414 0 01-.247.398.359.359 0 01-.416-.074L10.264 24.431l-.289-.273H3.4c-.2 0-.4-.172-.4-.432V12.274c0-.26.2-.432.4-.432h6.178z" stroke-width="2"/><path d="M27.072 7a12.854 12.854 0 015.074 4.598A11.982 11.982 0 0134 18.02a11.988 11.988 0 01-1.896 6.412A12.866 12.866 0 0127 29" stroke-width="2" stroke-linecap="round"/><path d="M26.038 11c1.12.679 2.055 1.69 2.706 2.926a8.74 8.74 0 01.99 4.087 8.732 8.732 0 01-1.012 4.08C28.064 23.323 27.123 24.329 26 25" stroke-width="2" stroke-linecap="round"/></symbol><symbol id="blind-mode-white" viewBox="0 0 36 36"><rect x=".5" y=".5" width="35" height="35" rx="2.5" fill="#fff"/><path d="M6 18s4.364-9 12-9 12 9 12 9-4.364 9-12 9-12-9-12-9z" stroke-width="2" stroke-linecap="round" stroke-linejoin="round"/><circle cx="18" cy="18" r="4" stroke-width="2"/><rect x=".5" y=".5" width="35" height="35" rx="2.5"/></symbol><symbol id="book" viewBox="0 0 24 24"><path d="M2 3h6a4 4 0 014 4v14a3 3 0 00-3-3H2V3zM22 3h-6a4 4 0 00-4 4v14a3 3 0 013-3h7V3z" stroke-width="2" stroke-linecap="round" stroke-linejoin="round"/></symbol><symbol id="border-check" viewBox="0 0 24 24"><path d="M9 11l3 3L22 4" stroke-width="2" stroke-linecap="round" stroke-linejoin="round"/><path d="M21 12v7a2 2 0 01-2 2H5a2 2 0 01-2-2V5a2 2 0 012-2h11" stroke-width="2" stroke-linecap="round" stroke-linejoin="round"/></symbol><symbol id="border-close" viewBox="0 0 24 24"><path d="M19 3H5a2 2 0 00-2 2v14a2 2 0 002 2h14a2 2 0 002-2V5a2 2 0 00-2-2zM9 9l6 6M15 9l-6 6" stroke-width="2" stroke-linecap="round" stroke-linejoin="round"/></symbol><symbol id="border-minus" viewBox="0 0 24 24"><path d="M19 3H5a2 2 0 00-2 2v14a2 2 0 002 2h14a2 2 0 002-2V5a2 2 0 00-2-2zM8 12h8" stroke-width="2" stroke-linecap="round" stroke-linejoin="round"/></symbol><symbol id="border-plus" viewBox="0 0 24 24"><path d="M19 3H5a2 2 0 00-2 2v14a2 2 0 002 2h14a2 2 0 002-2V5a2 2 0 00-2-2zM12 8v8M8 12h8" stroke-width="2" stroke-linecap="round" stroke-linejoin="round"/></symbol><symbol id="border" viewBox="0 0 24 24"><path d="M19 3H5a2 2 0 00-2 2v14a2 2 0 002 2h14a2 2 0 002-2V5a2 2 0 00-2-2z" stroke-width="2" stroke-linecap="round" stroke-linejoin="round"/></symbol><symbol id="briefcase" viewBox="0 0 24 24"><path d="M20 7H4a2 2 0 00-2 2v10a2 2 0 002 2h16a2 2 0 002-2V9a2 2 0 00-2-2z" stroke-width="2" stroke-linecap="round" stroke-linejoin="round"/><path d="M16 21V5a2 2 0 00-2-2h-4a2 2 0 00-2 2v16" stroke-width="2" stroke-linecap="round" stroke-linejoin="round"/></symbol><symbol id="calendar" viewBox="0 0 24 24"><path d="M19 4H5a2 2 0 00-2 2v14a2 2 0 002 2h14a2 2 0 002-2V6a2 2 0 00-2-2zM16 2v4M8 2v4M3 10h18" stroke-width="2" stroke-linecap="round" stroke-linejoin="round"/></symbol><symbol id="camera" viewBox="0 0 24 24"><path d="M23 19a2 2 0 01-2 2H3a2 2 0 01-2-2V8a2 2 0 012-2h4l2-3h6l2 3h4a2 2 0 012 2v11z" stroke-width="2" stroke-linecap="round" stroke-linejoin="round"/><path d="M12 17a4 4 0 100-8 4 4 0 000 8z" stroke-width="2" stroke-linecap="round" stroke-linejoin="round"/></symbol><symbol id="cancel" viewBox="0 0 20 20"><path d="M10 18.333a8.333 8.333 0 100-16.666 8.333 8.333 0 000 16.666zM4.108 4.108l11.784 11.784" stroke-width="2" stroke-linecap="round" stroke-linejoin="round"/></symbol><symbol id="case-2" viewBox="0 0 18 18"><path d="M2.775 5.1H15.45c.675 0 1.275.6 1.275 1.275v7.575c0 .675-.6 1.275-1.275 1.275H2.775c-.675 0-1.275-.6-1.275-1.275V6.375C1.5 5.7 2.025 5.1 2.775 5.1z" stroke-width="1.5" stroke-linecap="round" stroke-linejoin="round"/><path d="M1.875 5.475l2.55 3.3c.225.3.525.45.9.45h7.725c.3 0 .6-.15.75-.375l2.475-3.375M6.75 4.875V2.25h5.1V4.8" stroke-width="1.5" stroke-linecap="round" stroke-linejoin="round"/><path d="M10.275 9.15H8.25v1.275h2.025V9.15z" stroke-width="1.5" stroke-linecap="round" stroke-linejoin="round"/></symbol><symbol id="case" viewBox="0 0 24 24"><path d="M4 5h16c1.1 0 2 .9 2 2v11c0 1.1-.9 2-2 2H4c-1.1 0-2-.9-2-2V7c0-1.1.9-2 2-2zM14 2c-.254-.304-.619-.557-1.057-.732A3.914 3.914 0 0011.5 1c-.506 0-1.004.092-1.443.268C9.62 1.443 9.254 1.696 9 2" stroke-width="2" stroke-linecap="round" stroke-linejoin="round"/><path d="M22 7v3a2 2 0 01-2 2H4a2 2 0 01-2-2V7" stroke-width="2"/><path stroke-width="2" stroke-linecap="round" stroke-linejoin="round" d="M12 11v2"/></symbol><symbol id="chart" viewBox="0 0 20 20"><g fill="none"><path d="M1.667 18.333h16.666" stroke-width="1.5" stroke-miterlimit="10" stroke-linecap="round" stroke-linejoin="round"/><path d="M8.125 3.333v15h3.75v-15c0-.916-.375-1.666-1.5-1.666h-.75c-1.125 0-1.5.75-1.5 1.666zM2.5 8.333v10h3.333v-10c0-.916-.333-1.666-1.333-1.666h-.667c-1 0-1.333.75-1.333 1.666zM14.167 12.5v5.833H17.5V12.5c0-.917-.333-1.667-1.333-1.667H15.5c-1 0-1.333.75-1.333 1.667z" stroke-width="1.5" stroke-linecap="round" stroke-linejoin="round"/></g></symbol><symbol id="check-2" viewBox="0 0 18 18"><path d="M6.75 8.25L9 10.5 16.5 3" stroke-width="1.5" stroke-linecap="round" stroke-linejoin="round"/><path d="M15.75 9v5.25a1.5 1.5 0 01-1.5 1.5H3.75a1.5 1.5 0 01-1.5-1.5V3.75a1.5 1.5 0 011.5-1.5H12" stroke-width="1.5" stroke-linecap="round" stroke-linejoin="round"/></symbol><symbol id="check" viewBox="0 0 24 24"><path d="M22 11.08V12a10 10 0 11-5.93-9.14" stroke-width="2" stroke-linecap="round" stroke-linejoin="round"/><path d="M22 4L12 14.01l-3-3" stroke-width="2" stroke-linecap="round" stroke-linejoin="round"/></symbol><symbol id="child-house" viewBox="0 0 18 16"><path d="M6.87 10.204a2.48 2.48 0 002.24 1.05 2.443 2.443 0 002.242-1.05" stroke-width="1.5" stroke-linecap="round" stroke-linejoin="round"/><path d="M14.844 5.16c-.18.002-.358.046-.519.129a5.794 5.794 0 00-5.318-3.7 5.8 5.8 0 00-5.123 3.254c-.073.146-.128.293-.195.446a1.16 1.16 0 00-.513-.129c-.824 0-1.496.861-1.496 1.918 0 1.056.672 1.91 1.496 1.91h.104c.091.554.254 1.094.482 1.607a5.819 5.819 0 005.251 3.516 5.818 5.818 0 005.251-3.517 6.594 6.594 0 00.476-1.593h.11c.818 0 1.49-.861 1.49-1.911s-.672-1.93-1.496-1.93z" stroke-width="1.5" stroke-linecap="round" stroke-linejoin="round"/><path d="M3.695 5.429a4.274 4.274 0 004.884.495c1.54-.874 1.588-3.585 1.588-3.585s-.214 4.024 2.577 4.14c1.062.043 1.673-1.093 1.673-1.093" stroke-width="1.5" stroke-linecap="round" stroke-linejoin="round"/></symbol><symbol id="child-studio" viewBox="0 0 18 16"><path d="M7.772 15.178a6.796 6.796 0 006.654-6.92 6.795 6.795 0 00-6.654-6.925c-2.668 0-5.084.84-5.702 3.367-.53 2.169 2.471 1.903 2.657 3.707.234 2.23-3.25 1.408-3.25 3.089 0 1.921 3.713 3.682 6.295 3.682z" stroke-width="1.5" stroke-linecap="round" stroke-linejoin="round"/><path d="M4.797 5.76a1.107 1.107 0 100-2.213 1.107 1.107 0 000 2.213zM8.485 5.022a1.107 1.107 0 100-2.213 1.107 1.107 0 000 2.213zM11.436 6.497a1.107 1.107 0 100-2.213 1.107 1.107 0 000 2.213z"/><path d="M16.304 5.812l-7.376 4.38s-1.18-1.347-2.089-.216a20.51 20.51 0 01-2.125 2.187s3.59.377 4.207-1.656" stroke-width="1.5" stroke-linecap="round" stroke-linejoin="round"/></symbol><symbol id="chrome" viewBox="0 0 24 24"><path d="M12 22c5.523 0 10-4.477 10-10S17.523 2 12 2 2 6.477 2 12s4.477 10 10 10z" stroke-width="2" stroke-linecap="round" stroke-linejoin="round"/><path d="M12 16a4 4 0 100-8 4 4 0 000 8zM21.17 8H12M3.95 6.06L8.54 14M10.88 21.94L15.46 14" stroke-width="2" stroke-linecap="round" stroke-linejoin="round"/></symbol><symbol id="claim" viewBox="0 0 24 24"><path d="M10.29 3.86L1.82 18a2 2 0 001.71 3h16.94a2 2 0 001.71-3L13.71 3.86a2 2 0 00-3.42 0zM12 9v4M12 17h.01" stroke-width="2" stroke-linecap="round" stroke-linejoin="round"/></symbol><symbol id="clip" viewBox="0 0 24 24"><path d="M21.44 11.05l-9.19 9.19a6.003 6.003 0 01-8.49-8.49l9.19-9.19a4.002 4.002 0 015.66 5.66l-9.2 9.19a2.001 2.001 0 11-2.83-2.83l8.49-8.48" stroke-width="2" stroke-linecap="round" stroke-linejoin="round"/></symbol><symbol id="clipboard" viewBox="0 0 24 24"><path d="M16 4h2a2 2 0 012 2v14a2 2 0 01-2 2H6a2 2 0 01-2-2V6a2 2 0 012-2h2" stroke-width="2" stroke-linecap="round" stroke-linejoin="round"/><path d="M15 2H9a1 1 0 00-1 1v2a1 1 0 001 1h6a1 1 0 001-1V3a1 1 0 00-1-1z" stroke-width="2" stroke-linecap="round" stroke-linejoin="round"/></symbol><symbol id="clock" viewBox="0 0 24 24"><g fill="none"><path stroke-width="2" stroke-linecap="round" d="M12 22c5.523 0 10-4.477 10-10S17.523 2 12 2 2 6.477 2 12s4.477 10 10 10zm0-10h4m-4 0V6"/></g></symbol><symbol id="close" viewBox="0 0 24 24"><path d="M18 6L6 18M6 6l12 12" stroke-width="2" stroke-linecap="round" stroke-linejoin="round"/></symbol><symbol id="copy" viewBox="0 0 24 24"><path d="M20 9h-9a2 2 0 00-2 2v9a2 2 0 002 2h9a2 2 0 002-2v-9a2 2 0 00-2-2z" stroke-width="2" stroke-linecap="round" stroke-linejoin="round"/><path d="M5 15H4a2 2 0 01-2-2V4a2 2 0 012-2h9a2 2 0 012 2v1" stroke-width="2" stroke-linecap="round" stroke-linejoin="round"/></symbol><symbol id="culture" viewBox="0 0 16 16"><path stroke-width="1.5" stroke-linecap="round" d="M8.083 7.417v5.166M12.75 7.417v5.166M3.417 7.417v5.166M2.75 14.583h10.5"/><path d="M1.333 4.667l6.844-3.334 6.49 3.334" stroke-width="1.5" stroke-linecap="round" stroke-linejoin="round"/></symbol><symbol id="cup-new" viewBox="0 0 24 24"><path d="M16.893 11.628c2.393-1.108 4.964-3.094 5.107-6.61l-3.893-.305m-12.214 0L2 5.018c.179 3.516 2.714 5.502 5.107 6.61m4.359 4.203l-.43-.076C8.32 14.876 6.57 9.642 6.5 2h10.964c-.071 7.642-1.821 12.876-4.535 13.755l-.404.076s-.88.039-1.059 0zM15.357 22H8.93v-3.057H15.357V22z" stroke-width="2" stroke-miterlimit="10" stroke-linecap="round" stroke-linejoin="round"/></symbol><symbol id="cup" viewBox="0 0 24 24"><path d="M16.893 10.622C19.286 9.63 21.857 7.851 22 4.703l-3.893-.274m-12.214 0L2 4.703c.179 3.148 2.714 4.927 5.107 5.92m4.359 4.362l-.43-.069C8.32 14.13 6.57 8.843 6.5 2h10.964c-.071 6.843-1.821 12.13-4.535 12.916l-.404.069s-.88.034-1.059 0z" stroke-width="2" stroke-miterlimit="10" stroke-linecap="round" stroke-linejoin="round"/><path d="M8 21.684h8M10 18.684h4" stroke-width="2" stroke-linecap="round" stroke-linejoin="round"/></symbol><symbol id="cupe-2" viewBox="0 0 25 23"><path d="M12.7 1.5h6.9s1.5 13.4-6.9 15.1c-8.5-1.7-7-15.1-7-15.1h6.9" stroke-width="2" stroke-linecap="round" stroke-linejoin="round"/><path d="M5.7 5.8H2.1S.8 11 4.4 12.2l3.1.6M20 5.8h3.6s1.3 5.2-2.3 6.4l-3.1.6M12.6 16.6v3.6M8.1 21.4h9.2" stroke-width="2" stroke-linecap="round" stroke-linejoin="round"/></symbol><symbol id="delete" viewBox="0 0 24 24"><path d="M3 6h18M8 6V4a2 2 0 012-2h4a2 2 0 012 2v2m3 0v14a2 2 0 01-2 2H7a2 2 0 01-2-2V6h14zM10 11v6M14 11v6" stroke-width="2" stroke-linecap="round" stroke-linejoin="round"/></symbol><symbol id="diagram" viewBox="0 0 20 20"><g fill="none"><path d="M1.667 1.667v14.166c0 1.384 1.116 2.5 2.5 2.5h14.166" stroke-width="2" stroke-miterlimit="10" stroke-linecap="round" stroke-linejoin="round"/><path d="M4.167 14.167L7.992 9.7a1.663 1.663 0 012.441-.092l.792.792a1.67 1.67 0 002.442-.092L17.5 5.833" stroke-width="2" stroke-miterlimit="10" stroke-linecap="round" stroke-linejoin="round"/></g></symbol><symbol id="doc" viewBox="0 0 24 24"><path d="M14 2H6a2 2 0 00-2 2v16a2 2 0 002 2h12a2 2 0 002-2V8l-6-6z" stroke-width="2" stroke-linecap="round" stroke-linejoin="round"/><path d="M14 2v6h6M16 13H8M16 17H8M10 9H8" stroke-width="2" stroke-linecap="round" stroke-linejoin="round"/></symbol><symbol id="down" viewBox="0 0 24 24"><path d="M6 9l6 6 6-6" stroke-width="2" stroke-linecap="round" stroke-linejoin="round"/></symbol><symbol id="download" viewBox="0 0 24 24"><path d="M21 15v4a2 2 0 01-2 2H5a2 2 0 01-2-2v-4M7 10l5 5 5-5M12 15V3" stroke-width="2" stroke-linecap="round" stroke-linejoin="round"/></symbol><symbol id="dropdown" viewBox="0 0 24 24"><path fill-rule="evenodd" clip-rule="evenodd" d="M7 10l5 5 5-5H7z" fill="#0E65B7"/></symbol><symbol id="edit" viewBox="0 0 24 24"><path d="M11 4H4a2 2 0 00-2 2v14a2 2 0 002 2h14a2 2 0 002-2v-7" stroke-width="2" stroke-linecap="round" stroke-linejoin="round"/><path d="M18.5 2.5a2.121 2.121 0 113 3L12 15l-4 1 1-4 9.5-9.5z" stroke-width="2" stroke-linecap="round" stroke-linejoin="round"/></symbol><symbol id="email" viewBox="0 0 24 24"><path d="M12 16a4 4 0 100-8 4 4 0 000 8z" stroke-width="2" stroke-linecap="round" stroke-linejoin="round"/><path d="M16 8v5a3 3 0 006 0v-1a10 10 0 10-3.92 7.94" stroke-width="2" stroke-linecap="round" stroke-linejoin="round"/></symbol><symbol id="experience" viewBox="0 0 20 20"><path d="M15.25 12.417l3.083.416L16.083 15l.584 3.167-2.834-1.5-2.75 1.5.5-3.084-2.25-2.25 3.084-.416 1.416-2.834 1.417 2.834z" stroke-width="2" stroke-linecap="round" stroke-linejoin="round"/><path d="M11.417 11.583c-.5-.5-1.167-.833-1.834-.833h-4.5c-.666 0-1.333.333-1.833.833-.5.5-.75 1.25-.75 2V15M7.333 8c1.5 0 2.75-1.25 2.75-2.75S8.833 2.5 7.333 2.5s-2.75 1.25-2.75 2.75S5.75 8 7.333 8z" stroke-width="2" stroke-linecap="round" stroke-linejoin="round"/></symbol><symbol id="experienced-personnel" viewBox="0 0 20 20"><path d="M13.167 8.834a5.05 5.05 0 015.084 5.083 5.05 5.05 0 01-5.084 5.084 5.05 5.05 0 01-5.083-5.084M12.25 4.834a1.583 1.583 0 100-3.167 1.583 1.583 0 000 3.167z" stroke-width="2" stroke-linecap="round" stroke-linejoin="round"/><path d="M12.25 4.834v8.167s-3.833-.25-4.833.333c-.5.333-3.167 4.583-3.167 4.583H1.667M7.917 8.834h4.167" stroke-width="2" stroke-linecap="round" stroke-linejoin="round"/></symbol><symbol id="eye-off" viewBox="0 0 24 24"><path d="M9.9 4.24A9.12 9.12 0 0112 4c7 0 11 8 11 8a18.498 18.498 0 01-2.16 3.19m-6.72-1.07a3.001 3.001 0 01-5.194-2.098A3 3 0 019.88 9.88m8.06 8.06A10.07 10.07 0 0112 20c-7 0-11-8-11-8a18.45 18.45 0 015.06-5.94l11.88 11.88zM1 1l22 22" stroke-width="2" stroke-linecap="round" stroke-linejoin="round"/></symbol><symbol id="eye" viewBox="0 0 24 24"><path d="M1 12s4-8 11-8 11 8 11 8-4 8-11 8-11-8-11-8z" stroke-width="2" stroke-linecap="round" stroke-linejoin="round"/><path d="M12 15a3 3 0 100-6 3 3 0 000 6z" stroke-width="2" stroke-linecap="round" stroke-linejoin="round"/></symbol><symbol id="facebook" viewBox="0 0 24 24"><path d="M18 2h-3a5 5 0 00-5 5v3H7v4h3v8h4v-8h3l1-4h-4V7a1 1 0 011-1h3V2z" stroke-width="2" stroke-linecap="round" stroke-linejoin="round"/></symbol><symbol id="feedback-icon-1" viewBox="0 0 60 60"><path d="M30 55c13.807 0 25-11.193 25-25S43.807 5 30 5 5 16.193 5 30s11.193 25 25 25z" stroke-width="3" stroke-linecap="round" stroke-linejoin="round"/><path d="M40 40s-3.75-5-10-5-10 5-10 5" stroke-width="3" stroke-linecap="round" stroke-linejoin="round"/><path d="M22.5 22.5h.025M37.5 22.5h.025" stroke-width="5" stroke-linecap="round" stroke-linejoin="round"/><path d="M26.598 22.134l-9.522-5.724M42.508 16.7L33 21.965" stroke-width="2"/></symbol><symbol id="feedback-icon-2" viewBox="0 0 60 60"><path d="M30 55c13.807 0 25-11.193 25-25S43.807 5 30 5 5 16.193 5 30s11.193 25 25 25z" stroke-width="3" stroke-linecap="round" stroke-linejoin="round"/><path d="M40 40s-3.75-5-10-5-10 5-10 5" stroke-width="3" stroke-linecap="round" stroke-linejoin="round"/><path d="M22.5 22.5h.025M37.5 22.5h.025" stroke-width="5" stroke-linecap="round" stroke-linejoin="round"/></symbol><symbol id="feedback-icon-3" viewBox="0 0 60 60"><path d="M30 55c13.807 0 25-11.193 25-25S43.807 5 30 5 5 16.193 5 30s11.193 25 25 25zM20 37.5h20" stroke-width="3" stroke-linecap="round" stroke-linejoin="round"/><path d="M22.5 22.5h.025M37.5 22.5h.025" stroke-width="5" stroke-linecap="round" stroke-linejoin="round"/></symbol><symbol id="feedback-icon-4" viewBox="0 0 60 60"><path d="M30 55c13.807 0 25-11.193 25-25S43.807 5 30 5 5 16.193 5 30s11.193 25 25 25z" stroke-width="3" stroke-linecap="round" stroke-linejoin="round"/><path d="M20 35s3.75 5 10 5 10-5 10-5" stroke-width="3" stroke-linecap="round" stroke-linejoin="round"/><path d="M22.5 22.5h.025M37.5 22.5h.025" stroke-width="4" stroke-linecap="round" stroke-linejoin="round"/></symbol><symbol id="feedback-icon-5" viewBox="0 0 60 60"><path d="M30 55c13.807 0 25-11.193 25-25S43.807 5 30 5 5 16.193 5 30s11.193 25 25 25z" stroke-width="3" stroke-linecap="round" stroke-linejoin="round"/><path d="M20 35s3.75 5 10 5 10-5 10-5" stroke-width="3" stroke-linecap="round" stroke-linejoin="round"/><path fill="currentColor" d="M25.788 7.146a6.758 6.758 0 00-9.524.833L15.08 9.39l-1.411-1.184a6.76 6.76 0 00-8.69 10.357l1.41 1.184 10.357 8.69 8.69-10.356 1.185-1.412a6.76 6.76 0 00-.833-9.523zM55.395 9.04a6.758 6.758 0 00-9.524-.834l-1.41 1.184-1.185-1.411a6.76 6.76 0 10-10.357 8.69l1.184 1.411 8.69 10.357 10.358-8.69 1.41-1.184a6.759 6.759 0 00.834-9.524z" stroke-width="2" stroke-linecap="round" stroke-linejoin="round"/></symbol><symbol id="file-minus" viewBox="0 0 24 24"><path d="M14 2H6a2 2 0 00-2 2v16a2 2 0 002 2h12a2 2 0 002-2V8l-6-6z" stroke-width="2" stroke-linecap="round" stroke-linejoin="round"/><path d="M14 2v6h6M9 15h6" stroke-width="2" stroke-linecap="round" stroke-linejoin="round"/></symbol><symbol id="file-plus" viewBox="0 0 24 24"><path d="M14 2H6a2 2 0 00-2 2v16a2 2 0 002 2h12a2 2 0 002-2V8l-6-6z" stroke-width="2" stroke-linecap="round" stroke-linejoin="round"/><path d="M14 2v6h6M12 18v-6M9 15h6" stroke-width="2" stroke-linecap="round" stroke-linejoin="round"/></symbol><symbol id="file" viewBox="0 0 24 24"><path d="M13 2H6a2 2 0 00-2 2v16a2 2 0 002 2h12a2 2 0 002-2V9l-7-7z" stroke-width="2" stroke-linecap="round" stroke-linejoin="round"/><path d="M13 2v7h7" stroke-width="2" stroke-linecap="round" stroke-linejoin="round"/></symbol><symbol id="filter" viewBox="0 0 24 24"><path d="M22 3H2l8 9.46V19l4 2v-8.54L22 3z" stroke-width="2" stroke-linecap="round" stroke-linejoin="round"/></symbol><symbol id="folder-minus" viewBox="0 0 24 24"><path d="M22 19a2 2 0 01-2 2H4a2 2 0 01-2-2V5a2 2 0 012-2h5l2 3h9a2 2 0 012 2v11zM9 14h6" stroke-width="2" stroke-linecap="round" stroke-linejoin="round"/></symbol><symbol id="folder-plus" viewBox="0 0 24 24"><path d="M22 19a2 2 0 01-2 2H4a2 2 0 01-2-2V5a2 2 0 012-2h5l2 3h9a2 2 0 012 2v11zM12 11v6M9 14h6" stroke-width="2" stroke-linecap="round" stroke-linejoin="round"/></symbol><symbol id="folder" viewBox="0 0 24 24"><path d="M22 19a2 2 0 01-2 2H4a2 2 0 01-2-2V5a2 2 0 012-2h5l2 3h9a2 2 0 012 2v11z" stroke-width="2" stroke-linecap="round" stroke-linejoin="round"/></symbol><symbol id="font-bold" viewBox="0 0 24 24"><path d="M6 4h8a4 4 0 110 8H6V4zM6 12h9a4 4 0 110 8H6v-8z" stroke-width="2" stroke-linecap="round" stroke-linejoin="round"/></symbol><symbol id="font-italic" viewBox="0 0 24 24"><path d="M19 4h-9M14 20H5M15 4L9 20" stroke-width="2" stroke-linecap="round" stroke-linejoin="round"/></symbol><symbol id="font-type" viewBox="0 0 24 24"><path d="M4 7V4h16v3M9 20h6M12 4v16" stroke-width="2" stroke-linecap="round" stroke-linejoin="round"/></symbol><symbol id="font-underline" viewBox="0 0 24 24"><path d="M6 3v7a6 6 0 1012 0V3M4 21h16" stroke-width="2" stroke-linecap="round" stroke-linejoin="round"/></symbol><symbol id="gear" viewBox="0 0 24 24"><path d="M9 3.9L9.7 2c.3-.7.9-1.1 1.6-1.1h1.4c.7 0 1.3.4 1.6 1.1l.7 1.9 2.5 1.4 2-.3c.7-.1 1.4.2 1.7.8L22 7c.4.6.3 1.4-.1 1.9l-1.3 1.6v2.9l1.3 1.6c.4.6.5 1.3.1 1.9l-.7 1.2c-.3.6-1 .9-1.7.8l-2-.3-2.5 1.4-.8 2c-.3.7-.9 1.1-1.6 1.1h-1.4c-.7 0-1.3-.4-1.6-1.1L9 20.1l-2.5-1.4-2 .3c-.7.1-1.4-.2-1.7-.8L2 17c-.4-.6-.3-1.4.1-1.9l1.3-1.6v-2.9L2.1 9c-.4-.6-.5-1.4-.1-2l.7-1.2c.3-.6 1-.9 1.7-.8l2 .3L9 3.9zM8.6 12c0 1.9 1.5 3.4 3.4 3.4s3.4-1.5 3.4-3.4-1.5-3.4-3.4-3.4-3.4 1.5-3.4 3.4z" stroke-width="2" stroke-linecap="round" stroke-linejoin="round"/></symbol><symbol id="globe" viewBox="0 0 24 24"><path d="M12 22c5.523 0 10-4.477 10-10S17.523 2 12 2 2 6.477 2 12s4.477 10 10 10zM2 12h20" stroke-width="2" stroke-linecap="round" stroke-linejoin="round"/><path d="M12 2a15.3 15.3 0 014 10 15.3 15.3 0 01-4 10 15.3 15.3 0 01-4-10 15.3 15.3 0 014-10z" stroke-width="2" stroke-linecap="round" stroke-linejoin="round"/></symbol><symbol id="heart" viewBox="0 0 24 24"><path d="M20.84 4.61a5.5 5.5 0 00-7.78 0L12 5.67l-1.06-1.06a5.501 5.501 0 10-7.78 7.78l1.06 1.06L12 21.23l7.78-7.78 1.06-1.06a5.5 5.5 0 000-7.78z" stroke-width="2" stroke-linecap="round" stroke-linejoin="round"/></symbol><symbol id="hex-close" viewBox="0 0 24 24"><path d="M7.86 2h8.28L22 7.86v8.28L16.14 22H7.86L2 16.14V7.86L7.86 2zM15 9l-6 6M9 9l6 6" stroke-width="2" stroke-linecap="round" stroke-linejoin="round"/></symbol><symbol id="hex-warning" viewBox="0 0 24 24"><path d="M7.86 2h8.28L22 7.86v8.28L16.14 22H7.86L2 16.14V7.86L7.86 2zM12 8v4M12 16h.01" stroke-width="2" stroke-linecap="round" stroke-linejoin="round"/></symbol><symbol id="hex" viewBox="0 0 24 24"><path d="M7.86 2h8.28L22 7.86v8.28L16.14 22H7.86L2 16.14V7.86L7.86 2z" stroke-width="2" stroke-linecap="round" stroke-linejoin="round"/></symbol><symbol id="high-school" viewBox="0 0 16 16"><path d="M7.787 1.04l-7 4.242L7.764 9.58M7.787 1.04l7 4.242L7.81 9.58" stroke-width="1.5" stroke-linecap="round" stroke-linejoin="round"/><path d="M12.629 9.714l-4.836 3.218-5.437-3.34V6.367" stroke-width="1.5" stroke-linecap="round" stroke-linejoin="round"/><path d="M7.921 5.483l4.865 1.403v6.084l-1.423 1.331M14.151 14.373l-1.33-1.43" stroke-width="1.5" stroke-linecap="round" stroke-linejoin="round"/></symbol><symbol id="home-2" viewBox="0 0 24 24"><path d="M1 11.3L12.3 3 23 11.3" stroke-width="2" stroke-linecap="round" stroke-linejoin="round"/><path d="M4.4 9v10.9c0 .8.6 1.4 1.4 1.4h3.1c.6 0 1.1-.5 1.1-1.1v-5.9h4.4v6.1c0 .5.4.9.9.9h3.4c.6 0 1.1-.5 1.1-1.1V8.9" stroke-width="2" stroke-linecap="round" stroke-linejoin="round"/></symbol><symbol id="home" viewBox="0 0 24 24"><path d="M1 11.3L12.3 3 23 11.3" stroke-width="2" stroke-linecap="round" stroke-linejoin="round"/><path d="M4.4 9v10.9c0 .8.6 1.4 1.4 1.4h3.1c.6 0 1.1-.5 1.1-1.1v-5.9h4.4v6.1c0 .5.4.9.9.9h3.4c.6 0 1.1-.5 1.1-1.1V8.9" stroke-width="2" stroke-linecap="round" stroke-linejoin="round"/></symbol><symbol id="house" viewBox="0 0 20 18"><path d="M.833 8.417L10.25 1.5l8.917 6.917" stroke-width="2" stroke-linecap="round" stroke-linejoin="round"/><path d="M3.667 6.5v9.083c0 .667.5 1.167 1.166 1.167h2.583c.5 0 .917-.417.917-.917v-4.916H12V16c0 .417.333.75.75.75h2.833c.5 0 .917-.417.917-.917V6.417" stroke-width="2" stroke-linecap="round" stroke-linejoin="round"/></symbol><symbol id="icon-list" viewBox="0 0 24 24"><path d="M8 6h13M8 12h13M8 18h13M3 6h.01M3 12h.01M3 18h.01" stroke-width="2" stroke-linecap="round" stroke-linejoin="round"/></symbol><symbol id="icon-tile" viewBox="0 0 24 24"><path d="M10 3H3v7h7V3zM21 3h-7v7h7V3zM21 14h-7v7h7v-7zM10 14H3v7h7v-7z" stroke-width="2" stroke-linecap="round" stroke-linejoin="round"/></symbol><symbol id="image" viewBox="0 0 24 24"><path d="M19 3H5a2 2 0 00-2 2v14a2 2 0 002 2h14a2 2 0 002-2V5a2 2 0 00-2-2z" stroke-width="2" stroke-linecap="round" stroke-linejoin="round"/><path d="M8.5 10a1.5 1.5 0 100-3 1.5 1.5 0 000 3zM21 15l-5-5L5 21" stroke-width="2" stroke-linecap="round" stroke-linejoin="round"/></symbol><symbol id="inbox" viewBox="0 0 24 24"><path d="M22 12h-6l-2 3h-4l-2-3H2" stroke-width="2" stroke-linecap="round" stroke-linejoin="round"/><path d="M5.45 5.11L2 12v6a2 2 0 002 2h16a2 2 0 002-2v-6l-3.45-6.89A2 2 0 0016.76 4H7.24a2 2 0 00-1.79 1.11z" stroke-width="2" stroke-linecap="round" stroke-linejoin="round"/></symbol><symbol id="info" viewBox="0 0 24 24"><path d="M12 22c5.523 0 10-4.477 10-10S17.523 2 12 2 2 6.477 2 12s4.477 10 10 10zM12 16v-4M12 8h.01" stroke-width="2" stroke-linecap="round" stroke-linejoin="round"/></symbol><symbol id="instagram" viewBox="0 0 24 24"><path d="M17 2H7a5 5 0 00-5 5v10a5 5 0 005 5h10a5 5 0 005-5V7a5 5 0 00-5-5z" stroke-width="2" stroke-linecap="round" stroke-linejoin="round"/><path d="M16 11.37a4 4 0 11-7.914 1.173A4 4 0 0116 11.37zM17.5 6.5h.01" stroke-width="2" stroke-linecap="round" stroke-linejoin="round"/></symbol><symbol id="internships" viewBox="0 0 26 24"><g clip-path="url(#clip0)" stroke-width="2" stroke-linecap="round" stroke-linejoin="round"><path d="M8.5 6.5L.6 11.6l7.9 5.1M8.5 6.5l8 5.1-8 5.1"/><path d="M14 16.9l-5.5 3.8-6.2-4v-3.8"/><path d="M8.7 11.8l5.5 1.7v7.2l-1.6 1.6M15.7 22.4l-1.5-1.7"/><path d="M14.6 16.4h10.2V6.5H11.7v2M15.3 6.5V2.8h5.9v3.7"/></g></symbol><symbol id="invalid" viewBox="0 0 24 24"><path d="M15.8 10.6c3.4 0 6.1 2.7 6.1 6.1 0 3.4-2.7 6.1-6.1 6.1-3.4 0-6.1-2.7-6.1-6.1M14.7 5.8a1.9 1.9 0 100-3.8 1.9 1.9 0 000 3.8z" stroke-width="2" stroke-linecap="round" stroke-linejoin="round"/><path d="M14.7 5.8v9.8s-4.6-.3-5.8.4c-.6.4-3.8 5.5-3.8 5.5H2M9.5 10.6h5" stroke-width="2" stroke-linecap="round" stroke-linejoin="round"/></symbol><symbol id="key" viewBox="0 0 24 24"><path d="M15.5 7.5L19 4m2-2l-2 2 2-2zm-9.61 9.61a5.5 5.5 0 11-7.778 7.778 5.5 5.5 0 017.777-7.777l.001-.001zm0 0L15.5 7.5l-4.11 4.11zM15.5 7.5l3 3L22 7l-3-3-3.5 3.5z" stroke-width="2" stroke-linecap="round" stroke-linejoin="round"/></symbol><symbol id="link" viewBox="0 0 24 24"><path d="M15 7h3a5 5 0 110 10h-3m-6 0H6A5 5 0 116 7h3M8 12h8" stroke-width="2" stroke-linecap="round" stroke-linejoin="round"/></symbol><symbol id="linkedin" viewBox="0 0 24 24"><path d="M16 8a6 6 0 016 6v7h-4v-7a2 2 0 00-4 0v7h-4v-7a6 6 0 016-6zM6 9H2v12h4V9zM4 6a2 2 0 100-4 2 2 0 000 4z" stroke-width="2" stroke-linecap="round" stroke-linejoin="round"/></symbol><symbol id="list-ordered" viewBox="0 0 24 24"><path d="M8 6h13M8 12h13M8 18h13" stroke-width="2" stroke-linecap="round" stroke-linejoin="round"/><path d="M3.44 17.221c.274.034.483.127.626.279a.798.798 0 01.216.57.872.872 0 01-.131.47.912.912 0 01-.397.338A1.51 1.51 0 013.11 19c-.211 0-.415-.03-.612-.089A1.596 1.596 0 012 18.658l.237-.427c.107.09.236.162.388.215.155.051.314.076.478.076.194 0 .346-.039.456-.118a.387.387 0 00.17-.33.371.371 0 00-.161-.32c-.105-.08-.265-.119-.482-.119h-.27v-.376l.671-.798H2.144V16h2.015v.368l-.718.853zM4.294 12.535V13h-2.18v-.368l1.175-1.115c.132-.127.22-.237.266-.33a.63.63 0 00.072-.283.38.38 0 00-.14-.317c-.093-.073-.23-.11-.41-.11-.3 0-.532.103-.692.309L2 10.49c.115-.155.27-.274.465-.359A1.61 1.61 0 013.124 10c.321 0 .577.076.769.228a.75.75 0 01.287.621c0 .16-.034.312-.101.452-.068.141-.197.302-.389.482l-.79.752h1.394zM3.191 4v3h-.557V4.467H2V4h1.191z" fill="#0E65B7"/></symbol><symbol id="list" viewBox="0 0 24 24"><path d="M8 6h13M8 12h13M8 18h13M3 6h.01M3 12h.01M3 18h.01" stroke-width="2" stroke-linecap="round" stroke-linejoin="round"/></symbol><symbol id="login" viewBox="0 0 24 24"><path d="M15 3h4a2 2 0 012 2v14a2 2 0 01-2 2h-4M10 17l5-5-5-5M15 12H3" stroke-width="2" stroke-linecap="round" stroke-linejoin="round"/></symbol><symbol id="logout" viewBox="0 0 24 24"><path d="M9 21H5a2 2 0 01-2-2V5a2 2 0 012-2h4M16 17l5-5-5-5M21 12H9" stroke-width="2" stroke-linecap="round" stroke-linejoin="round"/></symbol><symbol id="loupe-like-filled" viewBox="0 0 24 24"><path d="M11 19a8 8 0 100-16 8 8 0 000 16z" stroke-width="2" stroke-linecap="round" stroke-linejoin="round"/><path d="M18.998 2.06a3.415 3.415 0 00-1.11-.784 3.258 3.258 0 00-2.619 0 3.414 3.414 0 00-1.11.785l-.66.698-.658-.698A3.329 3.329 0 0010.42 1c-.907 0-1.777.38-2.419 1.06A3.73 3.73 0 007 4.62c0 .96.36 1.882 1.002 2.56l.66.698L13.5 13l4.838-5.12.66-.698a3.64 3.64 0 00.741-1.175 3.804 3.804 0 000-2.771 3.64 3.64 0 00-.741-1.175z" fill="#0E65B7" stroke-width="1.5" stroke-linecap="round" stroke-linejoin="round"/><path d="M21 21l-4.35-4.35" stroke-width="2" stroke-linecap="round" stroke-linejoin="round"/></symbol><symbol id="loupe-like" viewBox="0 0 22 22"><path d="M4.048 6.492a8.49 8.49 0 1015.24 4.988M18.998 2.06a3.415 3.415 0 00-1.11-.784 3.258 3.258 0 00-2.619 0 3.414 3.414 0 00-1.11.785l-.66.698-.658-.698A3.329 3.329 0 0010.42 1c-.907 0-1.777.38-2.419 1.06A3.73 3.73 0 007 4.62c0 .96.36 1.882 1.002 2.56l.66.698L13.5 13l4.838-5.12.66-.698a3.64 3.64 0 00.741-1.175 3.804 3.804 0 000-2.771 3.64 3.64 0 00-.741-1.175zM21 21l-3-3" stroke-width="2" stroke-linecap="round" stroke-linejoin="round"/></symbol><symbol id="mail-alt-2" viewBox="0 0 24 24"><g fill="none"><path d="M4.638 18.673l-.454.891.454-.891zm-1.311-1.311l-.891.454.891-.454zm17.346 0l.891.454-.891-.454zm-1.311 1.311l.454.891-.454-.891zm0-13.346l.454-.891-.454.891zm1.311 1.311l.891-.454-.891.454zM4.638 5.327l-.454-.891.454.891zM3.327 6.638l-.891-.454.891.454zm.416 1.693a1 1 0 10-1.486 1.338l1.486-1.338zm18 1.338a1 1 0 10-1.486-1.338l1.486 1.338zM7.8 6h8.4V4H7.8v2zM20 9.8v4.4h2V9.8h-2zM16.2 18H7.8v2h8.4v-2zM4 14.2V9.8H2v4.4h2zM7.8 18c-.857 0-1.439 0-1.889-.038-.438-.035-.663-.1-.819-.18l-.908 1.782c.485.247 1.002.346 1.564.392C6.298 20 6.976 20 7.8 20v-2zM2 14.2c0 .824 0 1.501.044 2.052.046.562.145 1.079.392 1.564l1.782-.908c-.08-.156-.145-.38-.18-.819C4 15.639 4 15.057 4 14.2H2zm3.092 3.582a2 2 0 01-.874-.874l-1.782.908a4 4 0 001.748 1.748l.908-1.782zM20 14.2c0 .857 0 1.439-.038 1.889-.035.438-.1.663-.18.819l1.782.908c.247-.485.346-1.002.392-1.564.045-.55.044-1.228.044-2.052h-2zM16.2 20c.824 0 1.501 0 2.052-.044.562-.046 1.079-.145 1.564-.392l-.908-1.782c-.156.08-.38.145-.819.18-.45.037-1.032.038-1.889.038v2zm3.582-3.092a2 2 0 01-.874.874l.908 1.782a4 4 0 001.748-1.748l-1.782-.908zM16.2 6c.857 0 1.439 0 1.889.038.438.035.663.1.819.18l.908-1.782c-.485-.247-1.002-.346-1.564-.392C17.702 4 17.024 4 16.2 4v2zM22 9.8c0-.824 0-1.501-.044-2.052-.046-.562-.145-1.079-.392-1.564l-1.782.908c.08.156.145.38.18.819C20 8.361 20 8.943 20 9.8h2zm-3.092-3.582a2 2 0 01.874.874l1.782-.908a4 4 0 00-1.748-1.748l-.908 1.782zM7.8 4c-.824 0-1.501 0-2.052.044-.562.046-1.079.145-1.564.392l.908 1.782c.156-.08.38-.145.819-.18C6.361 6 6.943 6 7.8 6V4zM4 9.8c0-.857 0-1.439.038-1.889.035-.438.1-.663.18-.819l-1.782-.908c-.247.485-.346 1.002-.392 1.564C2 8.298 2 8.976 2 9.8h2zm.184-5.364a4 4 0 00-1.748 1.748l1.782.908a2 2 0 01.874-.874l-.908-1.782zM3 9a82.058 82.058 0 00-.742.67l.002.003a.993.993 0 00.054.057 7.065 7.065 0 00.582.52c.399.319.989.732 1.785 1.14C6.28 12.209 8.684 13 12 13v-2c-2.984 0-5.079-.709-6.406-1.39a8.625 8.625 0 01-1.449-.922 5.07 5.07 0 01-.406-.362l.002.002v.001l.002.001L3 9zm9 4c3.316 0 5.721-.791 7.319-1.61a10.614 10.614 0 001.785-1.14 7.083 7.083 0 00.582-.52 2.213 2.213 0 00.054-.057l.002-.002V9.67S21.744 9.669 21 9l-.743-.67h.001l.001-.002.002-.002a8.63 8.63 0 01-1.855 1.284C17.078 10.291 14.984 11 12 11v2z"/></g></symbol><symbol id="mail" viewBox="0 0 24 24"><path d="M4 4h16c1.1 0 2 .9 2 2v12c0 1.1-.9 2-2 2H4c-1.1 0-2-.9-2-2V6c0-1.1.9-2 2-2z" stroke-width="2" stroke-linecap="round" stroke-linejoin="round"/><path d="M22 6l-10 7L2 6" stroke-width="2" stroke-linecap="round" stroke-linejoin="round"/></symbol><symbol id="map-child" viewBox="0 0 25 24"><path d="M9.795 15.306a3.718 3.718 0 003.361 1.575 3.664 3.664 0 003.361-1.575" stroke-width="2" stroke-linecap="round" stroke-linejoin="round"/><path d="M21.756 7.74a1.75 1.75 0 00-.778.193A8.692 8.692 0 0013 2.383a8.7 8.7 0 00-7.685 4.881c-.11.22-.192.44-.293.669a1.74 1.74 0 00-.77-.192c-1.236 0-2.243 1.291-2.243 2.876 0 1.584 1.007 2.866 2.244 2.866h.156c.137.83.38 1.64.723 2.409a8.728 8.728 0 007.877 5.275 8.728 8.728 0 007.876-5.275 9.892 9.892 0 00.714-2.39h.165c1.228 0 2.235-1.292 2.235-2.867 0-1.576-1.007-2.894-2.244-2.894z" stroke-width="2" stroke-linecap="round" stroke-linejoin="round"/><path d="M5.032 8.144a6.411 6.411 0 007.327.741c2.308-1.31 2.381-5.376 2.381-5.376s-.32 6.036 3.865 6.21c1.594.064 2.51-1.64 2.51-1.64" stroke-width="2" stroke-linecap="round" stroke-linejoin="round"/></symbol><symbol id="map-dosug" viewBox="0 0 24 24"><path stroke-width="2" stroke-linecap="round" d="M12 11v8M19 11v8M5 11v8M4 22h16"/><path d="M2 7l10.265-5L22 7" stroke-width="2" stroke-linecap="round" stroke-linejoin="round"/></symbol><symbol id="map-medicine" viewBox="0 0 24 24"><path d="M22.48 8.753h-7.123V1.63H8.602v7.123H1.48v6.755h7.122v7.122h6.755v-7.122h7.123V8.753z" stroke-width="2" stroke-linecap="round" stroke-linejoin="round"/></symbol><symbol id="map-scool" viewBox="0 0 24 24"><path d="M3.925 9.636h4.589a3.107 3.107 0 012.16.891c.27.259.488.577.638.935.15.358.23.747.234 1.141V23a2.248 2.248 0 00-.183-.866 2.052 2.052 0 00-.495-.702 2.29 2.29 0 00-1.613-.66H3.91l.016-11.136zM20.137 9.636H15a3.649 3.649 0 00-2.423.891c-.313.254-.567.57-.744.928-.178.358-.276.75-.287 1.148V23c.003-.3.072-.594.202-.864.13-.271.316-.511.548-.704.5-.43 1.144-.665 1.809-.66H20.1l.037-11.136zM2 6.773L12.289 2l9.757 4.773" stroke-width="2" stroke-linecap="round" stroke-linejoin="round"/></symbol><symbol id="map-sport" viewBox="0 0 24 24"><path d="M12 22c5.523 0 10-4.477 10-10S17.523 2 12 2 2 6.477 2 12s4.477 10 10 10z" stroke-width="2" stroke-linecap="round" stroke-linejoin="round"/><path d="M6.001 4A9.985 9.985 0 0110 12a9.985 9.985 0 01-3.999 8M17.999 4A9.985 9.985 0 0014 12a9.985 9.985 0 003.999 8" stroke-width="2" stroke-linecap="round" stroke-linejoin="round"/></symbol><symbol id="map-studio" viewBox="0 0 26 24"><path d="M11.372 22.766a10.193 10.193 0 009.98-10.378A10.193 10.193 0 0011.372 2C7.368 2 3.745 3.26 2.819 7.05c-.797 3.253 3.706 2.854 3.984 5.56.352 3.346-4.874 2.113-4.874 4.634 0 2.881 5.57 5.522 9.443 5.522z" stroke-width="2" stroke-linecap="round" stroke-linejoin="round"/><path d="M6.909 8.64a1.66 1.66 0 100-3.32 1.66 1.66 0 000 3.32zM12.441 7.533a1.66 1.66 0 100-3.32 1.66 1.66 0 000 3.32zM16.868 9.746a1.66 1.66 0 100-3.32 1.66 1.66 0 000 3.32z" fill="#0E65B7"/><path d="M24.17 8.718l-11.065 6.57s-1.77-2.02-3.132-.324a30.755 30.755 0 01-3.188 3.28s5.384.566 6.31-2.483" stroke-width="2" stroke-linecap="round" stroke-linejoin="round"/></symbol><symbol id="map-uniresity" viewBox="0 0 24 24"><path d="M11.68 1.56L1.18 7.923l10.465 6.447M11.68 1.56l10.5 6.363-10.465 6.447" stroke-width="2" stroke-linecap="round" stroke-linejoin="round"/><path d="M18.943 14.57l-7.254 4.827-8.155-5.01V9.552" stroke-width="2" stroke-linecap="round" stroke-linejoin="round"/><path d="M11.882 8.224l7.297 2.104v9.128l-2.135 1.995M21.227 21.56l-1.995-2.146" stroke-width="2" stroke-linecap="round" stroke-linejoin="round"/></symbol><symbol id="map" viewBox="0 0 24 24"><path d="M1 6v16l7-4 8 4 7-4V2l-7 4-8-4-7 4zM8 2v16M16 6v16" stroke-width="2" stroke-linecap="round" stroke-linejoin="round"/></symbol><symbol id="medicine" viewBox="0 0 16 16"><path d="M14.987 5.835h-4.749V1.087H5.735v4.748H.987v4.503h4.748v4.749h4.503v-4.749h4.749V5.835z" stroke-width="1.5" stroke-linecap="round" stroke-linejoin="round"/></symbol><symbol id="menu" viewBox="0 0 24 24"><path d="M3 12h18M3 6h18M3 18h18" stroke-width="2" stroke-linecap="round" stroke-linejoin="round"/></symbol><symbol id="message-circle" viewBox="0 0 24 24"><path d="M21 11.5a8.38 8.38 0 01-.9 3.8 8.5 8.5 0 01-7.6 4.7 8.379 8.379 0 01-3.8-.9L3 21l1.9-5.7a8.38 8.38 0 01-.9-3.8 8.5 8.5 0 014.7-7.6 8.38 8.38 0 013.8-.9h.5a8.48 8.48 0 018 8v.5z" stroke-width="2" stroke-linecap="round" stroke-linejoin="round"/></symbol><symbol id="message" viewBox="0 0 24 24"><g fill="none"><path d="M21 15a2 2 0 01-2 2H7l-4 4V5a2 2 0 012-2h14a2 2 0 012 2v10z" stroke-width="2" stroke-linecap="round" stroke-linejoin="round"/></g></symbol><symbol id="minus-border" viewBox="0 0 24 24"><path d="M19 3H5a2 2 0 00-2 2v14a2 2 0 002 2h14a2 2 0 002-2V5a2 2 0 00-2-2zM8 12h8" stroke-width="2" stroke-linecap="round" stroke-linejoin="round"/></symbol><symbol id="minus" viewBox="0 0 24 24"><path d="M5 12h14" stroke-width="2" stroke-linecap="round" stroke-linejoin="round"/></symbol><symbol id="more" viewBox="0 0 24 24"><path d="M12 13a1 1 0 100-2 1 1 0 000 2zM19 13a1 1 0 100-2 1 1 0 000 2zM5 13a1 1 0 100-2 1 1 0 000 2z" stroke-width="2" stroke-linecap="round" stroke-linejoin="round"/></symbol><symbol id="next" viewBox="0 0 24 24"><path d="M9 18l6-6-6-6" stroke-width="2" stroke-linecap="round" stroke-linejoin="round"/></symbol><symbol id="notice" viewBox="0 0 24 24"><path d="M12 20h9M16.5 3.5a2.121 2.121 0 113 3L7 19l-4 1 1-4L16.5 3.5z" stroke-width="2" stroke-linecap="round" stroke-linejoin="round"/></symbol><symbol id="notification-off" viewBox="0 0 24 24"><path d="M13.73 21a1.999 1.999 0 01-3.46 0M18.63 13A17.888 17.888 0 0118 8M6.26 6.26A5.86 5.86 0 006 8c0 7-3 9-3 9h14M18 8a6 6 0 00-9.33-5M1 1l22 22" stroke-width="2" stroke-linecap="round" stroke-linejoin="round"/></symbol><symbol id="notification-on" viewBox="0 0 24 24"><path d="M18 8A6 6 0 106 8c0 7-3 9-3 9h18s-3-2-3-9zM13.73 21a1.999 1.999 0 01-3.46 0" stroke-width="2" stroke-linecap="round" stroke-linejoin="round"/></symbol><symbol id="ok" viewBox="0 0 24 24"><path d="M12.2 10.4a4.2 4.2 0 100-8.4 4.2 4.2 0 000 8.4z" stroke-width="2"/><path d="M18.05 19.3l-3-3.4c1.1-.4 2.1-.9 2.9-1.7.6-.5.7-1.5.2-2.1-.5-.6-1.5-.7-2.1-.2-1 .9-2.3 1.4-3.8 1.4-1.4 0-2.8-.5-3.8-1.4-.6-.5-1.6-.5-2.1.2-.5.6-.4 1.6.2 2.1.9.7 1.9 1.3 2.9 1.7l-3 3.4c-.6.6-.6 1.6 0 2.3.6.6 1.5.6 2 0l3.8-4.2 3.8 4.2c.6.6 1.5.6 2 0 .5-.7.5-1.7 0-2.3z" stroke-width="2" stroke-miterlimit="10"/></symbol><symbol id="opk" viewBox="0 0 20 20"><path d="M8 6H5v10h3V6z" stroke-width="2" stroke-linecap="round" stroke-linejoin="round"/><path d="M16 8.8V2H2v17h12.222" stroke-width="2" stroke-linecap="round" stroke-linejoin="round"/><path d="M17.411 16.591L14.664 19l-3.075-2.482c-.393-.292-.589-.876-.589-1.606V9h7v5.912c0 .803-.196 1.314-.589 1.68z" stroke-width="2" stroke-linecap="round" stroke-linejoin="round"/></symbol><symbol id="other-link" viewBox="0 0 24 24"><path d="M10 13a5 5 0 007.54.54l3-3a5 5 0 00-7.07-7.07l-1.72 1.71" stroke-width="2" stroke-linecap="round" stroke-linejoin="round"/><path d="M14 11a5.001 5.001 0 00-7.54-.54l-3 3a5 5 0 007.07 7.07l1.71-1.71" stroke-width="2" stroke-linecap="round" stroke-linejoin="round"/></symbol><symbol id="pdf" viewBox="0 0 40 40"><path d="M23.472 3.333H10.278c-.834 0-1.667.417-2.223.973a3.35 3.35 0 00-.972 2.36V33.75c0 .834.278 1.806.972 2.361.556.695 1.39.973 2.223.973h19.305c.834 0 1.667-.417 2.223-.973.555-.694.972-1.527.972-2.36V13.333l-9.306-10z" stroke-width="1.667" stroke-linecap="round" stroke-linejoin="round"/><path d="M23.472 3.333v10H32.5" stroke-width="1.667" stroke-linecap="round" stroke-linejoin="round"/><path d="M36.667 18.056H3.333V32.5h33.334V18.056z" fill="#fff" stroke-width="1.667" stroke-linecap="round" stroke-linejoin="round"/><path d="M10.417 29.028v-7.361h2.36c.834 0 1.529 0 1.806.138.417.14.834.417 1.111.695.278.416.417.833.417 1.389 0 .416-.139.833-.278 1.11-.139.279-.416.556-.555.695-.139.14-.556.278-.834.417-.416.139-.833.139-1.527.139h-.973v2.778h-1.527zm1.527-5.973v2.084h.834c.555 0 .972 0 1.111-.14.139-.138.417-.138.417-.416 0-.278.139-.416.139-.555a1.06 1.06 0 00-.278-.695c-.14-.139-.417-.278-.556-.278h-1.666zm5.278-1.249H20c.555 0 1.111 0 1.389.139.416.138.833.416 1.11.694.279.278.556.694.695 1.25.14.417.278 1.111.278 1.806 0 .555-.139 1.11-.278 1.527-.139.556-.416.973-.833 1.25-.278.278-.556.417-1.111.556-.278.139-.833.139-1.25.139h-2.778v-7.361zm1.528 1.25v4.86h1.111c.417 0 .694 0 .833-.138.278 0 .417-.139.556-.278.139-.139.278-.417.417-.694.138-.278.138-.834.138-1.39 0-.555 0-.971-.138-1.25-.14-.277-.278-.555-.417-.694a1.06 1.06 0 00-.695-.277c-.138 0-.555-.14-1.25-.14h-.555zm5.972 5.972v-7.361h5v1.25H26.25v1.805h3.055v1.25H26.25v3.056h-1.528z"/></symbol><symbol id="pen-tool" viewBox="0 0 24 24"><path d="M12 19l7-7 3 3-7 7-3-3z" stroke-width="2" stroke-linecap="round" stroke-linejoin="round"/><path d="M18 13l-1.5-7.5L2 2l3.5 14.5L13 18l5-5zM2 2l7.586 7.586" stroke-width="2" stroke-linecap="round" stroke-linejoin="round"/><path d="M11 13a2 2 0 100-4 2 2 0 000 4z" stroke-width="2" stroke-linecap="round" stroke-linejoin="round"/></symbol><symbol id="pen" viewBox="0 0 22 22"><path d="M16 2a2.827 2.827 0 114 4L6.5 19.5 1 21l1.5-5.5L16 2z" stroke-width="2" stroke-linecap="round" stroke-linejoin="round"/></symbol><symbol id="phone" viewBox="0 0 22 22"><path d="M21 15.92v3a1.998 1.998 0 01-2.18 2 19.791 19.791 0 01-8.63-3.07 19.502 19.502 0 01-6-6 19.79 19.79 0 01-3.07-8.67A2 2 0 013.11 1h3a2 2 0 012 1.72c.127.96.361 1.903.7 2.81a2 2 0 01-.45 2.11L7.09 8.91a16 16 0 006 6l1.27-1.27a2 2 0 012.11-.45c.907.338 1.85.573 2.81.7A2 2 0 0121 15.92z" stroke-width="2" stroke-linecap="round" stroke-linejoin="round"/></symbol><symbol id="pie-chart" viewBox="0 0 24 24"><path d="M21.21 15.89A10 10 0 118 2.83M22 12A10 10 0 0012 2v10h10z" stroke-width="2" stroke-linecap="round" stroke-linejoin="round"/></symbol><symbol id="pin" viewBox="0 0 24 24"><path d="M21 10c0 7-9 13-9 13s-9-6-9-13a9 9 0 1118 0z" stroke-width="2" stroke-linecap="round" stroke-linejoin="round"/><path d="M12 13a3 3 0 100-6 3 3 0 000 6z" stroke-width="2" stroke-linecap="round" stroke-linejoin="round"/></symbol><symbol id="plus-border" viewBox="0 0 24 24"><path d="M19 3H5a2 2 0 00-2 2v14a2 2 0 002 2h14a2 2 0 002-2V5a2 2 0 00-2-2zM12 8v8M8 12h8" stroke-width="2" stroke-linecap="round" stroke-linejoin="round"/></symbol><symbol id="plus" viewBox="0 0 24 24"><path d="M12 5v14M5 12h14" stroke-width="2" stroke-linecap="round" stroke-linejoin="round"/></symbol><symbol id="practic" viewBox="0 0 24 24"><path d="M14 6l-8 5.2 8 5.1M14 6l8.1 5.2-8 5.1" stroke-width="2" stroke-linecap="round" stroke-linejoin="round"/><path d="M19 17.5l-5 2.9-6.2-4v-3.9M22 12v6M22 22v-1" stroke-width="2" stroke-linecap="round" stroke-linejoin="round"/><path d="M8.803 17H1V7h11M5.4 6.2V2.7h7.4v3.5" stroke-width="2" stroke-linecap="round" stroke-linejoin="round"/></symbol><symbol id="pre-retirement" viewBox="0 0 20 20"><path d="M4.1 16a3 3 0 100-6 3 3 0 000 6zM13.3 16a3 3 0 100-6 3 3 0 000 6zM7.5 12.9s1.2-.6 2.4 0M16.2 11.9L19 5.5M2.3 10.5L5.6 5" stroke-width="2" stroke-linecap="round" stroke-linejoin="round"/></symbol><symbol id="prev" viewBox="0 0 24 24"><path d="M15 18l-6-6 6-6" stroke-width="2" stroke-linecap="round" stroke-linejoin="round"/></symbol><symbol id="printer" viewBox="0 0 24 24"><path d="M6 9V2h12v7M6 18H4a2 2 0 01-2-2v-5a2 2 0 012-2h16a2 2 0 012 2v5a2 2 0 01-2 2h-2" stroke-width="2" stroke-linecap="round" stroke-linejoin="round"/><path d="M18 14H6v8h12v-8z" stroke-width="2" stroke-linecap="round" stroke-linejoin="round"/></symbol><symbol id="question" viewBox="0 0 24 24"><path d="M12 22c5.523 0 10-4.477 10-10S17.523 2 12 2 2 6.477 2 12s4.477 10 10 10zM12 8v4M12 16h.01" stroke-width="2" stroke-linecap="round" stroke-linejoin="round"/></symbol><symbol id="quote" viewBox="0 0 76 53"><path d="M34.06 11.45c0-5.528-4.533-9.95-9.95-9.95H11.95C6.422 1.5 2 6.033 2 11.45v12.16c0 5.528 4.533 9.95 9.95 9.95h5.97l-4.533 11.166c-.553 1.547.11 3.095 1.547 3.758l5.75 2.322c1.436.553 3.095-.11 3.647-1.548l8.513-20.894c.774-1.437 1.216-2.985 1.216-4.754V11.45zM73.748 11.45c0-5.528-4.533-9.95-9.95-9.95h-12.16c-5.528 0-9.95 4.533-9.95 9.95v12.16c0 5.528 4.533 9.95 9.95 9.95h6.08l-4.533 11.166c-.552 1.547.11 3.095 1.548 3.758l5.749 2.322c1.437.553 3.095-.11 3.648-1.548l8.512-20.894c.774-1.437 1.217-2.985 1.217-4.754V11.45h-.111z" stroke-width="3" stroke-miterlimit="10"/></symbol><symbol id="redo" viewBox="0 0 24 24"><path d="M13.795 2.56l3.308 3.392-3.392 3.309" stroke-width="2" stroke-linecap="round" stroke-linejoin="round"/><path d="M12.496 20.243a7.107 7.107 0 11-.42-14.197l5.028-.094" stroke-width="2" stroke-linecap="round" stroke-linejoin="round"/></symbol><symbol id="refresh-reverse" viewBox="0 0 24 24"><path d="M1 4v6h6M23 20v-6h-6" stroke-width="2" stroke-linecap="round" stroke-linejoin="round"/><path d="M20.49 9A9 9 0 005.64 5.64L1 10m22 4l-4.64 4.36A9 9 0 013.51 15" stroke-width="2" stroke-linecap="round" stroke-linejoin="round"/></symbol><symbol id="refresh" viewBox="0 0 24 24"><path d="M23 4v6h-6M1 20v-6h6" stroke-width="2" stroke-linecap="round" stroke-linejoin="round"/><path d="M3.51 9a9 9 0 0114.85-3.36L23 10M1 14l4.64 4.36A9 9 0 0020.49 15" stroke-width="2" stroke-linecap="round" stroke-linejoin="round"/></symbol><symbol id="repeat" viewBox="0 0 24 24"><path d="M17 1l4 4-4 4" stroke-width="2" stroke-linecap="round" stroke-linejoin="round"/><path d="M3 11V9a4 4 0 014-4h14M7 23l-4-4 4-4" stroke-width="2" stroke-linecap="round" stroke-linejoin="round"/><path d="M21 13v2a4 4 0 01-4 4H3" stroke-width="2" stroke-linecap="round" stroke-linejoin="round"/></symbol><symbol id="reply" viewBox="0 0 24 24"><path d="M1 22c3.125-5.153 7.5-7.508 13.75-7.508v2.503c0 1.325 1.375 1.913 2.125 1.03l5.75-6.772c.5-.589.5-1.472 0-2.061l-5.75-6.772c-.75-.883-2.125-.294-2.125 1.03v2.356C6 7.278 2.25 14.639 1 22z" stroke-width="2" stroke-miterlimit="10" stroke-linecap="round" stroke-linejoin="round"/></symbol><symbol id="rotation-reverse" viewBox="0 0 24 24"><path d="M23 4v6h-6" stroke-width="2" stroke-linecap="round" stroke-linejoin="round"/><path d="M20.49 15a9 9 0 11-2.12-9.36L23 10" stroke-width="2" stroke-linecap="round" stroke-linejoin="round"/></symbol><symbol id="rotation" viewBox="0 0 24 24"><path d="M1 4v6h6" stroke-width="2" stroke-linecap="round" stroke-linejoin="round"/><path d="M3.51 15a9 9 0 102.13-9.36L1 10" stroke-width="2" stroke-linecap="round" stroke-linejoin="round"/></symbol><symbol id="round-close" viewBox="0 0 24 24"><path d="M12 22c5.523 0 10-4.477 10-10S17.523 2 12 2 2 6.477 2 12s4.477 10 10 10zm3-13l-6 6m0-6l6 6" stroke-width="2" stroke-linecap="round" stroke-linejoin="round"/></symbol><symbol id="round-empty" viewBox="0 0 24 24"><path d="M12 22c5.523 0 10-4.477 10-10S17.523 2 12 2 2 6.477 2 12s4.477 10 10 10z" stroke-width="2" stroke-linecap="round" stroke-linejoin="round"/></symbol><symbol id="round-minus" viewBox="0 0 24 24"><path d="M12 22c5.523 0 10-4.477 10-10S17.523 2 12 2 2 6.477 2 12s4.477 10 10 10zM8 12h8" stroke-width="2" stroke-linecap="round" stroke-linejoin="round"/></symbol><symbol id="round-plus" viewBox="0 0 24 24"><path d="M12 22c5.523 0 10-4.477 10-10S17.523 2 12 2 2 6.477 2 12s4.477 10 10 10zM12 8v8M8 12h8" stroke-width="2" stroke-linecap="round" stroke-linejoin="round"/></symbol><symbol id="round-question" viewBox="0 0 24 24"><path d="M12 22c5.523 0 10-4.477 10-10S17.523 2 12 2 2 6.477 2 12s4.477 10 10 10z" stroke-width="2" stroke-linecap="round" stroke-linejoin="round"/><path d="M9.09 9a3 3 0 015.83 1c0 2-3 3-3 3M12 17h.01" stroke-width="2" stroke-linecap="round" stroke-linejoin="round"/></symbol><symbol id="round-warning" viewBox="0 0 24 24"><path d="M12 22c5.523 0 10-4.477 10-10S17.523 2 12 2 2 6.477 2 12s4.477 10 10 10zM12 8v4M12 16h.01" stroke-width="2" stroke-linecap="round" stroke-linejoin="round"/></symbol><symbol id="save" viewBox="0 0 24 24"><path d="M19 21H5a2 2 0 01-2-2V5a2 2 0 012-2h11l5 5v11a2 2 0 01-2 2z" stroke-width="2" stroke-linecap="round" stroke-linejoin="round"/><path d="M17 21v-8H7v8M7 3v5h8" stroke-width="2" stroke-linecap="round" stroke-linejoin="round"/></symbol><symbol id="school" viewBox="0 0 16 17"><path d="M2.617 6.424h3.059c.529 0 1.04.21 1.44.594.18.172.325.385.425.623.1.239.153.498.156.761v6.931a1.498 1.498 0 00-.122-.577c-.078-.18-.19-.34-.33-.468a1.526 1.526 0 00-1.075-.44H2.606l.01-7.424zM13.424 6.424H10a2.433 2.433 0 00-1.616.594c-.208.17-.377.38-.496.619-.118.238-.183.5-.191.765v6.931a1.372 1.372 0 01.5-1.045 1.824 1.824 0 011.206-.44H13.4l.024-7.424zM1.333 4.515l6.86-3.182 6.504 3.182" stroke-width="1.5" stroke-linecap="round" stroke-linejoin="round"/></symbol><symbol id="scissors-tool" viewBox="0 0 24 24"><path d="M6 9a3 3 0 100-6 3 3 0 000 6zM6 21a3 3 0 100-6 3 3 0 000 6zM20 4L8.12 15.88M14.47 14.48L20 20M8.12 8.12L12 12" stroke-width="2" stroke-linecap="round" stroke-linejoin="round"/></symbol><symbol id="search" viewBox="0 0 20 20"><path d="M9.167 15.833a6.667 6.667 0 100-13.333 6.667 6.667 0 000 13.333zM17.5 17.5l-3.625-3.625" stroke-width="2" stroke-linecap="round" stroke-linejoin="round"/></symbol><symbol id="send" viewBox="0 0 24 24"><path d="M22 2L11 13M22 2l-7 20-4-9-9-4 20-7z" stroke-width="2" stroke-linecap="round" stroke-linejoin="round"/></symbol><symbol id="settings" viewBox="0 0 24 24"><path fill-rule="evenodd" clip-rule="evenodd" d="M14 5a3 3 0 106 0 3 3 0 00-6 0zm2 0a1 1 0 112 0 1 1 0 01-2 0z"/><path d="M15 6H2a1 1 0 010-2h13a1 1 0 110 2zM22 6h-3a1 1 0 110-2h3a1 1 0 110 2z"/><path fill-rule="evenodd" clip-rule="evenodd" d="M9 12a3 3 0 106 0 3 3 0 00-6 0zm2 0a1 1 0 112 0 1 1 0 01-2 0z"/><path d="M10 13H2a1 1 0 110-2h8a1 1 0 110 2zM22 13h-8a1 1 0 110-2h8a1 1 0 110 2z"/><path fill-rule="evenodd" clip-rule="evenodd" d="M4 19a3 3 0 106 0 3 3 0 00-6 0zm2 0a1 1 0 112 0 1 1 0 01-2 0z"/><path d="M22 20H9a1 1 0 110-2h13a1 1 0 110 2zM5 20H2a1 1 0 110-2h3a1 1 0 110 2z"/></symbol><symbol id="share" viewBox="0 0 24 24"><path d="M18 8a3 3 0 100-6 3 3 0 000 6zM6 15a3 3 0 100-6 3 3 0 000 6zM18 22a3 3 0 100-6 3 3 0 000 6zM8.59 13.51l6.83 3.98M15.41 6.51l-6.82 3.98" stroke-width="2" stroke-linecap="round" stroke-linejoin="round"/></symbol><symbol id="simple-check" viewBox="0 0 24 24"><path d="M20 6L9 17l-5-5" stroke-width="2" stroke-linecap="round" stroke-linejoin="round"/></symbol><symbol id="skillsnet" viewBox="0 0 22 24"><path d="M20.6 5.012l-1.833.635-.14-.212a9.633 9.633 0 00-1.199-1.2l-.212-.14.635-1.836c-.634-.424-1.269-.847-1.973-1.13l-1.27 1.483-.21-.07a7.424 7.424 0 00-1.692-.424l-.282-.07L12.072.07C11.719 0 11.297 0 10.944 0c-.352 0-.775 0-1.127.07l-.353 1.906-.282.071c-.564.07-1.127.282-1.691.424l-.212.07L6.011 1.06c-.705.353-1.34.706-1.974 1.13l.635 1.835-.212.211a9.628 9.628 0 00-1.198 1.2l-.211.212-1.833-.635A17.96 17.96 0 00.091 6.988l1.48 1.27-.07.213a7.455 7.455 0 00-.424 1.694s-.07.212-.07.282c-.07.565-.07 1.2-.07 1.2h1.832c.14-4.518 3.947-8.047 8.457-7.906 2.96.07 5.709 1.835 7.048 4.518h2.043l1.48-1.27c-.352-.707-.704-1.342-1.198-1.977zM20.316 15.6l.071-.212a15.96 15.96 0 00.705-3.176h-1.974c-.14 4.517-3.946 8.047-8.457 7.906-2.96-.07-5.708-1.836-7.047-4.518H1.57L.09 16.87c.352.706.705 1.342 1.127 1.977l1.833-.635.14.212a9.62 9.62 0 001.199 1.2l.282.14-.635 1.836c.635.423 1.27.847 1.974 1.13l1.268-1.483.212.07a7.423 7.423 0 001.691.424l.282.07.353 1.907c.352.07.775.07 1.127.07s.775 0 1.128-.07l.352-1.906.282-.07c.564-.071 1.128-.283 1.692-.424l.21-.07 1.27 1.481A17.911 17.911 0 0017.85 21.6l-.634-1.835.211-.142a9.625 9.625 0 001.198-1.2l.141-.211 1.832.635c.423-.635.846-1.27 1.128-1.976.07 0-1.41-1.271-1.41-1.271z"/><path d="M1.853 11.647h6.554v-1.623H1.923"/><path d="M7.35 14.047V8.259h2.537v4.306L7.35 14.047zm13.743-1.835h-7.541v1.623h7.259"/><path d="M14.68 9.812V15.6h-2.538v-4.306l2.538-1.482z"/></symbol><symbol id="skillsnet2" viewBox="0 0 14 16"><path d="M8.357 12.35L4.7 14.42v-4.137l3.657 2.069zm.225-.127zM8.305 3.613L4.793 5.634V1.593l3.512 2.02zm.226-.13zM12.956 8.15l-3.472 2V6.149l3.472 2zm.228-.132zM4.471 8L1 10V6l3.471 2zM4.7 7.87z"/></symbol><symbol id="sort-table" viewBox="0 0 24 24"><path d="M7 15l5 5 5-5M17 9l-5-5-5 5" stroke-width="2" stroke-linecap="round" stroke-linejoin="round"/></symbol><symbol id="sorting" viewBox="0 0 24 24"><path d="M14 12.001H4M19.997 6h-16M8.003 18.002l-4 .002" stroke-width="2" stroke-linecap="round" stroke-linejoin="round"/></symbol><symbol id="sport" viewBox="0 0 17 16"><g clip-path="url(#clip0)" stroke-width="1.5" stroke-linecap="round" stroke-linejoin="round"><path d="M8.22 14.667a6.667 6.667 0 100-13.334 6.667 6.667 0 000 13.334z"/><path d="M4.22 2.667A6.657 6.657 0 016.886 8a6.657 6.657 0 01-2.666 5.333M12.219 2.667A6.657 6.657 0 009.552 8a6.656 6.656 0 002.667 5.333"/></g></symbol><symbol id="star-feedback" viewBox="0 0 22 21"><path d="M11 1l3.09 6.253L21 8.263l-5 4.864L17.18 20 11 16.753 4.82 20 6 13.127 1 8.262l6.91-1.009L11 1z" stroke-width="2" stroke-linecap="round" stroke-linejoin="round"/></symbol><symbol id="star" viewBox="0 0 24 24"><path d="M12 2l3.09 6.26L22 9.27l-5 4.87 1.18 6.88L12 17.77l-6.18 3.25L7 14.14 2 9.27l6.91-1.01L12 2z" stroke-width="2" stroke-linecap="round" stroke-linejoin="round"/></symbol><symbol id="stop" viewBox="0 0 24 24"><path d="M12 22c5.523 0 10-4.477 10-10S17.523 2 12 2 2 6.477 2 12s4.477 10 10 10zM4.93 4.93l14.14 14.14" stroke-width="2" stroke-linecap="round" stroke-linejoin="round"/></symbol><symbol id="studentship" viewBox="0 0 24 24"><path d="M16.7 21.4v-9.5h3s2.4.4 2.4 2.7c0 2.1-2 2-2.4 2.1-.4.1-4.9 0-4.9 0M14.7 19.5h5.5M2 3.1h5.2c.9 0 1.8.3 2.5.9.6.5 1 1.3 1 2.1v10.7c0-.6-.3-1.2-.8-1.6-.5-.4-1.2-.7-1.8-.7H2V3.1z" stroke-width="2" stroke-linecap="round" stroke-linejoin="round"/><path d="M19.4 8.5V3h-5.2c-.9 0-1.8.3-2.5.9-.6.5-1 1.3-1 2.1v10.7c0-.6.3-1.2.8-1.6.5-.4.8-.7 1.5-.7" stroke-width="2" stroke-linecap="round" stroke-linejoin="round"/></symbol><symbol id="success" viewBox="0 0 24 24"><path d="M22 11.08V12a10 10 0 11-5.93-9.14" stroke-width="2" stroke-linecap="round" stroke-linejoin="round"/><path d="M22 4L12 14.01l-3-3" stroke-width="2" stroke-linecap="round" stroke-linejoin="round"/></symbol><symbol id="system-company" viewBox="0 0 20 20"><path d="M12.928 1.429H7.071v5.285h5.857V1.43zM18.5 13.357h-5.857v5.286H18.5v-5.286zM7.286 13.357H1.429v5.286h5.857v-5.286zM10 6.714v3M4.357 13.357v-3.214h11.286v3.214" stroke-width="2" stroke-linecap="round" stroke-linejoin="round"/></symbol><symbol id="tab" viewBox="0 0 24 24"><path d="M10.47 4H4a2 2 0 00-2 2v14a2 2 0 002 2h14a2 2 0 002-2v-6.47M21.809 8.884v-6.59h-6.59M21.81 2.295L11.295 12.809" stroke-width="2" stroke-linecap="round" stroke-linejoin="round"/></symbol><symbol id="triangle-empty" viewBox="0 0 24 24"><path d="M10.29 3.86L1.82 18a2 2 0 001.71 3h16.94a2 2 0 001.71-3L13.71 3.86a2 2 0 00-3.42 0z" stroke-width="2" stroke-linecap="round" stroke-linejoin="round"/></symbol><symbol id="truck" viewBox="0 0 24 24"><path d="M16 3H1v13h15V3zM16 8h4l3 3v5h-7V8zM5.5 21a2.5 2.5 0 100-5 2.5 2.5 0 000 5zM18.5 21a2.5 2.5 0 100-5 2.5 2.5 0 000 5z" stroke-width="2" stroke-linecap="round" stroke-linejoin="round"/></symbol><symbol id="twitch" viewBox="0 0 24 24"><path d="M16 11V7m5-5H3v16h5v4l4-4h5l4-4V2zm-10 9V7v4z" stroke-width="2" stroke-linecap="round" stroke-linejoin="round"/></symbol><symbol id="twitter" viewBox="0 0 24 24"><path d="M23 3a10.9 10.9 0 01-3.14 1.53 4.48 4.48 0 00-7.86 3v1A10.66 10.66 0 013 4s-4 9 5 13a11.64 11.64 0 01-7 2c9 5 20 0 20-11.5 0-.279-.028-.556-.08-.83A7.72 7.72 0 0023 3z" stroke-width="2" stroke-linecap="round" stroke-linejoin="round"/></symbol><symbol id="undo" viewBox="0 0 24 24"><path d="M10.205 2.56L6.896 5.952l3.392 3.309" stroke-width="2" stroke-linecap="round" stroke-linejoin="round"/><path d="M11.504 20.243a7.108 7.108 0 10.42-14.197l-5.027-.094" stroke-width="2" stroke-linecap="round" stroke-linejoin="round"/></symbol><symbol id="up-left" viewBox="0 0 24 24"><path d="M9 14L4 9l5-5" stroke-width="2" stroke-linecap="round" stroke-linejoin="round"/><path d="M20 20v-7a4 4 0 00-4-4H4" stroke-width="2" stroke-linecap="round" stroke-linejoin="round"/></symbol><symbol id="up-right" viewBox="0 0 24 24"><path d="M15 14l5-5-5-5" stroke-width="2" stroke-linecap="round" stroke-linejoin="round"/><path d="M4 20v-7a4 4 0 014-4h12" stroke-width="2" stroke-linecap="round" stroke-linejoin="round"/></symbol><symbol id="up" viewBox="0 0 24 24"><path d="M18 15l-6-6-6 6" stroke-width="2" stroke-linecap="round" stroke-linejoin="round"/></symbol><symbol id="user-check" viewBox="0 0 24 24"><path d="M16 21v-2a4 4 0 00-4-4H5a4 4 0 00-4 4v2M8.5 11a4 4 0 100-8 4 4 0 000 8zM17 11l2 2 4-4" stroke-width="2" stroke-linecap="round" stroke-linejoin="round"/></symbol><symbol id="user-delete" viewBox="0 0 24 24"><path d="M16 21v-2a4 4 0 00-4-4H5a4 4 0 00-4 4v2M8.5 11a4 4 0 100-8 4 4 0 000 8zM18 8l5 5M23 8l-5 5" stroke-width="2" stroke-linecap="round" stroke-linejoin="round"/></symbol><symbol id="user-minus" viewBox="0 0 24 24"><path d="M16 21v-2a4 4 0 00-4-4H5a4 4 0 00-4 4v2M8.5 11a4 4 0 100-8 4 4 0 000 8zM23 11h-6" stroke-width="2" stroke-linecap="round" stroke-linejoin="round"/></symbol><symbol id="user-plus" viewBox="0 0 24 24"><path d="M16 21v-2a4 4 0 00-4-4H5a4 4 0 00-4 4v2M8.5 11a4 4 0 100-8 4 4 0 000 8zM20 8v6M23 11h-6" stroke-width="2" stroke-linecap="round" stroke-linejoin="round"/></symbol><symbol id="user-star" viewBox="0 0 24 24"><path d="M18.3 14.9l3.7.5-2.7 2.6.7 3.8-3.4-1.8-3.3 1.8.6-3.7-2.7-2.7 3.7-.5 1.7-3.4 1.7 3.4z" stroke-width="2" stroke-linecap="round" stroke-linejoin="round"/><path d="M13.7 13.9c-.6-.6-1.4-1-2.2-1H6.1c-.8 0-1.6.4-2.2 1-.6.6-.9 1.5-.9 2.4V18M8.8 9.6c1.8 0 3.3-1.5 3.3-3.3 0-1.8-1.5-3.3-3.3-3.3C7 3 5.5 4.5 5.5 6.3c0 1.8 1.4 3.3 3.3 3.3z" stroke-width="2" stroke-linecap="round" stroke-linejoin="round"/></symbol><symbol id="user" viewBox="0 0 24 24"><path d="M20 21v-2a4 4 0 00-4-4H8a4 4 0 00-4 4v2M12 11a4 4 0 100-8 4 4 0 000 8z" stroke-width="2" stroke-linecap="round" stroke-linejoin="round"/></symbol><symbol id="users" viewBox="0 0 24 24"><path d="M17 21v-2a4 4 0 00-4-4H5a4 4 0 00-4 4v2M9 11a4 4 0 100-8 4 4 0 000 8zM23 21v-2a4 4 0 00-3-3.87M16 3.13a4 4 0 010 7.75" stroke-width="2" stroke-linecap="round" stroke-linejoin="round"/></symbol><symbol id="video" viewBox="0 0 24 24"><path d="M23 7l-7 5 7 5V7zM14 5H3a2 2 0 00-2 2v10a2 2 0 002 2h11a2 2 0 002-2V7a2 2 0 00-2-2z" stroke-width="2" stroke-linecap="round" stroke-linejoin="round"/></symbol><symbol id="vk" viewBox="0 0 24 24"><path d="M22.496 6.872c.155-.515 0-.872-.724-.872h-2.407c-.619 0-.895.325-1.047.685 0 0-1.222 2.978-2.959 4.891-.568.566-.81.736-1.118.736-.155 0-.377-.17-.377-.685V6.872c0-.616-.172-.872-.69-.872H9.392c-.378 0-.62.29-.62.546 0 .582.861.72.963 2.327v3.524c0 .77-.137.907-.448.907-.809 0-2.803-2.978-3.971-6.398C5.073 6.275 4.85 6 4.232 6H1.825C1.137 6 1 6.325 1 6.685c0 .632.81 3.78 3.8 7.936C6.794 17.459 9.597 19 12.143 19c1.53 0 1.72-.341 1.72-.925v-2.156c0-.686.137-.821.636-.821.361 0 .962.17 2.39 1.54C18.524 18.264 18.797 19 19.71 19h2.406c.689 0 1.032-.341.825-1.01-.222-.667-.997-1.642-2.028-2.804-.568-.667-1.41-1.368-1.651-1.728-.362-.46-.257-.666 0-1.06.003-.017 2.942-4.124 3.235-5.526z" stroke-width="2" stroke-miterlimit="10"/></symbol><symbol id="warning-i" viewBox="0 0 24 24"><path d="M10.29 3.86L1.82 18a2 2 0 001.71 3h16.94a2 2 0 001.71-3L13.71 3.86a2 2 0 00-3.42 0zM12 13v4M12 9h.01" stroke-width="2" stroke-linecap="round" stroke-linejoin="round"/></symbol><symbol id="warning" viewBox="0 0 24 24"><path d="M10.29 3.86L1.82 18a2 2 0 001.71 3h16.94a2 2 0 001.71-3L13.71 3.86a2 2 0 00-3.42 0zM12 9v4M12 17h.01" stroke-width="2" stroke-linecap="round" stroke-linejoin="round"/></symbol><symbol id="youtube" viewBox="0 0 24 24"><path d="M22.54 6.42a2.78 2.78 0 00-1.94-2C18.88 4 12 4 12 4s-6.88 0-8.6.46a2.78 2.78 0 00-1.94 2A29 29 0 001 11.75a29 29 0 00.46 5.33A2.78 2.78 0 003.4 19c1.72.46 8.6.46 8.6.46s6.88 0 8.6-.46a2.78 2.78 0 001.94-2c.312-1.732.466-3.49.46-5.25a29.005 29.005 0 00-.46-5.33z" stroke-width="2" stroke-linecap="round" stroke-linejoin="round"/><path d="M9.75 15.02l5.75-3.27-5.75-3.27v6.54z" stroke-width="2" stroke-linecap="round" stroke-linejoin="round"/></symbol><symbol id="zoom-in" viewBox="0 0 24 24"><path d="M11 19a8 8 0 100-16 8 8 0 000 16zM21 21l-4.35-4.35M11 8v6M8 11h6" stroke-width="2" stroke-linecap="round" stroke-linejoin="round"/></symbol><symbol id="zoom-out" viewBox="0 0 24 24"><path d="M11 19a8 8 0 100-16 8 8 0 000 16zM21 21l-4.35-4.35M8 11h6" stroke-width="2" stroke-linecap="round" stroke-linejoin="round"/></symbol></svg>