<svg width="84" height="72" viewBox="0 0 84 72" fill="none" xmlns="http://www.w3.org/2000/svg">
<path fill-rule="evenodd" clip-rule="evenodd" d="M0 62.7144C0 63.4985 0.922828 63.9823 1.64749 63.5781L19.9788 53.3558C20.6809 52.9642 20.6809 52.0201 19.9788 51.6285L1.64749 41.4062C0.922828 41.002 0 41.4858 0 42.2699V62.7144Z" fill="#4BA3E3"/>
<path fill-rule="evenodd" clip-rule="evenodd" d="M0 39.0685C0 39.8526 0.922828 40.3364 1.64749 39.9322L19.9788 29.7099C20.6809 29.3183 20.6809 28.3742 19.9788 27.9827L1.64749 17.7603C0.922828 17.3562 0 17.84 0 18.624V39.0685Z" fill="#4BA3E3"/>
<mask id="mask0" mask-type="alpha" maskUnits="userSpaceOnUse" x="62" y="0" width="22" height="23">
<path fill-rule="evenodd" clip-rule="evenodd" d="M62.1398 0H83.0558V22.7596H62.1398V0Z" fill="white"/>
</mask>
<g mask="url(#mask0)">
<path fill-rule="evenodd" clip-rule="evenodd" d="M62.1398 21.7367C62.1398 22.5312 63.0811 23.0213 63.8203 22.6119L82.5185 12.2548C83.235 11.858 83.235 10.9018 82.5185 10.5048L63.8203 0.147697C63.0811 -0.261764 62.1398 0.228629 62.1398 1.02281V21.7367Z" fill="#4BA3E3"/>
</g>
<mask id="mask1" mask-type="alpha" maskUnits="userSpaceOnUse" x="20" y="0" width="64" height="72">
<path fill-rule="evenodd" clip-rule="evenodd" d="M20.5056 0.0484619H83.8007V72H20.5056V0.0484619Z" fill="white"/>
</mask>
<g mask="url(#mask1)">
<path fill-rule="evenodd" clip-rule="evenodd" d="M22.1874 0.197475C21.4662 -0.215399 20.5469 0.27855 20.5469 1.07913L20.5056 70.9688C20.5051 71.7694 21.4237 72.2638 22.1451 71.8517L83.276 36.9355C83.9752 36.5359 83.9757 35.572 83.2768 35.172L22.1874 0.197475Z" fill="#4BA3E3"/>
</g>
<path d="M24.26 55.3583H19V24.8824C19 23.8942 19.7988 23.1012 20.7943 23.1012H63.3286C64.2626 23.1012 65 23.8332 65 24.7604V55.3583L26.2877 55.4193" stroke="white" stroke-width="2" stroke-miterlimit="10" stroke-linejoin="round"/>
<path d="M46.0673 14.061L49.9999 14C51.1183 14 52.04 14.9272 52.04 16.0252V23.1501" stroke="white" stroke-width="2" stroke-miterlimit="10" stroke-linejoin="round"/>
<path d="M31 23.0891V16.3302C31 15.037 32.0569 14 33.3473 14L44.7152 14.061" stroke="white" stroke-width="2" stroke-miterlimit="10" stroke-linejoin="round"/>
<path d="M34.3789 22.784V18.392C34.3789 17.5868 34.9934 16.928 35.7431 16.928H47.5902C48.2662 16.928 48.8069 17.5136 48.8069 18.2456V22.784" stroke="white" stroke-width="2" stroke-miterlimit="10" stroke-linejoin="round"/>
<path d="M41.9546 48.5875C47.4523 48.5875 51.9092 44.1631 51.9092 38.7054C51.9092 33.2477 47.4523 28.8233 41.9546 28.8233C36.4568 28.8233 32 33.2477 32 38.7054C32 44.1631 36.4568 48.5875 41.9546 48.5875Z" stroke="white" stroke-width="2" stroke-miterlimit="10" stroke-linejoin="round"/>
<path d="M34.8143 45.5861L49.2423 31.9707" stroke="white" stroke-width="2" stroke-miterlimit="10" stroke-linejoin="round"/>
<path d="M35.1342 31.4461L48.7756 45.9643" stroke="white" stroke-width="2" stroke-miterlimit="10" stroke-linejoin="round"/>
<path d="M24 23V40.9384L33 41" stroke="white" stroke-width="2" stroke-miterlimit="10" stroke-linejoin="round"/>
<path d="M60 23V40.9384L52 41" stroke="white" stroke-width="2" stroke-miterlimit="10" stroke-linejoin="round"/>
</svg>
