<svg fill="none" xmlns="http://www.w3.org/2000/svg" viewBox="0 0 35 35"><path fill-rule="evenodd" clip-rule="evenodd" d="M23.8 11.69c-.644-.556-1.569-.543-2.1-.381.348-.422 1.158-.767 1.397-.809.181.067.703.596.703 1.19zm2.083-1.833c-.353-1.912-4.74-.645-6.949-1.457-.042.557.68 1.45 1.372 1.78-1.182 1.039-2.242 3.13-2.456 5.686-.213-2.555-1.274-4.647-2.455-5.685.69-.33 1.414-1.224 1.37-1.78-2.208.811-6.595-.455-6.949 1.456-.074.405.118 1.021.326 1.199.037-.128.23-.548.842-.642 3.091-.473 5.671 4.351 3.342 6.301-.035.03-.015.085.033.085h6.983c.048 0 .068-.055.033-.084-2.33-1.95.25-6.775 3.34-6.302.613.094.806.514.844.642.207-.177.4-.794.325-1.199zm.57-4.314c-.054-.181 1.713-.186 1.713.968 0 .773-1.057 1.139-1.057 1.941 0 .374.385.648.503.648-.272-1.288.853-.614 1.157-.373-.603-1.732.756-1.721.622-2.516-.093-.555-1.275-.387-1.702-.668-.759-.498-1.656-2.438-2.248-.498 1.103 1.068.461 2.64-.939 2.64 0 0-.007.231.005.25 1.67-.086 2.252-1.367 1.947-2.392zM6.232 8.727c.304-.24 1.429-.915 1.157.373.118 0 .503-.274.503-.648 0-.802-1.057-1.168-1.057-1.941 0-1.154 1.766-1.15 1.712-.968-.305 1.026.277 2.306 1.947 2.391.012-.018.005-.248.005-.248-1.4 0-2.041-1.573-.94-2.641-.59-1.94-1.488 0-2.247.498-.427.281-1.609.113-1.702.668-.133.795 1.226.784.622 2.516zm4.97 2.964c.643-.557 1.569-.544 2.099-.383-.346-.42-1.158-.766-1.396-.808-.182.067-.704.596-.704 1.19zM18.2 1.023L17.5 0l-.7 1.023.7 1.077.7-1.077zm4.9 3.185l-.7-.708-.7.708.7.692.7-.692zM28 25.246l-.7-.746-.7.746.7.654.7-.654zM13.3 4.208l-.7-.708-.7.708.7.692.7-.692zM11.132 7.7h2.306c1.94 0 2.812-1.203 3.075-2.246h1.973C18.75 6.497 19.622 7.7 21.562 7.7h2.306s.403-.553.505-.827c.364-.986-.102-1.446-.78-1.446l-.879.804-.877-.804c-.68 0-1.145.46-.78 1.446.046.126.157.31.263.474-.819-.114-1.863-.68-2.093-1.893 0 0 .605-.97.757-1.364.545-1.413-.151-1.99-1.17-1.99L17.5 3.662 16.185 2.1c-1.018 0-1.714.577-1.169 1.99.151.393.757 1.364.757 1.364-.23 1.213-1.274 1.78-2.093 1.893.106-.163.217-.348.263-.474.364-.986-.1-1.446-.78-1.446l-.878.805-.878-.804c-.68 0-1.143.46-.78 1.445.101.274.505.827.505.827zm23.5 7.469c-.43.216-2.96 1.387-6.2.954a7.01 7.01 0 00.085-.461c2.157-.256 3.91-.617 5.027-1.232 1.273-.7 1.83-2.374 1.188-3.62-.017-.03-.063-.036-.086-.01-.353.401-2.568 2.784-6.057 3.525a6.301 6.301 0 00-.05-.535c1.695-.95 3.35-2.045 4.138-3.047 1.19-1.514 1.081-3.445-.052-4.43a.054.054 0 00-.08.011c-.359.585-3.715 5.95-7.4 8.266l-.136.084a.171.171 0 00-.028.28c.425.38.69.91.69 1.498 0 1.023-.798 1.874-1.852 2.059-.535.102-1.308.073-2.051-.17-.033-.011-.068.01-.068.044v3.24c0 .052.08.065.099.015.452-1.183 1.803-1.434 2.394-1.434.213 1.264.592 2.31 1.086 2.874.804.916 2.116.903 2.685.27a.046.046 0 00-.013-.07c-.334-.19-2.247-1.352-2.63-3.255.15-.05.297-.11.44-.18.617 1.011 1.516 1.911 2.24 2.255 1.215.577 2.328.296 2.821-.548.018-.03-.004-.067-.04-.07-.752-.06-3.06-.713-4.041-2.306a4.68 4.68 0 00.325-.322c1.028.774 2.481 1.458 3.522 1.598 1.217.163 2.597-.221 2.63-1.621 0-.028-.025-.051-.055-.05-.433.027-3.298.15-5.34-1.01.07-.133.137-.269.198-.407 0 0 3.086.722 4.548.483 1.452-.237 2.303-1.308 2.14-2.64-.006-.034-.045-.054-.076-.038zM6.979 17.364c.062.138.128.274.2.407-2.042 1.159-4.907 1.036-5.342 1.01-.03-.002-.056.023-.055.05.034 1.4 1.413 1.784 2.63 1.62 1.04-.14 2.495-.824 3.523-1.598.103.113.211.22.325.322-.983 1.593-3.29 2.248-4.042 2.307-.036.003-.057.04-.04.07.494.844 1.606 1.125 2.822.548.723-.344 1.622-1.244 2.24-2.255.142.07.29.129.44.18-.384 1.903-2.296 3.064-2.63 3.254a.046.046 0 00-.014.071c.57.633 1.882.646 2.686-.27.493-.563.873-1.61 1.085-2.874.592 0 1.943.25 2.394 1.434.02.05.1.037.1-.016v-3.24c0-.032-.035-.054-.069-.044-.742.243-1.515.273-2.05.17-1.055-.184-1.852-1.035-1.852-2.058 0-.588.265-1.119.689-1.5a.17.17 0 00-.027-.279 6.185 6.185 0 01-.137-.083c-3.683-2.315-7.037-7.676-7.4-8.265a.055.055 0 00-.08-.012c-1.133.985-1.243 2.916-.052 4.43.789 1.001 2.443 2.097 4.138 3.047-.024.178-.04.356-.05.535-3.486-.74-5.7-3.12-6.055-3.523-.024-.028-.071-.022-.087.01-.642 1.245-.085 2.917 1.187 3.618 1.118.614 2.871.976 5.028 1.232.023.154.052.308.085.46-3.237.434-5.766-.735-6.2-.953-.033-.016-.072.004-.076.038-.164 1.332.687 2.402 2.14 2.64 1.461.238 4.547-.483 4.547-.483zm20.279 9.657l-1.151-.906c-.46.274-.797.708-.928 1.218-.693.097-2.58-.323-2.397-.601 2.069-2.914.487-4.649-1.415-4.552v1.956c0 .629-.548 1.138-1.222 1.138H18.83c-.942 0-1.555.949-1.555.949s-.613-.949-1.555-.949h-1.313c-.675 0-1.222-.51-1.222-1.138V22.18c-1.902-.097-3.485 1.638-1.416 4.552.182.275-1.758.717-2.668.605a1.346 1.346 0 00-.973-.406c-.165 0-.328.03-.482.087 0 0-3.576-3.39-3.642-3.424l.03-.068c.203-.382-.108-.798-.306-.768.23-.275.24-1.48-1.03-1.758.037.242.056.735.056.735s-.98-.53-1.473-.072c-.432.513.168 1.443.168 1.443s-.502.012-.749-.009c.364 1.231 1.583 1.144 1.847.901-.017.196.424.475.797.251l.164-.08c.03.04 3.512 3.335 3.512 3.335-.16.238-.236.53-.183.84.082.487.486.89 1.003.994.365.074.708.003.983-.159l.922.857a.424.424 0 00.316.113c.226-.016.395-.198.378-.409a.364.364 0 00-.123-.237c-.014-.017-.939-.876-.939-.876.763-.535 2.184-.912 3.363-.912.207 0 .304-.176.233-.348-.534-1.287.614-2.219 1.803-1.46.518.33 1.044.983 1.44 2.07-1.948.472-4.396 1.775-4.891 3.196-.191.549.439 1.297 1.204 1.448a.052.052 0 00.062-.04c.4-2.123 2.678-3.704 3.864-3.972l.1.267c-1.292.612-2.544 1.901-2.902 3.435-.164.703.618 1.336 1.264 1.509.032.008.064-.014.066-.045.122-1.94.978-3.587 1.744-4.336.02.146.037.294.047.441 0 0-.784 2.189-.784 3.786 0 .743 1.102 1.262 1.265 1.334.204-.072 1.306-.591 1.306-1.334 0-1.597-.785-3.786-.785-3.786.011-.148.027-.295.048-.441.766.75 1.621 2.396 1.744 4.335a.052.052 0 00.066.046c.646-.173 1.428-.806 1.264-1.509-.358-1.533-1.61-2.823-2.901-3.435l.099-.268c1.186.27 3.464 1.85 3.864 3.972a.052.052 0 00.062.04c.764-.15 1.395-.898 1.203-1.447-.494-1.422-2.942-2.724-4.892-3.196.398-1.088.924-1.74 1.443-2.07 1.187-.759 2.336.173 1.801 1.46-.071.172.026.347.234.347 1.333 0 2.977.483 3.627 1.13.416.624 1.183 1.024 2.05.938.984-.096 1.787-.837 1.898-1.753.097-.802-.317-1.522-.978-1.915l-1.151.907zM19.065 21.9c.407-.152 1.045-.03 1.024.563-.005.134.181.134.195-.003.122-.887-.473-1.142-1.095-1.038-.078-.305-.141-.571-.213-.835-.058-.214-.079-.615.167-.615.132 0 .079.373.066.534-.01.14.04.226.154.23.07.003.159-.088.212-.148.356-.406.439-1.034.021-1.337-.349-.255-1.223-.065-1.464.297-.036-.136-.21-.362-.293-.46-.08-.096-.102-.161.01-.245.053-.041.212-.2.212-.366 0-.097-.075-.277-.313-.277-.188 0-.398.131-.398.424 0 .065.016.134.058.21a2.104 2.104 0 00-.608.029l2.293 6.337c.657-.326 1.138-.843 1.138-1.397 0-.473-.69-.316-1.027.052-.107-.599-.204-1.152-.309-1.703-.028-.152.049-.207.17-.253zm-3.372-4.251l.507 1.271c-.434.093-1.13.379-1.13.757 0 .504.985.832 1.555.793-.028.114.004.217.093.31-.207 0-.597.087-.725.212-.302-.254-.775-.347-1-.192-.226.156-.232.42.003.72.165.207.226.41.041.65.687 0 .434-.807.704-.807-.036.157-.014.338.064.539.052.133.052.228-.037.357-.222.32-.566 1.056-.52 1.721-.225-.001-.34-.05-.26-.33.03-.103-.041-.176-.135-.049a.993.993 0 00-.153.484c0 .592.78.712 1.079.586.861.755 2.554.553 3.121.3l-2.98-7.394c-.061-.14-.28-.073-.226.072zm-.287 6.151c-.068-.31.447-.865 1.102-1.4-.14.349-.053.95.22 1.157-.474 0-1.039.075-1.322.243z" fill="#E8E8E8"/></svg>
