<svg width="20" height="20" viewBox="0 0 20 20" xmlns="http://www.w3.org/2000/svg">
    <path d="M17.8998 7.69961C17.8998 4.09961 14.8998 1.09961 11.2998 1.09961V7.69961" stroke-width="2" stroke-linecap="round" stroke-linejoin="round"/>
    <path d="M17.9 7.7998C17.9 11.4998 14.7 14.3998 10.7 14.3998C6.7 14.3998 3.5 11.4998 3.5 7.7998H17.9V7.7998Z" stroke-width="2" stroke-linecap="round" stroke-linejoin="round"/>
    <path d="M3.5002 7.79961C3.5002 7.79961 3.4002 4.99961 3.1002 4.29961C2.7002 3.09961 1.2002 3.29961 1.2002 3.29961" stroke-width="2" stroke-linecap="round" stroke-linejoin="round"/>
    <path d="M4.2001 18.9998C5.08375 18.9998 5.8001 18.2835 5.8001 17.3998C5.8001 16.5161 5.08375 15.7998 4.2001 15.7998C3.31644 15.7998 2.6001 16.5161 2.6001 17.3998C2.6001 18.2835 3.31644 18.9998 4.2001 18.9998Z" stroke-width="2" stroke-linecap="round" stroke-linejoin="round"/>
    <path d="M17.1 18.9998C17.9837 18.9998 18.7 18.2835 18.7 17.3998C18.7 16.5161 17.9837 15.7998 17.1 15.7998C16.2163 15.7998 15.5 16.5161 15.5 17.3998C15.5 18.2835 16.2163 18.9998 17.1 18.9998Z" stroke-width="2" stroke-linecap="round" stroke-linejoin="round"/>
    <path d="M5.2002 15.9004L6.8002 13.4004" stroke-width="2" stroke-linecap="round" stroke-linejoin="round"/>
    <path d="M16.3002 15.9998L14.7002 13.2998" stroke-width="2" stroke-linecap="round" stroke-linejoin="round"/>
</svg>
