<svg viewBox="0 0 36 36" xmlns="http://www.w3.org/2000/svg">
  <path d="M9.57772 11.8419H9.97535L10.2644 11.5689L21.3367 1.1098L20.65 0.382845L21.3367 1.1098C21.4661 0.987592 21.6139 0.97355 21.7528 1.03569C21.8938 1.09879 22 1.23176 22 1.43444V34.5656C22 34.7682 21.8938 34.9012 21.7528 34.9643C21.6139 35.0265 21.4661 35.0124 21.3367 34.8902L10.2644 24.4311L9.97536 24.1581H9.57772H3.4C3.20002 24.1581 3 23.986 3 23.7264V12.2736C3 12.014 3.20002 11.8419 3.4 11.8419H9.57772Z" stroke-width="2"/>
  <path d="M27.0716 7C29.1712 8.06705 30.9253 9.65649 32.1458 11.5979C33.3663 13.5393 34.0073 15.7595 33.9999 18.0204C33.9926 20.2813 33.3372 22.4977 32.1041 24.4319C30.8709 26.3662 29.1065 27.9453 27 29" stroke-width="2" stroke-linecap="round"/>
  <path d="M26.0382 11C27.1579 11.679 28.0935 12.6905 28.7444 13.9259C29.3954 15.1614 29.7372 16.5742 29.7333 18.013C29.7294 19.4518 29.3798 20.8622 28.7222 22.093C28.0645 23.3239 27.1235 24.3288 26 25" stroke-width="2" stroke-linecap="round"/>
</svg>
