<svg viewBox="0 0 36 36" xmlns="http://www.w3.org/2000/svg">
  <path d="M30.4444 2H5.55556C3.59188 2 2 3.59188 2 5.55556V30.4444C2 32.4081 3.59188 34 5.55556 34H30.4444C32.4081 34 34 32.4081 34 30.4444V5.55556C34 3.59188 32.4081 2 30.4444 2Z" stroke-width="2" stroke-linecap="round" stroke-linejoin="round"/>
  <path d="M12 15C13.6569 15 15 13.6569 15 12C15 10.3431 13.6569 9 12 9C10.3431 9 9 10.3431 9 12C9 13.6569 10.3431 15 12 15Z" stroke-width="2" stroke-linecap="round" stroke-linejoin="round"/>
  <path d="M34 23.6364L24.9375 15L5 34" stroke-width="2" stroke-linecap="round" stroke-linejoin="round"/>
</svg>
