<svg viewBox="0 0 36 36" xmlns="http://www.w3.org/2000/svg">
<path d="M9.57772 11.8419H9.97535L10.2644 11.5689L21.3367 1.1098L20.65 0.382845L21.3367 1.1098C21.4661 0.987592 21.6139 0.97355 21.7528 1.03569C21.8938 1.09879 22 1.23176 22 1.43444V34.5656C22 34.7682 21.8938 34.9012 21.7528 34.9643C21.6139 35.0265 21.4661 35.0124 21.3367 34.8902L10.2644 24.4311L9.97536 24.1581H9.57772H3.4C3.20002 24.1581 3 23.986 3 23.7264V12.2736C3 12.014 3.20002 11.8419 3.4 11.8419H9.57772Z" stroke-width="2"/>
<path d="M25 13L35 23M35 13L25 23" stroke-width="2" stroke-linecap="round"/>
</svg>
