<svg viewBox="0 0 24 24" xmlns="http://www.w3.org/2000/svg">
<path d="M4 5H20C21.1 5 22 5.9 22 7V18C22 19.1 21.1 20 20 20H4C2.9 20 2 19.1 2 18V7C2 5.9 2.9 5 4 5Z"  stroke-width="2" stroke-linecap="round" stroke-linejoin="round"/>
<path d="M14 2C13.7459 1.69584 13.3813 1.44338 12.9425 1.26788C12.5038 1.09237 12.0063 1 11.5 1C10.9937 1 10.4962 1.09237 10.0575 1.26788C9.61872 1.44338 9.25406 1.69584 9 2"  stroke-width="2" stroke-linecap="round" stroke-linejoin="round"/>
<path d="M22 7V10C22 11.1046 21.1046 12 20 12H4C2.89543 12 2 11.1046 2 10V7"  stroke-width="2"/>
<line x1="12" y1="11" x2="12" y2="13" stroke-width="2" stroke-linecap="round" stroke-linejoin="round"/>
</svg>
