<svg width="18" height="18" viewBox="0 0 18 18" xmlns="http://www.w3.org/2000/svg">
<path d="M2.775 5.10004H15.45C16.125 5.10004 16.725 5.70004 16.725 6.37504V13.95C16.725 14.625 16.125 15.225 15.45 15.225H2.775C2.1 15.225 1.5 14.625 1.5 13.95V6.37504C1.5 5.70004 2.025 5.10004 2.775 5.10004Z" stroke-width="1.5" stroke-linecap="round" stroke-linejoin="round"/>
<path d="M1.875 5.47504L4.425 8.77504C4.65 9.07504 4.95 9.22504 5.325 9.22504H13.05C13.35 9.22504 13.65 9.07504 13.8 8.85004L16.275 5.47504" stroke-width="1.5" stroke-linecap="round" stroke-linejoin="round"/>
<path d="M6.75 4.875V2.25H11.85V4.8" stroke-width="1.5" stroke-linecap="round" stroke-linejoin="round"/>
<path d="M10.275 9.14996H8.25V10.425H10.275V9.14996Z" stroke-width="1.5" stroke-linecap="round" stroke-linejoin="round"/>
</svg>
