<svg width="18" height="16" viewBox="0 0 18 16" xmlns="http://www.w3.org/2000/svg">
<path d="M7.77234 15.1777C9.57145 15.1403 11.2823 14.3909 12.5296 13.0938C13.7769 11.7967 14.4588 10.0578 14.4257 8.25861C14.4605 6.45834 13.7793 4.71786 12.5318 3.41941C11.2844 2.12095 9.57254 1.37069 7.77234 1.33337C5.10358 1.33337 2.68812 2.17355 2.07035 4.70024C1.53907 6.86862 4.54142 6.60298 4.72675 8.40688C4.9615 10.637 1.47729 9.8154 1.47729 11.4957C1.47729 13.417 5.19007 15.1777 7.77234 15.1777Z" stroke-width="1.5" stroke-linecap="round" stroke-linejoin="round"/>
<path d="M4.79699 5.75966C5.40813 5.75966 5.90355 5.26423 5.90355 4.65308C5.90355 4.04194 5.40813 3.54651 4.79699 3.54651C4.18585 3.54651 3.69043 4.04194 3.69043 4.65308C3.69043 5.26423 4.18585 5.75966 4.79699 5.75966Z" />
<path d="M8.48547 5.02198C9.0966 5.02198 9.59203 4.52655 9.59203 3.91541C9.59203 3.30427 9.0966 2.80884 8.48547 2.80884C7.87433 2.80884 7.37891 3.30427 7.37891 3.91541C7.37891 4.52655 7.87433 5.02198 8.48547 5.02198Z" />
<path d="M11.4364 6.49745C12.0475 6.49745 12.543 6.00202 12.543 5.39087C12.543 4.77973 12.0475 4.2843 11.4364 4.2843C10.8253 4.2843 10.3298 4.77973 10.3298 5.39087C10.3298 6.00202 10.8253 6.49745 11.4364 6.49745Z" />
<path d="M16.3037 5.81213L8.92753 10.1921C8.92753 10.1921 7.74759 8.8454 6.83948 9.97593C6.18635 10.7566 5.47601 11.4876 4.71436 12.1628C4.71436 12.1628 8.30358 12.5397 8.92135 10.5072" stroke-width="1.5" stroke-linecap="round" stroke-linejoin="round"/>
</svg>
