<svg width="18" height="16" viewBox="0 0 18 16" xmlns="http://www.w3.org/2000/svg">
<path d="M6.86987 10.2037C7.11865 10.5597 7.45659 10.8441 7.84986 11.0285C8.24313 11.2128 8.67792 11.2905 9.1107 11.2539C9.54389 11.2943 9.98002 11.2183 10.374 11.0337C10.7679 10.849 11.1054 10.5625 11.3515 10.2037" stroke-width="1.5" stroke-linecap="round" stroke-linejoin="round"/>
<path d="M14.844 5.16039C14.6634 5.16237 14.4858 5.20626 14.325 5.28861C14.264 5.13596 14.2029 4.98943 14.1296 4.84289C13.6601 3.87986 12.9328 3.06587 12.0284 2.49136C11.1241 1.91685 10.0782 1.60432 9.00688 1.5885C7.93576 1.60501 6.89013 1.91782 5.98591 2.49225C5.0817 3.06668 4.35422 3.88029 3.88412 4.84289C3.81085 4.98943 3.7559 5.13596 3.68874 5.28861C3.52992 5.20696 3.3544 5.16309 3.17585 5.16039C2.35157 5.16039 1.67993 6.0213 1.67993 7.07761C1.67993 8.13391 2.35157 8.98872 3.17585 8.98872H3.27965C3.37145 9.54234 3.53355 10.082 3.76201 10.5945C4.2054 11.6243 4.93686 12.5041 5.86841 13.128C6.79997 13.752 7.89194 14.0935 9.01298 14.1115C10.134 14.0935 11.226 13.752 12.1576 13.128C13.0891 12.5041 13.8206 11.6243 14.264 10.5945C14.4893 10.0856 14.6494 9.5501 14.7402 9.00093H14.8501C15.6683 9.00093 16.3399 8.14001 16.3399 7.08982C16.3399 6.03962 15.6683 5.16039 14.844 5.16039Z" stroke-width="1.5" stroke-linecap="round" stroke-linejoin="round"/>
<path d="M3.69482 5.42901C4.35949 6.00345 5.18501 6.35912 6.05904 6.44762C6.93307 6.53611 7.81314 6.35313 8.57946 5.92358C10.1181 5.05045 10.167 2.33948 10.167 2.33948C10.167 2.33948 9.95326 6.36319 12.7436 6.4792C13.806 6.52194 14.4166 5.38627 14.4166 5.38627" stroke-width="1.5" stroke-linecap="round" stroke-linejoin="round"/>
</svg>
