<svg width="20" height="20" viewBox="0 0 20 20" xmlns="http://www.w3.org/2000/svg">
<path d="M15.2499 12.4166L18.3332 12.8333L16.0833 15L16.6666 18.1666L13.8332 16.6666L11.0833 18.1666L11.5832 15.0833L9.33325 12.8333L12.4166 12.4166L13.8332 9.58331L15.2499 12.4166Z" stroke-width="2" stroke-linecap="round" stroke-linejoin="round"/>
<path d="M11.4167 11.5833C10.9167 11.0833 10.25 10.7499 9.58333 10.7499H5.08333C4.41667 10.7499 3.75 11.0833 3.25 11.5833C2.75 12.0833 2.5 12.8333 2.5 13.5833V14.9999" stroke-width="2" stroke-linecap="round" stroke-linejoin="round"/>
<path d="M7.33325 8C8.83325 8 10.0833 6.75 10.0833 5.25C10.0833 3.75 8.83325 2.5 7.33325 2.5C5.83325 2.5 4.58325 3.75 4.58325 5.25C4.58325 6.75 5.74992 8 7.33325 8Z" stroke-width="2" stroke-linecap="round" stroke-linejoin="round"/>
</svg>
