<svg width="20" height="20" viewBox="0 0 20 20" xmlns="http://www.w3.org/2000/svg">
    <path d="M13.1673 8.83398C16.0006 8.83398 18.2506 11.084 18.2506 13.9173C18.2506 16.7507 16.0006 19.0007 13.1673 19.0007C10.334 19.0007 8.08398 16.7507 8.08398 13.9173" stroke-width="2" stroke-linecap="round" stroke-linejoin="round"/>
    <path d="M12.2503 4.83366C13.1248 4.83366 13.8337 4.12478 13.8337 3.25033C13.8337 2.37587 13.1248 1.66699 12.2503 1.66699C11.3759 1.66699 10.667 2.37587 10.667 3.25033C10.667 4.12478 11.3759 4.83366 12.2503 4.83366Z" stroke-width="2" stroke-linecap="round" stroke-linejoin="round"/>
    <path d="M12.2503 4.83398V13.0006C12.2503 13.0006 8.41699 12.7506 7.41699 13.334C6.91699 13.6673 4.25033 17.9173 4.25033 17.9173H1.66699" stroke-width="2" stroke-linecap="round" stroke-linejoin="round"/>
    <path d="M7.91699 8.83398H12.0837" stroke-width="2" stroke-linecap="round" stroke-linejoin="round"/>
</svg>
