<svg width="60" height="60" viewBox="0 0 60 60" xmlns="http://www.w3.org/2000/svg">
    <path d="M30 55C43.8071 55 55 43.8071 55 30C55 16.1929 43.8071 5 30 5C16.1929 5 5 16.1929 5 30C5 43.8071 16.1929 55 30 55Z" stroke-width="3" stroke-linecap="round" stroke-linejoin="round"/>
    <path d="M20 35C20 35 23.75 40 30 40C36.25 40 40 35 40 35" stroke-width="3" stroke-linecap="round" stroke-linejoin="round"/>
    <path fill="currentColor" d="M25.7875 7.14581C25.1076 6.57498 24.3218 6.14372 23.4751 5.87666C22.6285 5.6096 21.7375 5.51196 20.8531 5.58934C19.9686 5.66672 19.1081 5.91759 18.3207 6.32761C17.5333 6.73764 16.8343 7.2988 16.2638 7.97902L15.0798 9.39011L13.6687 8.20606C12.2953 7.05364 10.5203 6.494 8.73431 6.65025C6.94827 6.80651 5.29746 7.66587 4.14504 9.03928C2.99261 10.4127 2.43297 12.1876 2.58923 13.9737C2.74549 15.7597 3.60484 17.4105 4.97825 18.5629L6.38934 19.747L16.7462 28.4374L25.4367 18.0806L26.6207 16.6695C27.1915 15.9895 27.6228 15.2038 27.8899 14.3571C28.1569 13.5104 28.2546 12.6194 28.1772 11.735C28.0998 10.8506 27.8489 9.9901 27.4389 9.20267C27.0289 8.41524 26.4677 7.71631 25.7875 7.14581Z" stroke-width="2" stroke-linecap="round" stroke-linejoin="round"/>
    <path fill="currentColor" d="M55.3948 9.03911C54.8243 8.35888 54.1254 7.79773 53.338 7.3877C52.5505 6.97767 51.69 6.7268 50.8056 6.64943C49.9212 6.57205 49.0302 6.66968 48.1836 6.93675C47.3369 7.20381 46.5511 7.63507 45.8712 8.20589L44.4601 9.38994L43.276 7.97885C42.1236 6.60544 40.4728 5.74608 38.6868 5.58983C36.9007 5.43357 35.1258 5.99321 33.7524 7.14563C32.379 8.29806 31.5196 9.94887 31.3633 11.7349C31.2071 13.5209 31.7667 15.2959 32.9192 16.6693L34.1032 18.0804L42.7937 28.4373L53.1505 19.7468L54.5616 18.5628C55.2418 17.9923 55.803 17.2933 56.213 16.5059C56.6231 15.7185 56.8739 14.858 56.9513 13.9736C57.0287 13.0891 56.931 12.1982 56.664 11.3515C56.3969 10.5048 55.9657 9.71906 55.3948 9.03911Z" stroke-width="2" stroke-linecap="round" stroke-linejoin="round"/>
</svg>
