<svg xmlns="http://www.w3.org/2000/svg" viewBox="0 0 24 24">
  <path d="M9,3.9L9.7,2c0.3-0.7,0.9-1.1,1.6-1.1h1.4c0.7,0,1.3,0.4,1.6,1.1L15,3.9l2.5,1.4l2-0.3c0.7-0.1,1.4,0.2,1.7,0.8L22,7
    c0.4,0.6,0.3,1.4-0.1,1.9l-1.3,1.6v2.9l1.3,1.6c0.4,0.6,0.5,1.3,0.1,1.9l-0.7,1.2c-0.3,0.6-1,0.9-1.7,0.8l-2-0.3L15.1,20l-0.8,2
    c-0.3,0.7-0.9,1.1-1.6,1.1h-1.4c-0.7,0-1.3-0.4-1.6-1.1L9,20.1l-2.5-1.4l-2,0.3c-0.7,0.1-1.4-0.2-1.7-0.8L2,17
    c-0.4-0.6-0.3-1.4,0.1-1.9l1.3-1.6v-2.9L2.1,9C1.7,8.4,1.6,7.6,2,7l0.7-1.2C3,5.2,3.7,4.9,4.4,5l2,0.3L9,3.9z M8.6,12
    c0,1.9,1.5,3.4,3.4,3.4s3.4-1.5,3.4-3.4S13.9,8.6,12,8.6S8.6,10.1,8.6,12L8.6,12z" stroke-width="2" stroke-linecap="round" stroke-linejoin="round"/>
</svg>
