<svg viewBox="0 0 24 24" xmlns="http://www.w3.org/2000/svg">
<path d="M15.7999 10.6C19.1999 10.6 21.8999 13.3 21.8999 16.7C21.8999 20.1 19.1999 22.8 15.7999 22.8C12.3999 22.8 9.69995 20.1 9.69995 16.7" stroke-width="2" stroke-linecap="round" stroke-linejoin="round"/>
<path d="M14.7001 5.8C15.7494 5.8 16.6001 4.94934 16.6001 3.9C16.6001 2.85066 15.7494 2 14.7001 2C13.6507 2 12.8 2.85066 12.8 3.9C12.8 4.94934 13.6507 5.8 14.7001 5.8Z" stroke-width="2" stroke-linecap="round" stroke-linejoin="round"/>
<path d="M14.7 5.79993V15.5999C14.7 15.5999 10.1 15.2999 8.9 15.9999C8.3 16.3999 5.1 21.4999 5.1 21.4999H2" stroke-width="2" stroke-linecap="round" stroke-linejoin="round"/>
<path d="M9.5 10.6H14.5" stroke-width="2" stroke-linecap="round" stroke-linejoin="round"/>
</svg>
