<svg viewBox="0 0 24 24" xmlns="http://www.w3.org/2000/svg">
    <path d="M8 6H21" stroke-width="2" stroke-linecap="round" stroke-linejoin="round"/>
    <path d="M8 12H21" stroke-width="2" stroke-linecap="round" stroke-linejoin="round"/>
    <path d="M8 18H21" stroke-width="2" stroke-linecap="round" stroke-linejoin="round"/>
    <path d="M3.44085 17.2211C3.71408 17.2549 3.92254 17.3479 4.0662 17.5C4.20986 17.6521 4.28169 17.8423 4.28169 18.0704C4.28169 18.2423 4.23803 18.3986 4.1507 18.5394C4.06338 18.6803 3.93099 18.793 3.75352 18.8775C3.57887 18.9592 3.36479 19 3.11127 19C2.9 19 2.69577 18.9704 2.49859 18.9113C2.30423 18.8493 2.13803 18.7648 2 18.6577L2.23662 18.231C2.34366 18.3211 2.47324 18.393 2.62535 18.4465C2.78028 18.4972 2.93944 18.5225 3.10282 18.5225C3.29718 18.5225 3.4493 18.4831 3.55915 18.4042C3.67183 18.3225 3.72817 18.2127 3.72817 18.0746C3.72817 17.9366 3.67465 17.8296 3.56761 17.7535C3.46338 17.6746 3.30282 17.6352 3.08592 17.6352H2.81549V17.2592L3.48732 16.4606H2.14366V16H4.15915V16.3676L3.44085 17.2211Z" fill="#0E65B7"/>
    <path d="M4.29437 12.5352V13H2.11408V12.6324L3.28873 11.5169C3.42113 11.3901 3.50986 11.2803 3.55493 11.1873C3.60282 11.0915 3.62676 10.9972 3.62676 10.9042C3.62676 10.7662 3.58028 10.6606 3.48732 10.5873C3.39437 10.5141 3.25775 10.4775 3.07746 10.4775C2.77606 10.4775 2.54507 10.5803 2.38451 10.7859L2 10.4901C2.11549 10.3352 2.27042 10.2155 2.46479 10.131C2.66197 10.0437 2.88169 10 3.12394 10C3.44507 10 3.70141 10.0761 3.89296 10.2282C4.08451 10.3803 4.18028 10.5873 4.18028 10.8493C4.18028 11.0099 4.14648 11.1606 4.07887 11.3014C4.01127 11.4423 3.88169 11.6028 3.69014 11.7831L2.9 12.5352H4.29437Z" fill="#0E65B7"/>
    <path d="M3.19143 4V7H2.63429V4.46714H2V4H3.19143Z" fill="#0E65B7"/>
</svg>
