<svg viewBox="0 0 24 24" xmlns="http://www.w3.org/2000/svg">
<path d="M11 19C15.4183 19 19 15.4183 19 11C19 10.202 18.8832 9.43125 18.6656 8.70399C17.6789 5.40472 14.6203 3 11 3C9.25928 3 7.64841 3.55596 6.33527 4.5C4.31542 5.95211 3 8.32244 3 11C3 15.4183 6.58172 19 11 19Z" stroke-width="2" stroke-linecap="round" stroke-linejoin="round"/>
<path d="M18.9976 2.06089C18.6799 1.72455 18.3028 1.45775 17.8877 1.27572C17.4726 1.09369 17.0276 1 16.5783 1C16.129 1 15.6841 1.09369 15.269 1.27572C14.8539 1.45775 14.4767 1.72455 14.1591 2.06089L13.4998 2.75857L12.8406 2.06089C12.199 1.38184 11.3287 1.00035 10.4213 1.00035C9.51395 1.00035 8.64372 1.38184 8.00209 2.06089C7.36046 2.73994 7 3.66092 7 4.62124C7 5.58157 7.36046 6.50255 8.00209 7.1816L8.66132 7.87928L13.4998 13L18.3383 7.87928L18.9976 7.1816C19.3154 6.84543 19.5675 6.44628 19.7395 6.00697C19.9115 5.56765 20 5.09678 20 4.62124C20 4.14571 19.9115 3.67484 19.7395 3.23552C19.5675 2.79621 19.3154 2.39706 18.9976 2.06089V2.06089Z" fill="#0E65B7" stroke-width="1.5" stroke-linecap="round" stroke-linejoin="round"/>
<path d="M20.9999 21L16.6499 16.65" stroke-width="2" stroke-linecap="round" stroke-linejoin="round"/>
</svg>
