<svg width="24" height="24" viewBox="0 0 24 24" fill="none" xmlns="http://www.w3.org/2000/svg">
<path d="M4.63803 18.673L4.18404 19.564L4.63803 18.673ZM3.32698 17.362L2.43597 17.816L3.32698 17.362ZM20.673 17.362L21.564 17.816L20.673 17.362ZM19.362 18.673L19.816 19.564L19.362 18.673ZM19.362 5.32698L19.816 4.43597L19.362 5.32698ZM20.673 6.63803L21.564 6.18404L20.673 6.63803ZM4.63803 5.32698L4.18404 4.43597L4.63803 5.32698ZM3.32698 6.63803L2.43597 6.18404L3.32698 6.63803ZM3.74329 8.33104C3.37384 7.92053 2.74155 7.88725 2.33104 8.25671C1.92053 8.62616 1.88725 9.25845 2.25671 9.66896L3.74329 8.33104ZM21.7433 9.66896C22.1128 9.25845 22.0795 8.62616 21.669 8.25671C21.2585 7.88725 20.6262 7.92053 20.2567 8.33104L21.7433 9.66896ZM7.8 6H16.2V4H7.8V6ZM20 9.8V14.2H22V9.8H20ZM16.2 18H7.8V20H16.2V18ZM4 14.2V9.8H2V14.2H4ZM7.8 18C6.94342 18 6.36113 17.9992 5.91104 17.9624C5.47262 17.9266 5.24842 17.8617 5.09202 17.782L4.18404 19.564C4.66937 19.8113 5.18608 19.9099 5.74817 19.9558C6.2986 20.0008 6.97642 20 7.8 20V18ZM2 14.2C2 15.0236 1.99922 15.7014 2.04419 16.2518C2.09012 16.8139 2.18868 17.3306 2.43597 17.816L4.21799 16.908C4.1383 16.7516 4.07337 16.5274 4.03755 16.089C4.00078 15.6389 4 15.0566 4 14.2H2ZM5.09202 17.782C4.71569 17.5903 4.40973 17.2843 4.21799 16.908L2.43597 17.816C2.81947 18.5686 3.43139 19.1805 4.18404 19.564L5.09202 17.782ZM20 14.2C20 15.0566 19.9992 15.6389 19.9624 16.089C19.9266 16.5274 19.8617 16.7516 19.782 16.908L21.564 17.816C21.8113 17.3306 21.9099 16.8139 21.9558 16.2518C22.0008 15.7014 22 15.0236 22 14.2H20ZM16.2 20C17.0236 20 17.7014 20.0008 18.2518 19.9558C18.8139 19.9099 19.3306 19.8113 19.816 19.564L18.908 17.782C18.7516 17.8617 18.5274 17.9266 18.089 17.9624C17.6389 17.9992 17.0566 18 16.2 18V20ZM19.782 16.908C19.5903 17.2843 19.2843 17.5903 18.908 17.782L19.816 19.564C20.5686 19.1805 21.1805 18.5686 21.564 17.816L19.782 16.908ZM16.2 6C17.0566 6 17.6389 6.00078 18.089 6.03755C18.5274 6.07337 18.7516 6.1383 18.908 6.21799L19.816 4.43597C19.3306 4.18868 18.8139 4.09012 18.2518 4.04419C17.7014 3.99922 17.0236 4 16.2 4V6ZM22 9.8C22 8.97642 22.0008 8.2986 21.9558 7.74817C21.9099 7.18608 21.8113 6.66937 21.564 6.18404L19.782 7.09202C19.8617 7.24842 19.9266 7.47262 19.9624 7.91104C19.9992 8.36113 20 8.94342 20 9.8H22ZM18.908 6.21799C19.2843 6.40973 19.5903 6.7157 19.782 7.09202L21.564 6.18404C21.1805 5.43139 20.5686 4.81947 19.816 4.43597L18.908 6.21799ZM7.8 4C6.97642 4 6.2986 3.99922 5.74817 4.04419C5.18608 4.09012 4.66937 4.18868 4.18404 4.43597L5.09202 6.21799C5.24842 6.1383 5.47262 6.07337 5.91104 6.03755C6.36113 6.00078 6.94342 6 7.8 6V4ZM4 9.8C4 8.94342 4.00078 8.36113 4.03755 7.91104C4.07337 7.47262 4.1383 7.24842 4.21799 7.09202L2.43597 6.18404C2.18868 6.66937 2.09012 7.18608 2.04419 7.74817C1.99922 8.2986 2 8.97642 2 9.8H4ZM4.18404 4.43597C3.43139 4.81947 2.81947 5.43139 2.43597 6.18404L4.21799 7.09202C4.40973 6.71569 4.71569 6.40973 5.09202 6.21799L4.18404 4.43597ZM3 9C2.25671 9.66896 2.2571 9.6694 2.2575 9.66984C2.25764 9.67 2.25805 9.67046 2.25835 9.67079C2.25894 9.67144 2.25957 9.67214 2.26025 9.67289C2.2616 9.67438 2.26313 9.67605 2.26483 9.6779C2.26822 9.6816 2.2723 9.68602 2.27708 9.69113C2.28663 9.70136 2.29895 9.71436 2.31407 9.72995C2.34431 9.76112 2.38576 9.80266 2.43867 9.85304C2.54446 9.9538 2.69615 10.09 2.89562 10.2496C3.29459 10.5688 3.88494 10.9815 4.68118 11.3898C6.27854 12.209 8.68432 13 12 13V11C9.01568 11 6.92146 10.291 5.59382 9.61018C4.92756 9.26851 4.44916 8.9312 4.14501 8.68788C3.99291 8.5662 3.88445 8.46808 3.81798 8.40477C3.78475 8.37312 3.76204 8.3502 3.74965 8.33743C3.74346 8.33105 3.73985 8.3272 3.7388 8.32608C3.73827 8.32551 3.73838 8.32563 3.73914 8.32645C3.73951 8.32686 3.74004 8.32744 3.74074 8.32821C3.74108 8.32859 3.74147 8.32902 3.7419 8.32949C3.74211 8.32972 3.74246 8.33011 3.74257 8.33023C3.74292 8.33063 3.74329 8.33104 3 9ZM12 13C15.3157 13 17.7215 12.209 19.3188 11.3898C20.1151 10.9815 20.7054 10.5688 21.1044 10.2496C21.3038 10.09 21.4555 9.9538 21.5613 9.85304C21.6142 9.80266 21.6557 9.76112 21.6859 9.72995C21.7011 9.71436 21.7134 9.70136 21.7229 9.69113C21.7277 9.68602 21.7318 9.6816 21.7352 9.6779C21.7369 9.67605 21.7384 9.67438 21.7397 9.67289C21.7404 9.67214 21.7411 9.67144 21.7416 9.67079C21.7419 9.67046 21.7424 9.67 21.7425 9.66984C21.7429 9.6694 21.7433 9.66896 21 9C20.2567 8.33104 20.2571 8.33063 20.2574 8.33023C20.2575 8.33011 20.2579 8.32972 20.2581 8.32949C20.2585 8.32902 20.2589 8.32859 20.2593 8.32821C20.26 8.32744 20.2605 8.32686 20.2609 8.32645C20.2616 8.32563 20.2617 8.32551 20.2612 8.32608C20.2602 8.3272 20.2565 8.33105 20.2503 8.33743C20.238 8.3502 20.2153 8.37312 20.182 8.40477C20.1156 8.46808 20.0071 8.5662 19.855 8.68788C19.5508 8.9312 19.0724 9.26851 18.4062 9.61018C17.0785 10.291 14.9843 11 12 11V13Z"/>
</svg>
