<svg width="25" height="24" viewBox="0 0 25 24" xmlns="http://www.w3.org/2000/svg">
<path d="M9.79492 15.3057C10.1681 15.8397 10.675 16.2663 11.2649 16.5427C11.8548 16.8192 12.507 16.9358 13.1562 16.881C13.806 16.9416 14.4601 16.8275 15.0511 16.5506C15.642 16.2736 16.1482 15.8438 16.5174 15.3057" stroke-width="2" stroke-linecap="round" stroke-linejoin="round"/>
<path d="M21.7561 7.74064C21.4852 7.74361 21.2187 7.80945 20.9776 7.93298C20.8861 7.70401 20.7945 7.4842 20.6846 7.26439C19.9803 5.81985 18.8892 4.59886 17.5327 3.7371C16.1762 2.87533 14.6073 2.40654 13.0004 2.38281C11.3937 2.40758 9.8253 2.87679 8.46898 3.73844C7.11266 4.60008 6.02144 5.8205 5.31629 7.26439C5.20639 7.4842 5.12396 7.70401 5.02322 7.93298C4.78499 7.81051 4.52172 7.74469 4.25389 7.74064C3.01746 7.74064 2.01001 9.03202 2.01001 10.6165C2.01001 12.2009 3.01746 13.4831 4.25389 13.4831H4.40958C4.54729 14.3136 4.79043 15.123 5.13312 15.8919C5.79821 17.4366 6.8954 18.7562 8.29273 19.6921C9.69006 20.628 11.328 21.1402 13.0096 21.1673C14.6912 21.1402 16.3291 20.628 17.7264 19.6921C19.1238 18.7562 20.221 17.4366 20.8861 15.8919C21.2241 15.1284 21.4642 14.3252 21.6004 13.5015H21.7653C22.9926 13.5015 24 12.2101 24 10.6348C24 9.05949 22.9926 7.74064 21.7561 7.74064Z" stroke-width="2" stroke-linecap="round" stroke-linejoin="round"/>
<path d="M5.03223 8.14357C6.02922 9.00523 7.26751 9.53875 8.57856 9.67149C9.8896 9.80423 11.2097 9.52976 12.3592 8.88542C14.6672 7.57573 14.7404 3.50928 14.7404 3.50928C14.7404 3.50928 14.4199 9.54485 18.6054 9.71886C20.199 9.78298 21.1149 8.07946 21.1149 8.07946" stroke-width="2" stroke-linecap="round" stroke-linejoin="round"/>
</svg>
