<svg width="26" height="24" viewBox="0 0 26 24" xmlns="http://www.w3.org/2000/svg">
<path d="M11.3716 22.7664C14.0703 22.7105 16.6366 21.5863 18.5076 19.6407C20.3786 17.695 21.4014 15.0867 21.3517 12.3879C21.4039 9.68744 20.3821 7.07673 18.5109 5.12905C16.6397 3.18137 14.0719 2.05597 11.3716 2C7.36844 2 3.74521 3.26026 2.81855 7.0503C2.02162 10.3029 6.52519 9.90441 6.80318 12.6103C7.15531 15.9555 1.92896 14.723 1.92896 17.2436C1.92896 20.1255 7.49818 22.7664 11.3716 22.7664Z" stroke-width="2" stroke-linecap="round" stroke-linejoin="round"/>
<path d="M6.90864 8.63942C7.82535 8.63942 8.5685 7.89628 8.5685 6.97956C8.5685 6.06285 7.82535 5.3197 6.90864 5.3197C5.99192 5.3197 5.24878 6.06285 5.24878 6.97956C5.24878 7.89628 5.99192 8.63942 6.90864 8.63942Z" fill="#0E65B7"/>
<path d="M12.4414 7.53285C13.3581 7.53285 14.1012 6.78971 14.1012 5.87299C14.1012 4.95628 13.3581 4.21313 12.4414 4.21313C11.5246 4.21313 10.7815 4.95628 10.7815 5.87299C10.7815 6.78971 11.5246 7.53285 12.4414 7.53285Z" fill="#0E65B7"/>
<path d="M16.8676 9.74599C17.7843 9.74599 18.5275 9.00284 18.5275 8.08613C18.5275 7.16941 17.7843 6.42627 16.8676 6.42627C15.9509 6.42627 15.2078 7.16941 15.2078 8.08613C15.2078 9.00284 15.9509 9.74599 16.8676 9.74599Z" fill="#0E65B7"/>
<path d="M24.1691 8.71814L13.1047 15.2882C13.1047 15.2882 11.3348 13.268 9.97262 14.9638C8.99293 16.1349 7.92741 17.2314 6.78491 18.2442C6.78491 18.2442 12.1688 18.8095 13.0955 15.7608" stroke-width="2" stroke-linecap="round" stroke-linejoin="round"/>
</svg>
