<svg viewBox="0 0 24 24" xmlns="http://www.w3.org/2000/svg">
<path d="M3.92531 9.63636H8.51358C9.30778 9.63465 10.0756 9.95119 10.6747 10.5273C10.9444 10.7856 11.1616 11.1041 11.3117 11.462C11.4618 11.8198 11.5415 12.2087 11.5456 12.6031V23C11.5424 22.7 11.4802 22.4043 11.3632 22.1336C11.2463 21.8628 11.0773 21.6234 10.8682 21.432C10.4218 21.0014 9.84797 20.7669 9.25545 20.7727H3.90918L3.92531 9.63636Z" stroke-width="2" stroke-linecap="round" stroke-linejoin="round"/>
<path d="M20.1366 9.63648H15.0001C14.1084 9.629 13.2453 9.94627 12.5766 10.5274C12.2641 10.7807 12.0104 11.097 11.8326 11.4551C11.6547 11.8132 11.5569 12.2047 11.5457 12.6032V23C11.5493 22.7009 11.6181 22.4061 11.7477 22.1355C11.8772 21.865 12.0643 21.625 12.2962 21.432C12.7968 21.0015 13.4404 20.7669 14.1048 20.7728H20.1004L20.1366 9.63648Z" stroke-width="2" stroke-linecap="round" stroke-linejoin="round"/>
<path d="M2 6.77273L12.2888 2L22.0455 6.77273" stroke-width="2" stroke-linecap="round" stroke-linejoin="round"/>
</svg>
