<svg viewBox="0 0 24 24" xmlns="http://www.w3.org/2000/svg">
    <path d="M12.2 10.4C14.5196 10.4 16.4 8.5196 16.4 6.2C16.4 3.8804 14.5196 2 12.2 2C9.8804 2 8 3.8804 8 6.2C8 8.5196 9.8804 10.4 12.2 10.4Z" stroke-width="2"/>
    <path d="M18.05 19.3L15.05 15.9C16.15 15.5 17.15 15 17.95 14.2C18.55 13.7 18.65 12.7 18.15 12.1C17.65 11.5 16.65 11.4 16.05 11.9C15.05 12.8 13.75 13.3 12.25 13.3C10.85 13.3 9.45 12.8 8.45 11.9C7.85 11.4 6.85 11.4 6.35 12.1C5.85 12.7 5.95 13.7 6.55 14.2C7.45 14.9 8.45 15.5 9.45 15.9L6.45 19.3C5.85 19.9 5.85 20.9 6.45 21.6C7.05 22.2 7.95 22.2 8.45 21.6L12.25 17.4L16.05 21.6C16.65 22.2 17.55 22.2 18.05 21.6C18.55 20.9 18.55 19.9 18.05 19.3Z" stroke-width="2" stroke-miterlimit="10"/>
</svg>
