<svg width="40" height="40" viewBox="0 0 40 40" xmlns="http://www.w3.org/2000/svg">
<path d="M23.472 3.333H10.278c-.834 0-1.667.417-2.223.973a3.35 3.35 0 00-.972 2.36V33.75c0 .834.278 1.806.972 2.361.556.695 1.39.973 2.223.973h19.305c.834 0 1.667-.417 2.223-.973.555-.694.972-1.527.972-2.36V13.333l-9.306-10z" stroke-width="1.667" stroke-linecap="round" stroke-linejoin="round"/><path d="M23.472 3.333v10H32.5" stroke-width="1.667" stroke-linecap="round" stroke-linejoin="round"/><path d="M36.667 18.056H3.333V32.5h33.334V18.056z" fill="#fff" stroke-width="1.667" stroke-linecap="round" stroke-linejoin="round"/><path d="M10.417 29.028v-7.361h2.36c.834 0 1.529 0 1.806.138.417.14.834.417 1.111.695.278.416.417.833.417 1.389 0 .416-.139.833-.278 1.11-.139.279-.416.556-.555.695-.139.14-.556.278-.834.417-.416.139-.833.139-1.527.139h-.973v2.778h-1.527zm1.527-5.973v2.084h.834c.555 0 .972 0 1.111-.14.139-.138.417-.138.417-.416 0-.278.139-.416.139-.555a1.06 1.06 0 00-.278-.695c-.14-.139-.417-.278-.556-.278H11.945zM17.222 21.806H20c.555 0 1.111 0 1.389.139.416.138.833.416 1.11.694.279.278.556.694.695 1.25.14.417.278 1.111.278 1.806 0 .555-.139 1.11-.278 1.527-.139.556-.416.973-.833 1.25-.278.278-.556.417-1.111.556-.278.139-.833.139-1.25.139h-2.778v-7.361zm1.528 1.25v4.86h1.111c.417 0 .694 0 .833-.138.278 0 .417-.139.556-.278.139-.139.278-.417.417-.694.138-.278.138-.834.138-1.39 0-.555 0-.971-.138-1.25-.14-.277-.278-.555-.417-.694a1.06 1.06 0 00-.695-.277c-.138 0-.555-.14-1.25-.14h-.555zM24.722 29.028v-7.361h5v1.25H26.25v1.805h3.055v1.25H26.25v3.056h-1.528z"/>
</svg>
