<svg width="20" height="20" viewBox="0 0 20 20" xmlns="http://www.w3.org/2000/svg">
	<path d="M4.1001 16C5.75695 16 7.1001 14.6569 7.1001 13C7.1001 11.3431 5.75695 10 4.1001 10C2.44324 10 1.1001 11.3431 1.1001 13C1.1001 14.6569 2.44324 16 4.1001 16Z" stroke-width="2" stroke-linecap="round" stroke-linejoin="round"/>
	<path d="M13.2998 16C14.9567 16 16.2998 14.6569 16.2998 13C16.2998 11.3431 14.9567 10 13.2998 10C11.643 10 10.2998 11.3431 10.2998 13C10.2998 14.6569 11.643 16 13.2998 16Z" stroke-width="2" stroke-linecap="round" stroke-linejoin="round"/>
	<path d="M7.5 12.9005C7.5 12.9005 8.7 12.3005 9.9 12.9005" stroke-width="2" stroke-linecap="round" stroke-linejoin="round"/>
	<path d="M16.2002 11.9L19.0002 5.5" stroke-width="2" stroke-linecap="round" stroke-linejoin="round"/>
	<path d="M2.2998 10.5L5.5998 5" stroke-width="2" stroke-linecap="round" stroke-linejoin="round"/>
</svg>
