<svg width="76" height="53" viewBox="0 0 76 53" xmlns="http://www.w3.org/2000/svg">
<path d="M34.06 11.4496C34.06 5.92206 29.5274 1.5 24.1103 1.5H11.9496C6.42206 1.5 2 6.03262 2 11.4496V23.6103C2 29.1379 6.53262 33.56 11.9496 33.56H17.9194L13.3868 44.7257C12.8341 46.2734 13.4974 47.8211 14.9345 48.4844L20.6832 50.806C22.1204 51.3588 23.7787 50.6955 24.3314 49.2583L32.8439 28.364C33.6178 26.9269 34.06 25.3791 34.06 23.6103V11.4496Z" stroke-width="3" stroke-miterlimit="10"/>
<path d="M73.748 11.4496C73.748 5.92206 69.2153 1.5 63.7983 1.5H51.6376C46.1101 1.5 41.688 6.03262 41.688 11.4496V23.6103C41.688 29.1379 46.2206 33.56 51.6376 33.56H57.718L53.1854 44.7257C52.6326 46.2734 53.2959 47.8211 54.7331 48.4844L60.4818 50.806C61.9189 51.3588 63.5772 50.6955 64.13 49.2583L72.6424 28.364C73.4163 26.9269 73.8585 25.3791 73.8585 23.6103V11.4496H73.748Z" stroke-width="3" stroke-miterlimit="10"/>
</svg>
