<svg width="16" height="17" viewBox="0 0 16 17" xmlns="http://www.w3.org/2000/svg">
<path d="M2.61671 6.4242H5.67556C6.20503 6.42306 6.71691 6.63408 7.11628 7.01814C7.29613 7.19033 7.44088 7.40271 7.54096 7.64126C7.64104 7.87981 7.69418 8.1391 7.69687 8.40202V15.3333C7.69479 15.1333 7.65331 14.9362 7.57533 14.7557C7.49735 14.5751 7.38474 14.4155 7.24531 14.288C6.94773 14.0009 6.56515 13.8445 6.17014 13.8484H2.60596L2.61671 6.4242Z" stroke-width="1.5" stroke-linecap="round" stroke-linejoin="round"/>
<path d="M13.4243 6.42428H10C9.40553 6.41929 8.83014 6.6308 8.38429 7.01822C8.17599 7.18708 8.00686 7.39798 7.8883 7.63671C7.76974 7.87543 7.70451 8.13642 7.69702 8.40208V15.3333C7.69942 15.1339 7.74535 14.9373 7.83169 14.757C7.91803 14.5766 8.04276 14.4166 8.19741 14.288C8.53112 14.0009 8.96016 13.8445 9.40315 13.8485H13.4002L13.4243 6.42428Z" stroke-width="1.5" stroke-linecap="round" stroke-linejoin="round"/>
<path d="M1.33325 4.5152L8.19242 1.33337L14.6969 4.5152" stroke-width="1.5" stroke-linecap="round" stroke-linejoin="round"/>
</svg>
