<svg viewBox="0 0 24 24" xmlns="http://www.w3.org/2000/svg">
    <path fill-rule="evenodd" clip-rule="evenodd" d="M14 5C14 6.65685 15.3431 8 17 8C17.7956 8 18.5587 7.68393 19.1213 7.12132C19.6839 6.55871 20 5.79565 20 5C20 3.34315 18.6569 2 17 2C15.3431 2 14 3.34315 14 5ZM16 5C16 4.44772 16.4477 4 17 4C17.5523 4 18 4.44772 18 5C18 5.55228 17.5523 6 17 6C16.4477 6 16 5.55228 16 5Z" />
    <path d="M15 6H2C1.44772 6 1 5.55228 1 5C1 4.44772 1.44772 4 2 4H15C15.5523 4 16 4.44772 16 5C16 5.55228 15.5523 6 15 6Z" />
    <path d="M22 6H19C18.4477 6 18 5.55228 18 5C18 4.44772 18.4477 4 19 4H22C22.5523 4 23 4.44772 23 5C23 5.55228 22.5523 6 22 6Z" />
    <path fill-rule="evenodd" clip-rule="evenodd" d="M9 12C9 13.6569 10.3431 15 12 15C12.7956 15 13.5587 14.6839 14.1213 14.1213C14.6839 13.5587 15 12.7956 15 12C15 10.3431 13.6569 9 12 9C10.3431 9 9 10.3431 9 12ZM11 12C11 11.4477 11.4477 11 12 11C12.5523 11 13 11.4477 13 12C13 12.5523 12.5523 13 12 13C11.4477 13 11 12.5523 11 12Z" />
    <path d="M10 13H2C1.44772 13 1 12.5523 1 12C1 11.4477 1.44772 11 2 11H10C10.5523 11 11 11.4477 11 12C11 12.5523 10.5523 13 10 13Z" />
    <path d="M22 13H14C13.4477 13 13 12.5523 13 12C13 11.4477 13.4477 11 14 11H22C22.5523 11 23 11.4477 23 12C23 12.5523 22.5523 13 22 13Z" />
    <path fill-rule="evenodd" clip-rule="evenodd" d="M4 19C4 20.6569 5.34315 22 7 22C8.65685 22 10 20.6569 10 19C10 17.3431 8.65685 16 7 16C5.34315 16 4 17.3431 4 19ZM6 19C6 18.4477 6.44772 18 7 18C7.55228 18 8 18.4477 8 19C8 19.5523 7.55228 20 7 20C6.44772 20 6 19.5523 6 19Z" />
    <path d="M22 20H9C8.44772 20 8 19.5523 8 19C8 18.4477 8.44772 18 9 18H22C22.5523 18 23 18.4477 23 19C23 19.5523 22.5523 20 22 20Z" />
    <path d="M5 20H2C1.44772 20 1 19.5523 1 19C1 18.4477 1.44772 18 2 18H5C5.55228 18 6 18.4477 6 19C6 19.5523 5.55228 20 5 20Z" />
</svg>
