
<svg width="22" height="24" viewBox="0 0 22 24" xmlns="http://www.w3.org/2000/svg">
<path d="M20.5994 5.01176L18.767 5.64706L18.6261 5.43529C18.2737 5.01176 17.8508 4.58823 17.428 4.23529L17.2165 4.09412L17.8508 2.25882C17.2165 1.83529 16.5823 1.41176 15.8775 1.12941L14.6089 2.61176L14.3975 2.54118C13.8337 2.32941 13.2699 2.18824 12.7061 2.11765L12.4242 2.04706L12.0718 0.0705882C11.7194 0 11.2965 0 10.9442 0C10.5918 0 10.1689 0 9.81654 0.0705882L9.46416 1.97647L9.18225 2.04706C8.61844 2.11765 8.05463 2.32941 7.49082 2.47059L7.27939 2.54118L6.01082 1.05882C5.30606 1.41176 4.67177 1.76471 4.03749 2.18824L4.67177 4.02353L4.46034 4.23529C4.03749 4.58823 3.61463 5.01176 3.26225 5.43529L3.05082 5.64706L1.21844 5.01176C0.795582 5.64706 0.443201 6.28235 0.0908203 6.98823L1.57082 8.25882L1.50034 8.47059C1.28892 9.03529 1.14796 9.6 1.07749 10.1647C1.07749 10.1647 1.00701 10.3765 1.00701 10.4471C0.936535 11.0118 0.936535 11.6471 0.936535 11.6471H2.76892C2.90987 7.12941 6.71558 3.6 11.2261 3.74118C14.1861 3.81176 16.9346 5.57647 18.2737 8.25882H20.3175L21.7975 6.98823C21.4451 6.28235 21.0927 5.64706 20.5994 5.01176ZM20.3175 15.6L20.388 15.3882C20.7403 14.3294 20.9518 13.3412 21.0927 12.2118H19.1194C18.9784 16.7294 15.1727 20.2588 10.6623 20.1176C7.70225 20.0471 4.95368 18.2824 3.61463 15.6H1.57082L0.0908203 16.8706C0.443201 17.5765 0.795582 18.2118 1.21844 18.8471L3.05082 18.2118L3.19177 18.4235C3.54415 18.8471 3.96701 19.2706 4.38987 19.6235L4.67177 19.7647L4.03749 21.6C4.67177 22.0235 5.30606 22.4471 6.01082 22.7294L7.27939 21.2471L7.49082 21.3176C8.05463 21.5294 8.61844 21.6706 9.18225 21.7412L9.46416 21.8118L9.81654 23.7176C10.1689 23.7882 10.5918 23.7882 10.9442 23.7882C11.2965 23.7882 11.7194 23.7882 12.0718 23.7176L12.4242 21.8118L12.7061 21.7412C13.2699 21.6706 13.8337 21.4588 14.3975 21.3176L14.6089 21.2471L15.8775 22.7294C16.5823 22.3765 17.2165 22.0235 17.8508 21.6L17.2165 19.7647L17.428 19.6235C17.8508 19.2706 18.2737 18.8471 18.6261 18.4235L18.767 18.2118L20.5994 18.8471C21.0223 18.2118 21.4451 17.5765 21.727 16.8706C21.7975 16.8706 20.3175 15.6 20.3175 15.6Z" />
<path d="M1.85278 11.647H8.40707V10.0235H1.92326" />
<path d="M7.34985 14.047V8.25879H9.887V12.5647L7.34985 14.047ZM21.0927 12.2117H13.5518V13.8353H20.8108" />
<path d="M14.6795 9.81177V15.6H12.1423V11.2941L14.6795 9.81177Z" />
</svg>
