<svg viewBox="0 0 24 24" xmlns="http://www.w3.org/2000/svg">
<path d="M16.7 21.4V11.9H19.7C19.7 11.9 22.1 12.3 22.1 14.6C22.1 16.7 20.1 16.6 19.7 16.7C19.3 16.8 14.8 16.7 14.8 16.7" stroke-width="2" stroke-linecap="round" stroke-linejoin="round"/>
<path d="M14.7 19.5H20.2" stroke-width="2" stroke-linecap="round" stroke-linejoin="round"/>
<path d="M2 3.09998H7.2C8.1 3.09998 9 3.39998 9.7 3.99998C10.3 4.49998 10.7 5.29998 10.7 6.09998V16.8C10.7 16.2 10.4 15.6 9.89999 15.2C9.39999 14.8 8.69999 14.5 8.09999 14.5H2V3.09998Z" stroke-width="2" stroke-linecap="round" stroke-linejoin="round"/>
<path d="M19.3999 8.5V3H14.2C13.3 3 12.4 3.3 11.7 3.9C11.1 4.4 10.7 5.2 10.7 6V16.7C10.7 16.1 11 15.5 11.5 15.1C12 14.7 12.3 14.4 13 14.4" stroke-width="2" stroke-linecap="round" stroke-linejoin="round"/>
</svg>
