<svg viewBox="0 0 24 24" xmlns="http://www.w3.org/2000/svg">
<path d="M18.2999 14.9L21.9999 15.4L19.2999 18L19.9999 21.8L16.5999 20L13.2999 21.8L13.8999 18.1L11.2 15.4L14.8999 14.9L16.5999 11.5L18.2999 14.9Z" stroke-width="2" stroke-linecap="round" stroke-linejoin="round"/>
<path d="M13.7 13.8999C13.1 13.2999 12.3 12.8999 11.5 12.8999H6.1C5.3 12.8999 4.5 13.2999 3.9 13.8999C3.3 14.4999 3 15.3999 3 16.2999V17.9999" stroke-width="2" stroke-linecap="round" stroke-linejoin="round"/>
<path d="M8.8 9.6C10.6 9.6 12.1 8.1 12.1 6.3C12.1 4.5 10.6 3 8.8 3C7 3 5.5 4.5 5.5 6.3C5.5 8.1 6.9 9.6 8.8 9.6Z" stroke-width="2" stroke-linecap="round" stroke-linejoin="round"/>
</svg>
