<svg viewBox="0 0 24 24" xmlns="http://www.w3.org/2000/svg">
    <path d="M22.4956 6.87164C22.651 6.35719 22.4956 6 21.772 6H19.3654C18.7464 6 18.4704 6.3252 18.3176 6.68505C18.3176 6.68505 17.0956 9.6625 15.359 11.5764C14.7908 12.1415 14.5496 12.3121 14.2414 12.3121C14.086 12.3121 13.8636 12.1415 13.8636 11.627V6.87164C13.8636 6.2559 13.6921 6 13.1748 6H9.39081C9.01294 6 8.77175 6.29055 8.77175 6.54644C8.77175 7.12754 9.632 7.26615 9.73383 8.87349V12.3974C9.73383 13.1677 9.59716 13.3037 9.28629 13.3037C8.47696 13.3037 6.4831 10.3262 5.31466 6.90629C5.07347 6.27455 4.85103 6 4.23197 6H1.82541C1.13668 6 1 6.3252 1 6.68505C1 7.31679 1.80933 10.4648 4.80012 14.6205C6.79397 17.4593 9.59716 19 12.1431 19C13.6733 19 13.8636 18.6588 13.8636 18.075V15.9186C13.8636 15.2335 14.0003 15.0976 14.4987 15.0976C14.8605 15.0976 15.4608 15.2682 16.8892 16.6383C18.5239 18.2643 18.7973 19 19.7085 19H22.115C22.8038 19 23.1468 18.6588 22.9404 17.9897C22.718 17.3234 21.9435 16.3478 20.9118 15.1856C20.3436 14.5192 19.5021 13.8181 19.2609 13.4583C18.8991 12.9971 19.0037 12.7919 19.2609 12.3974C19.2636 12.3814 22.2035 8.27373 22.4956 6.87164Z"  stroke-width="2" stroke-miterlimit="10"/>
</svg>
