<svg width="1440" height="89" viewBox="0 0 1440 89" fill="none" xmlns="http://www.w3.org/2000/svg">
<mask id="mask0" mask-type="alpha" maskUnits="userSpaceOnUse" x="1054" y="0" width="211" height="89">
<rect x="1054" width="211" height="89" fill="#69B3E7"/>
</mask>
<g mask="url(#mask0)">
<mask id="mask1" mask-type="alpha" maskUnits="userSpaceOnUse" x="1164" y="22" width="93" height="92">
<path fill-rule="evenodd" clip-rule="evenodd" d="M1164.77 22.9083H1256.47V114H1164.77V22.9083Z" fill="white"/>
</mask>
<g mask="url(#mask1)">
<path fill-rule="evenodd" clip-rule="evenodd" d="M1255.71 39.0587L1229.27 23.1355C1228.22 22.5058 1226.89 23.2595 1226.89 24.4805V56.3276C1226.89 57.5487 1225.56 58.3024 1224.51 57.6727L1198.06 41.7494V41.7489L1167.15 23.1355C1166.1 22.5058 1164.77 23.2595 1164.77 24.4805V93.7275C1164.77 94.948 1166.1 95.7017 1167.15 95.0737L1193.45 79.2356C1194.5 78.6059 1195.83 79.3596 1195.83 80.5806V112.427C1195.83 113.649 1197.16 114.402 1198.21 113.773L1224.65 97.8495C1225.67 97.239 1225.67 95.7688 1224.65 95.1588L1198.06 79.1493C1197.12 78.5822 1197.06 77.2715 1197.87 76.5995H1197.83L1255.71 41.7489C1256.73 41.1389 1256.73 39.6687 1255.71 39.0587Z" fill="#4BA3E3"/>
</g>
<path fill-rule="evenodd" clip-rule="evenodd" d="M1195.92 5.63719V37.7198C1195.92 38.9499 1197.25 39.7092 1198.29 39.0748L1224.68 23.0338C1225.69 22.4188 1225.69 20.9377 1224.68 20.3232L1198.29 4.28217C1197.25 3.64782 1195.92 4.40711 1195.92 5.63719Z" fill="#4BA3E3"/>
<mask id="mask2" mask-type="alpha" maskUnits="userSpaceOnUse" x="1071" y="2" width="92" height="92">
<path fill-rule="evenodd" clip-rule="evenodd" d="M1071 2.85498H1162.7V93.9467H1071V2.85498Z" fill="white"/>
</mask>
<g mask="url(#mask2)">
<path fill-rule="evenodd" clip-rule="evenodd" d="M1161.94 19.0054L1135.5 3.08219C1134.45 2.4525 1133.12 3.20621 1133.12 4.42726V36.2743C1133.12 37.4954 1131.79 38.2491 1130.74 37.6194L1104.29 21.6962V21.6956L1073.38 3.08219C1072.33 2.4525 1071 3.20621 1071 4.42726V73.6742C1071 74.8947 1072.33 75.6484 1073.38 75.0204L1099.68 59.1823C1100.73 58.5526 1102.06 59.3063 1102.06 60.5274V92.3739C1102.06 93.5955 1103.39 94.3492 1104.44 93.7195L1130.88 77.7962C1131.9 77.1857 1131.9 75.7155 1130.88 75.1055L1104.29 59.096C1103.35 58.5289 1103.29 57.2182 1104.1 56.5463H1104.06L1161.94 21.6956C1162.96 21.0856 1162.96 19.6154 1161.94 19.0054Z" fill="#4BA3E3"/>
</g>
<path fill-rule="evenodd" clip-rule="evenodd" d="M1102.15 -14.4161V17.6665C1102.15 18.8966 1103.48 19.6559 1104.52 19.0215L1130.91 2.98052C1131.92 2.36548 1131.92 0.884382 1130.91 0.269911L1104.52 -15.7711C1103.48 -16.4055 1102.15 -15.6462 1102.15 -14.4161Z" fill="#4BA3E3"/>
</g>
</svg>
