<svg width="84" height="73" viewBox="0 0 84 73" fill="none" xmlns="http://www.w3.org/2000/svg">
<g clip-path="url(#clip0)">
<path d="M0 62.7C0 63.5 0.9 64 1.6 63.6L20 53.4C20.7 53 20.7 52.1 20 51.7L1.6 41.4C0.9 41 0 41.5 0 42.3V62.7Z" fill="#4BA3E3"/>
<path d="M0 39.1C0 39.9 0.9 40.4 1.6 40L20 29.7C20.7 29.3 20.7 28.4 20 28L1.6 17.8C0.9 17.4 0 17.8 0 18.6V39.1Z" fill="#4BA3E3"/>
<path d="M62.1001 21.7C62.1001 22.5 63.0001 23 63.8001 22.6L82.5001 12.2C83.2001 11.8 83.2001 10.8 82.5001 10.4L63.8001 0.100009C63.1001 -0.299991 62.1001 0.200009 62.1001 1.00001V21.7Z" fill="#4BA3E3"/>
<path d="M22.2001 0.199985C21.5001 -0.200015 20.6001 0.299985 20.6001 1.09999V71C20.6001 71.8 21.5001 72.3 22.2001 71.9L83.3001 37C84.0001 36.6 84.0001 35.6 83.3001 35.2L22.2001 0.199985Z" fill="#4BA3E3"/>
<path d="M40 46.7C42.5958 46.7 44.7001 44.5957 44.7001 42C44.7001 39.4043 42.5958 37.3 40 37.3C37.4043 37.3 35.3 39.4043 35.3 42C35.3 44.5957 37.4043 46.7 40 46.7Z" stroke="white" stroke-width="2" stroke-miterlimit="10"/>
<path d="M41.2 59.8H48.8V56.7C48.8 52.9 45.7 49.8 41.9 49.8H38.9C34.8 49.8 31.5 53.1 31.5 57.2V59.8H38.7" stroke="white" stroke-width="2" stroke-miterlimit="10"/>
<path d="M52.3998 45.8C54.388 45.8 55.9998 44.1882 55.9998 42.2C55.9998 40.2118 54.388 38.6 52.3998 38.6C50.4116 38.6 48.7998 40.2118 48.7998 42.2C48.7998 44.1882 50.4116 45.8 52.3998 45.8Z" stroke="white" stroke-width="2" stroke-miterlimit="10"/>
<path d="M50.3999 55.7H59.0999V53.8C59.0999 50.7 56.5999 48.1 53.3999 48.1H51.2999C49.6999 48.1 48.2999 48.8 47.3999 49.9" stroke="white" stroke-width="2" stroke-miterlimit="10"/>
<path d="M27.6 45.8C29.5882 45.8 31.2 44.1882 31.2 42.2C31.2 40.2118 29.5882 38.6 27.6 38.6C25.6118 38.6 24 40.2118 24 42.2C24 44.1882 25.6118 45.8 27.6 45.8Z" stroke="white" stroke-width="2" stroke-miterlimit="10"/>
<path d="M32.7999 49.9C31.7999 48.8 30.2999 48.1 28.6999 48.1H26.5999C23.6999 48.1 21.3999 50.4 21.3999 53.3V55.6H29.8999" stroke="white" stroke-width="2" stroke-miterlimit="10"/>
<path d="M53.7 31.3C58.1182 31.3 61.7 27.7183 61.7 23.3C61.7 18.8817 58.1182 15.3 53.7 15.3C49.2817 15.3 45.7 18.8817 45.7 23.3C45.7 27.7183 49.2817 31.3 53.7 31.3Z" stroke="white" stroke-width="2" stroke-miterlimit="10"/>
<path d="M51.5 30.3L50 35.3" stroke="white" stroke-width="2" stroke-miterlimit="10"/>
<path d="M57.2999 11.5L55.8999 15.8" stroke="white" stroke-width="1.8951" stroke-miterlimit="10"/>
<path d="M60.3999 25.1L65.3999 26.7" stroke="white" stroke-width="2" stroke-miterlimit="10"/>
<path d="M42.0999 19.6L47.0999 21.1" stroke="white" stroke-width="2" stroke-miterlimit="10"/>
<path d="M58 30.3L60 33.6" stroke="white" stroke-width="2" stroke-miterlimit="10"/>
<path d="M47.5 12.7L49.7 16.4" stroke="white" stroke-width="2" stroke-miterlimit="10"/>
<path d="M60.8999 18.8L64.1999 16.9" stroke="white" stroke-width="2" stroke-miterlimit="10"/>
<path d="M43.2998 29.4L47.1998 27" stroke="white" stroke-width="2" stroke-miterlimit="10"/>
<path d="M47.0999 13.7C48.0388 13.7 48.7999 12.9389 48.7999 12C48.7999 11.0611 48.0388 10.3 47.0999 10.3C46.161 10.3 45.3999 11.0611 45.3999 12C45.3999 12.9389 46.161 13.7 47.0999 13.7Z" fill="white"/>
<path d="M42.0999 21.3C43.0388 21.3 43.7999 20.5388 43.7999 19.6C43.7999 18.6611 43.0388 17.9 42.0999 17.9C41.161 17.9 40.3999 18.6611 40.3999 19.6C40.3999 20.5388 41.161 21.3 42.0999 21.3Z" fill="white"/>
<path d="M43.4998 31.1C44.4387 31.1 45.1998 30.3388 45.1998 29.4C45.1998 28.4611 44.4387 27.7 43.4998 27.7C42.5609 27.7 41.7998 28.4611 41.7998 29.4C41.7998 30.3388 42.5609 31.1 43.4998 31.1Z" fill="white"/>
<path d="M50.2 36.4C51.1389 36.4 51.9 35.6389 51.9 34.7C51.9 33.7611 51.1389 33 50.2 33C49.2611 33 48.5 33.7611 48.5 34.7C48.5 35.6389 49.2611 36.4 50.2 36.4Z" fill="white"/>
<path d="M59.9998 35.3C60.9387 35.3 61.6998 34.5388 61.6998 33.6C61.6998 32.6611 60.9387 31.9 59.9998 31.9C59.0609 31.9 58.2998 32.6611 58.2998 33.6C58.2998 34.5388 59.0609 35.3 59.9998 35.3Z" fill="white"/>
<path d="M65.2999 28.6C66.2387 28.6 66.9999 27.8388 66.9999 26.9C66.9999 25.9611 66.2387 25.2 65.2999 25.2C64.361 25.2 63.5999 25.9611 63.5999 26.9C63.5999 27.8388 64.361 28.6 65.2999 28.6Z" fill="white"/>
<path d="M63.9 18.8C64.8388 18.8 65.5999 18.0388 65.5999 17.1C65.5999 16.1611 64.8388 15.4 63.9 15.4C62.9611 15.4 62.2 16.1611 62.2 17.1C62.2 18.0388 62.9611 18.8 63.9 18.8Z" fill="white"/>
<path d="M57.2 13.5C58.1389 13.5 58.9 12.7389 58.9 11.8C58.9 10.8611 58.1389 10.1 57.2 10.1C56.2611 10.1 55.5 10.8611 55.5 11.8C55.5 12.7389 56.2611 13.5 57.2 13.5Z" fill="white"/>
<path d="M51.5999 20.6C52.3731 20.6 53 19.9732 53 19.2C53 18.4268 52.3731 17.8 51.5999 17.8C50.8268 17.8 50.2 18.4268 50.2 19.2C50.2 19.9732 50.8268 20.6 51.5999 20.6Z" fill="white"/>
<path d="M57.7999 22.4C58.5731 22.4 59.1999 21.7732 59.1999 21C59.1999 20.2268 58.5731 19.6 57.7999 19.6C57.0267 19.6 56.3999 20.2268 56.3999 21C56.3999 21.7732 57.0267 22.4 57.7999 22.4Z" fill="white"/>
<path d="M55.2999 27.5C56.0731 27.5 56.6999 26.8731 56.6999 26.1C56.6999 25.3268 56.0731 24.7 55.2999 24.7C54.5267 24.7 53.8999 25.3268 53.8999 26.1C53.8999 26.8731 54.5267 27.5 55.2999 27.5Z" fill="white"/>
<path d="M49.2999 25.9C50.0731 25.9 50.6999 25.2732 50.6999 24.5C50.6999 23.7268 50.0731 23.1 49.2999 23.1C48.5267 23.1 47.8999 23.7268 47.8999 24.5C47.8999 25.2732 48.5267 25.9 49.2999 25.9Z" fill="white"/>
</g>
<defs>
<clipPath id="clip0">
<rect width="83.8" height="72.1" fill="white"/>
</clipPath>
</defs>
</svg>
