<svg width="239" height="252" viewBox="0 0 239 252" fill="none" xmlns="http://www.w3.org/2000/svg">
<path d="M237.532 68.3523L185.862 37.1179C183.844 35.886 181.25 37.3354 181.25 39.7268L181.034 102.268C181.034 104.659 178.439 106.109 176.421 104.877L3.75629 0.448404C1.7385 -0.783577 -0.855907 0.665817 -0.855907 3.05731L-1 212.349C-1 214.741 1.59441 216.262 3.6122 214.958L40.3648 192.71L55.0658 183.796C57.0835 182.564 59.6778 184.014 59.6778 186.405V248.946C59.6778 249.091 59.6778 249.164 59.6778 249.308C59.894 251.483 62.3442 252.715 64.29 251.555L115.96 220.321C117.905 219.089 117.905 216.262 115.96 215.03L67.7491 185.898L64.0737 183.651C62.128 182.419 62.128 179.593 64.0737 178.361L115.744 147.127C115.888 147.054 116.032 146.982 116.176 146.909L237.604 73.5701C239.477 72.4106 239.477 69.5118 237.532 68.3523Z" fill="#F9F9FA"/>
</svg>
