<svg xmlns="http://www.w3.org/2000/svg" viewBox="0 0 48 48">
    <path d="M38.28 2.42H6.85a.79.79 0 00-.8.79v40.87a3.83 3.83 0 003.84 3.83h22.7a.8.8 0 00.57-.23l8.72-8.73a.79.79 0 00.23-.56V6.25a3.83 3.83 0 00-3.83-3.83z" fill="#EBEEF2"/>
    <path d="M38.28 2.42h-2.73a3.83 3.83 0 013.83 3.83v32.14a.79.79 0 01-.24.56l-.42.42h2.74l.42-.42a.79.79 0 00.23-.56V6.25a3.83 3.83 0 00-3.83-3.83z" fill="#DCE0E5"/>
    <path d="M42.05 38.09a.79.79 0 00-.73-.49H32.6a.79.79 0 00-.8.8v8.72a.79.79 0 001.36.56l8.72-8.73a.79.79 0 00.17-.86z" fill="#D1D6DE"/>
    <path d="M12.07 6.33a.79.79 0 01-.79-.8V.89a.79.79 0 111.58 0v4.66a.79.79 0 01-.79.79zm8.01 0a.79.79 0 01-.79-.8V.89a.79.79 0 011.58 0v4.66a.79.79 0 01-.79.79zm8.01 0a.79.79 0 01-.79-.8V.89a.79.79 0 111.58 0v4.66a.79.79 0 01-.79.79zm8.01 0a.79.79 0 01-.79-.8V.89a.79.79 0 011.58 0v4.66a.79.79 0 01-.79.79z" fill="#444966"/>
    <path d="M14.26 15.68a.79.79 0 01-.56-.23l-1.56-1.56a.79.79 0 111.12-1.12l1 1 2.35-2.34a.79.79 0 011.12 1.11l-2.91 2.9a.79.79 0 01-.56.24z"/>
    <path d="M34.89 12.37H23.83a.79.79 0 110-1.58h11.06a.79.79 0 010 1.58zm-7.16 3.71h-3.9a.79.79 0 010-1.57h3.9a.79.79 0 010 1.58z" fill="#66707C"/>
    <path d="M14.26 26.76a.79.79 0 01-.56-.23l-1.56-1.56a.79.79 0 111.12-1.12l1 1 2.35-2.34a.79.79 0 011.12 1.11l-2.91 2.91a.79.79 0 01-.56.23z"/>
    <path d="M34.89 23.45H23.83a.79.79 0 110-1.58h11.06a.79.79 0 010 1.58zm-7.16 3.72h-3.9a.79.79 0 010-1.58h3.9a.79.79 0 010 1.58zm7.16 7.36H23.83a.79.79 0 010-1.58h11.06a.79.79 0 010 1.58zm-7.16 3.72h-3.9a.79.79 0 010-1.58h3.9a.79.79 0 110 1.58z" fill="#66707C"/>
    <path d="M11.33 35.45a3.61 3.61 0 003.6 3.6 3.61 3.61 0 003.61-3.6 3.61 3.61 0 00-3.6-3.61 3.61 3.61 0 00-3.61 3.61zm1.58 0a2.03 2.03 0 114.06 0 2.03 2.03 0 01-4.06 0z" fill="#FF4452"/>
    <circle r="3.5" cx="15" cy="35.5" fill="#FF4452"/>
    <circle cx="15" r="2" cy="35.5" fill="#EBEEF2"/>
</svg>