<svg xmlns="http://www.w3.org/2000/svg" viewBox="0 0 48 48">
    <path d="M0 12.63v30.74a3.75 3.75 0 003.75 3.76h40.5A3.75 3.75 0 0048 43.37V12.64H0z" fill="#D8DCE1"/>
    <path fill-rule="evenodd" d="M44.25 2.13H3.75A3.75 3.75 0 000 5.88v6.75h48V5.87a3.75 3.75 0 00-3.75-3.75zM6 9.63a2.25 2.25 0 110-4.5 2.25 2.25 0 010 4.5zm33.75-2.26a2.25 2.25 0 104.5 0 2.25 2.25 0 00-4.5 0z"/>
    <path d="M24 19.38a3 3 0 100 6 3 3 0 000-6zm-7.5 0a3 3 0 100 6 3 3 0 000-6zm-7.5 0a3 3 0 100 6 3 3 0 000-6zm22.5 0a3 3 0 100 6 3 3 0 000-6zm7.5 6a3 3 0 100-6.01 3 3 0 000 6zm-15 1.5a3 3 0 100 6 3 3 0 000-6zm-7.5 0a3 3 0 100 6 3 3 0 000-6zm-7.5 0a3 3 0 100 6 3 3 0 000-6zm22.5 0a3 3 0 100 6 3 3 0 000-6zm7.5 0a3 3 0 100 6 3 3 0 000-6zm-15 7.5a3 3 0 100 6 3 3 0 000-6zm-15 0a3 3 0 100 6 3 3 0 000-6zm22.5 0a3 3 0 100 6 3 3 0 000-6zm7.5 0a3 3 0 100 6 3 3 0 000-6z" fill="#fff"/>
    <path d="M6 8.5a1.13 1.13 0 01-1.13-1.13V2.13a1.13 1.13 0 012.25 0v5.25A1.1 1.1 0 016 8.5zm36 0a1.13 1.13 0 01-1.13-1.13V2.13a1.13 1.13 0 012.26 0v5.25c0 .63-.5 1.13-1.13 1.13z" fill="#5C546A"/>
    <path d="M9 25.38a3 3 0 100-6 3 3 0 000 6z" fill="#FF4452"/>
    <path d="M31.5 32.88a3 3 0 100-6 3 3 0 000 6zm-15 7.9a3 3 0 100-6 3 3 0 000 6z"/>
</svg>