<svg xmlns="http://www.w3.org/2000/svg" viewBox="0 0 48 48">
    <path d="M27.72 28.53h-7.9c-.7 0-1.38-.3-2.04-.16A9.7 9.7 0 0010 37.81v9.33a.76.76 0 00.77.75h26a.76.76 0 00.77-.75V37.8a9.7 9.7 0 00-7.78-9.44c-.66-.13-1.34.16-2.04.16z"/>
    <path d="M23.75 42.24l7.37-13.55a8.87 8.87 0 00-3.76-.83h-7.21c-1.34 0-2.62.3-3.76.83l7.36 13.55z" fill="#EBEEF2"/>
    <path d="M25.02 31.18a3.58 3.58 0 002.17-3.32h-6.87c0 1.5.9 2.8 2.17 3.32l-1.14 6.5 2.4 4.56 2.4-4.56-1.13-6.5z" fill="#FF4452"/>
    <path d="M36.32 19.86V13.2C36.32 6.46 30.75 1 23.87 1a12.33 12.33 0 00-12.45 12.2v6.66c0 1.79-.6 3.98-1.34 5.36a.7.7 0 00.63 1.03h26.31a.7.7 0 00.63-1.03 12.55 12.55 0 01-1.33-5.36z" fill="#444966"/>
    <path d="M33.09 16.76v1.9c0 5-4.14 9.04-9.23 9.04a9.14 9.14 0 01-9.24-9.04v-5.89c0-.31.02-.63.06-.94h1.18a3 3 0 012.8 1.92 4.63 4.63 0 001.73 2.18 4.77 4.77 0 002.7.83h10z" fill="#FCD0AE"/>
</svg>