<svg xmlns="http://www.w3.org/2000/svg" viewBox="0 0 24 24">
    <path d="M12.5 22.8C6.535 22.8 1.7 17.965 1.7 12c0-5.965 4.835-10.8 10.8-10.8 5.965 0 10.8 4.835 10.8 10.8 0 5.965-4.835 10.8-10.8 10.8zm0-1.6a9.2 9.2 0 1 0 0-18.4 9.2 9.2 0 0 0 0 18.4zm-1.11-6.784h1.744c-.01-.529.035-.896.133-1.1.098-.206.35-.477.756-.814.783-.652 1.295-1.167 1.534-1.545.24-.378.359-.78.359-1.203 0-.766-.326-1.437-.978-2.013-.651-.577-1.529-.865-2.631-.865-1.049 0-1.895.285-2.54.854-.645.57-.992 1.263-1.042 2.079l1.763.218c.123-.57.349-.993.677-1.271.328-.278.736-.417 1.224-.417.506 0 .908.133 1.206.4.299.266.448.587.448.96 0 .27-.084.515-.253.739-.11.14-.444.44-1.005.895-.56.456-.934.866-1.12 1.23-.188.365-.281.83-.281 1.395 0 .055.002.207.007.458zm0 .663V17h1.921v-1.92h-1.92z"></path>
</svg>