<svg viewBox="0 0 448 513" xmlns="http://www.w3.org/2000/svg">
    <path d="M1.12432 228.247C2.78832 232.236 6.67131 234.839 10.9803 234.839L127.865 234.839L127.865 501.505C127.865 507.393 132.644 512.172 138.532 512.172L309.199 512.172C315.087 512.172 319.866 507.393 319.866 501.505L319.866 234.838L437.199 234.838C441.508 234.838 445.391 232.235 447.055 228.267C448.698 224.278 447.802 219.691 444.751 216.64L231.951 3.13597C229.946 1.13097 227.236 -1.92881e-05 224.399 -1.95361e-05C221.562 -1.97841e-05 218.852 1.13097 216.847 3.11497L3.42831 216.619C0.377309 219.671 -0.539677 224.257 1.12432 228.247Z"/>
</svg>
