<svg width="346" height="323" viewBox="0 0 346 323" fill="none" xmlns="http://www.w3.org/2000/svg">
<path fill-rule="evenodd" clip-rule="evenodd" d="M-29 281.121C-29 284.708 -25.0011 286.92 -21.8378 285.126L60.5276 239.455C63.6312 237.661 63.6312 233.656 60.5276 231.863L-21.8378 185.713C-24.9414 183.92 -29 186.131 -29 189.718V281.121Z" fill="#F6FBFF"/>
<path fill-rule="evenodd" clip-rule="evenodd" d="M-29 175.371C-29 178.958 -25.0011 181.17 -21.8378 179.376L60.4679 133.227C63.5715 131.433 63.5715 127.428 60.4679 125.635L-21.8378 79.9631C-24.9414 78.1697 -29 79.9631 -29 83.5498V175.371Z" fill="#F6FBFF"/>
<path fill-rule="evenodd" clip-rule="evenodd" d="M248.834 97.4186C248.834 101.005 252.833 103.217 256.414 101.424L340.093 54.7958C343.197 53.0024 343.197 48.519 340.093 46.7256L256.474 0.635607C253.371 -1.15778 248.894 1.05406 248.894 4.64083V97.4186H248.834Z" fill="#F6FBFF"/>
<path fill-rule="evenodd" clip-rule="evenodd" d="M70.315 1.05431C67.2114 -0.739077 63.1528 1.47276 63.1528 5.05953V318.304C63.1528 321.891 67.1517 324.103 70.315 322.309L343.672 165.926C346.776 164.133 346.776 159.649 343.672 157.856L70.315 1.05431Z" fill="#F6FBFF"/>
</svg>
