<svg width="215" height="253" viewBox="0 0 215 253" fill="none" xmlns="http://www.w3.org/2000/svg">
<path d="M238.532 68.6611L186.862 37.4268C184.844 36.1948 182.25 37.6442 182.25 40.0357L182.034 102.577C182.034 104.968 179.439 106.418 177.421 105.186L4.75629 0.757242C2.7385 -0.474739 0.144093 0.974655 0.144093 3.36615L0 212.658C0 215.049 2.59441 216.571 4.6122 215.267L41.3648 193.019L56.0658 184.105C58.0835 182.873 60.6778 184.322 60.6778 186.714V249.255C60.6778 249.4 60.6778 249.472 60.6778 249.617C60.894 251.791 63.3442 253.023 65.29 251.864L116.96 220.63C118.905 219.398 118.905 216.571 116.96 215.339L68.7491 186.207L65.0737 183.96C63.128 182.728 63.128 179.902 65.0737 178.67L116.744 147.435C116.888 147.363 117.032 147.29 117.176 147.218L238.604 73.8789C240.477 72.7194 240.477 69.8206 238.532 68.6611Z" fill="#F6FBFF"/>
</svg>
