<svg width="227" height="253" viewBox="0 0 227 253" fill="none" xmlns="http://www.w3.org/2000/svg">
<path d="M225.532 68.6611L173.862 37.4268C171.844 36.1948 169.25 37.6442 169.25 40.0357L169.034 102.577C169.034 104.968 166.439 106.418 164.421 105.186L-8.24371 0.757242C-10.2615 -0.474739 -12.8559 0.974655 -12.8559 3.36615L-13 212.658C-13 215.049 -10.4056 216.571 -8.3878 215.267L28.3648 193.019L43.0658 184.105C45.0835 182.873 47.6778 184.322 47.6778 186.714V249.255C47.6778 249.4 47.6778 249.472 47.6778 249.617C47.894 251.791 50.3442 253.023 52.29 251.864L103.96 220.63C105.905 219.398 105.905 216.571 103.96 215.339L55.7491 186.207L52.0737 183.96C50.128 182.728 50.128 179.902 52.0737 178.67L103.744 147.435C103.888 147.363 104.032 147.29 104.176 147.218L225.604 73.8789C227.477 72.7194 227.477 69.8206 225.532 68.6611Z" fill="#F6FBFF"/>
</svg>
