<svg xmlns="http://www.w3.org/2000/svg" viewBox="0 0 316.97 85"><defs><style>.cls-1{fill:#ff5448;}.cls-2{fill:#3b3b3b;}</style></defs><title>Ресурс 4</title><g id="Слой_2" data-name="Слой 2"><g id="Слой_1-2" data-name="Слой 1"><path class="cls-1" d="M73.28,17.8l-6.57,2.32-.6-.71a36,36,0,0,0-4.34-4.34l-.71-.6,2.32-6.57a42.49,42.49,0,0,0-7.09-4.1L51.78,9.1l-.87-.32A35.72,35.72,0,0,0,45,7.21L44.06,7,42.78.2C41.42.07,40,0,38.69,0S36,.07,34.6.2L33.32,7l-.92.16a35.67,35.67,0,0,0-5.93,1.58l-.87.32L21.08,3.81A42.51,42.51,0,0,0,14,7.91l2.32,6.57-.71.6a36.18,36.18,0,0,0-4.34,4.34l-.6.71L4.1,17.8A42.51,42.51,0,0,0,0,24.89l5.29,4.52L5,30.28A35.63,35.63,0,0,0,3.4,36.22s-.14.68-.16.92c-.18,2-.2,4.36-.2,4.36H9.47v0A29.24,29.24,0,0,1,64.81,29.37s0,0,0,0H72.1l5.28-4.51A42.49,42.49,0,0,0,73.28,17.8Z"/><path class="cls-1" d="M72.09,55.59l.32-.87A67.67,67.67,0,0,0,74.89,43.5h-7A29.24,29.24,0,0,1,12.53,55.58H5.29L0,60.11A42.51,42.51,0,0,0,4.1,67.2l6.57-2.32.6.71a36.08,36.08,0,0,0,4.34,4.34l.71.6L14,77.09a42.52,42.52,0,0,0,7.08,4.1L25.6,75.9l.87.32a35.72,35.72,0,0,0,5.93,1.58l.92.16L34.6,84.8c1.37.13,2.74.2,4.09.2s2.73-.07,4.09-.2L44.06,78l.92-.16a35.72,35.72,0,0,0,5.93-1.58l.87-.32,4.52,5.29a42.53,42.53,0,0,0,7.08-4.1l-2.32-6.57.71-.6a36.06,36.06,0,0,0,4.34-4.34l.6-.71,6.57,2.32a42.51,42.51,0,0,0,4.1-7.08Z"/><polyline class="cls-1" points="6.33 41.5 29.77 41.5 29.79 35.79 6.45 35.79"/><polygon class="cls-1" points="25.8 50.07 25.8 29.5 34.8 29.5 34.8 44.85 25.8 50.07"/><polyline class="cls-1" points="74.89 43.5 48.07 43.5 48.06 49.21 73.87 49.21"/><polygon class="cls-1" points="52.05 34.93 52.05 55.5 43.05 55.5 43.05 40.15 52.05 34.93"/><path class="cls-1" d="M103.15,57V52.43h22.64V47.9H103.15V34.32h27.17v4.53H107.68v4.53h22.64V57Z"/><path class="cls-1" d="M151.38,57l-10.87-9.69V57H136V25.22h4.53V42.45l10.87-8.16h5.89L143.5,44.67,157.26,57Z"/><path class="cls-1" d="M160.66,25.22h4.53v4.57h-4.53Zm0,31.74V34.32h4.53V57Z"/><path class="cls-1" d="M175.42,57h-4.53V25.26h4.53Z"/><path class="cls-1" d="M185.65,57h-4.53V25.26h4.53Z"/><path class="cls-1" d="M191.31,57V52.43H214V47.9H191.31V34.32h27.17v4.53H195.84v4.53h22.64V57Z"/><path class="cls-2" d="M224.14,57V34.32h22.64v4.53h4.53V57h-4.53V38.85H228.67V57Z"/><path class="cls-2" d="M257,57V34.32h27.17v4.53H261.5v4.53h22.64V47.9H261.5v4.53h22.64V57Z"/><path class="cls-2" d="M317,57H289.8V25.26h4.53v9.06H317v4.53H294.33V52.43H317Z"/></g></g></svg>