<svg width="240" height="320" viewBox="0 0 240 320" fill="none" xmlns="http://www.w3.org/2000/svg">
<path d="M238.532 136.352L186.862 105.118C184.844 103.886 182.25 105.335 182.25 107.727L182.034 170.268C182.034 172.659 179.439 174.109 177.421 172.877L4.75629 68.4484C2.7385 67.2164 0.144093 68.6658 0.144093 71.0573L0 280.349C0 282.741 2.59441 284.262 4.6122 282.958L41.3648 260.71L56.0658 251.796C58.0835 250.564 60.6778 252.014 60.6778 254.405V316.946C60.6778 317.091 60.6778 317.164 60.6778 317.308C60.894 319.483 63.3442 320.715 65.29 319.555L116.96 288.321C118.905 287.089 118.905 284.262 116.96 283.03L68.7491 253.898L65.0737 251.651C63.128 250.419 63.128 247.593 65.0737 246.361L116.744 215.127C116.888 215.054 117.032 214.982 117.176 214.909L238.604 141.57C240.477 140.411 240.477 137.512 238.532 136.352Z" fill="#F9F9FA"/>
<path fill-rule="evenodd" clip-rule="evenodd" d="M124 3.77496V80.2249C124 83.1569 127.285 84.966 129.865 83.4548L195.125 45.2293C197.625 43.7651 197.625 40.2357 195.125 38.7705L129.865 0.545113C127.285 -0.966106 124 0.843811 124 3.77496Z" fill="#F9F9FA"/>
</svg>