<svg width="455" height="533" viewBox="0 0 455 533" fill="none" xmlns="http://www.w3.org/2000/svg">
<path d="M323.195 235.438L8.6501 46.2073C4.98042 43.981 0.262056 46.6001 0.262056 50.9216L0 429.121C0 433.443 4.71804 436.193 8.38773 433.836L323.195 244.867C326.864 242.902 326.864 237.664 323.195 235.438Z" fill="#92C8EE"/>
<path d="M238.185 67.4511V172.437C238.185 176.452 242.557 178.885 245.958 176.817L333.048 124.385C336.327 122.316 336.327 117.572 333.048 115.504L245.958 63.0716C242.557 61.0035 238.185 63.4365 238.185 67.4511Z" fill="#69B3E7"/>
<path d="M137.447 5.98427V110.971C137.447 114.985 141.858 117.418 145.289 115.35L233.143 62.9177C236.451 60.8496 236.451 56.1052 233.143 54.0371L145.289 1.60478C141.858 -0.463318 137.447 1.96973 137.447 5.98427Z" fill="#92C8EE"/>
<path d="M300.787 176.533L300.783 176.535C298.046 178.2 294.529 176.242 294.529 173.01V68.0238C294.529 64.7921 298.046 62.8344 300.783 64.4988L300.787 64.501L387.867 116.928C390.514 118.605 390.514 122.429 387.867 124.106L300.787 176.533Z" stroke="#69B3E7" stroke-width="2"/>
<path d="M363.824 471.913L363.82 471.915C361.04 473.591 357.495 471.611 357.495 468.392V363.406C357.495 360.188 361.04 358.207 363.82 359.883L363.824 359.885L451.668 412.312C454.339 413.989 454.339 417.809 451.668 419.486L363.824 471.913Z" stroke="#92C8EE" stroke-width="2"/>
<path d="M254 427.898V528.102C254 531.933 258.268 534.255 261.588 532.282L346.599 482.238C349.8 480.264 349.8 475.736 346.599 473.762L261.588 423.718C258.268 421.745 254 424.067 254 427.898Z" fill="#92C8EE"/>
</svg>