<svg width="156" height="68" viewBox="0 0 156 68" fill="none" xmlns="http://www.w3.org/2000/svg">
<mask id="mask0" mask-type="alpha" maskUnits="userSpaceOnUse" x="0" y="0" width="156" height="68">
<rect width="156" height="68" rx="8" fill="#69B3E7"/>
</mask>
<g mask="url(#mask0)">
<mask id="mask1" mask-type="alpha" maskUnits="userSpaceOnUse" x="81" y="19" width="69" height="91">
<path fill-rule="evenodd" clip-rule="evenodd" d="M81.8965 19.5763H149.697V109.348H81.8965V19.5763Z" fill="white"/>
</mask>
<g mask="url(#mask1)">
<path fill-rule="evenodd" clip-rule="evenodd" d="M149.135 35.4927L129.581 19.8002C128.808 19.1796 127.823 19.9224 127.823 21.1258V52.5113C127.823 53.7147 126.839 54.4575 126.065 53.8369L106.511 38.1444V38.1439L83.6539 19.8002C82.8806 19.1796 81.8961 19.9224 81.8961 21.1258V89.3692C81.8961 90.572 82.8801 91.3148 83.6535 90.6959L103.102 75.0873C103.875 74.4667 104.86 75.2095 104.86 76.4128V107.798C104.86 109.002 105.844 109.745 106.617 109.124L126.171 93.4315C126.92 92.8298 126.92 91.3809 126.171 90.7798L106.511 75.0023C105.815 74.4434 105.767 73.1517 106.367 72.4894H106.338L149.135 38.1439C149.884 37.5427 149.884 36.0938 149.135 35.4927Z" fill="white"/>
</g>
<path fill-rule="evenodd" clip-rule="evenodd" d="M104.928 1.55558V33.1732C104.928 34.3855 105.91 35.1338 106.682 34.5086L126.187 18.7001C126.934 18.0939 126.934 16.6343 126.187 16.0287L106.682 0.220201C105.91 -0.404955 104.928 0.343329 104.928 1.55558Z" fill="white"/>
<path fill-rule="evenodd" clip-rule="evenodd" d="M58.6006 5.79289V37.4105C58.6006 38.6228 59.5826 39.3711 60.3541 38.7459L79.8594 22.9374C80.6067 22.3312 80.6067 20.8716 79.8594 20.266L60.3541 4.45751C59.5826 3.83235 58.6006 4.58063 58.6006 5.79289Z" fill="white"/>
<path fill-rule="evenodd" clip-rule="evenodd" d="M32 30.561V62.1786C32 63.3909 32.9821 64.1391 33.7535 63.514L53.2588 47.7054C54.0061 47.0993 54.0061 45.6397 53.2588 45.0341L33.7535 29.2256C32.9821 28.6004 32 29.3487 32 30.561Z" fill="white"/>
</g>
</svg>
