<svg width="341" height="275" viewBox="0 0 341 275" fill="none" xmlns="http://www.w3.org/2000/svg">
<path d="M299.224 72.0464H248.414V117.128H299.224V72.0464Z" stroke="#69B3E7" stroke-width="2.4" stroke-miterlimit="10"/>
<path d="M261.184 48.7106C264.071 45.1934 268.453 42.9612 273.343 42.9612H275.789C283.872 42.9612 290.393 49.4885 290.393 57.5038V59.0595H296.711V55.7114C296.711 44.5846 287.642 35.5547 276.468 35.5547H272.291C260.267 35.5547 250.52 45.261 250.52 57.2333V72.0464" stroke="#69B3E7" stroke-width="2.4" stroke-miterlimit="10"/>
<path d="M257.652 72.0465V58.5862C257.652 56.0835 258.264 53.6823 259.317 51.5854" stroke="#69B3E7" stroke-width="2.4" stroke-miterlimit="10"/>
<path d="M277.759 97.0056L277.046 92.0003C277.997 91.1209 278.609 89.8358 278.609 88.4492C278.609 85.7436 276.401 83.5791 273.718 83.5791C271.001 83.5791 268.827 85.7774 268.827 88.4492C268.827 89.8358 269.438 91.1209 270.389 92.0003L268.317 106.408H279.118L278.269 100.354" stroke="#69B3E7" stroke-width="2.4" stroke-miterlimit="10"/>
<path d="M192.577 93.0151H228.613V168.197H134.601" stroke="#69B3E7" stroke-width="2.4" stroke-miterlimit="10"/>
<path d="M128.453 168.197H109.399V93.0151H186.056" stroke="#69B3E7" stroke-width="2.4" stroke-miterlimit="10"/>
<path d="M234.659 174.014H103.354V90.3094C103.354 88.6522 104.712 87.2656 106.41 87.2656H230.617C232.791 87.2656 234.591 89.0581 234.591 91.2226V174.014H234.659Z" stroke="#69B3E7" stroke-width="2.4" stroke-miterlimit="10"/>
<path d="M248.652 184.43H89.2925C85.047 184.43 81.6846 181.014 81.6846 176.854V174.081H155.93H256.124V177.057C256.124 181.082 252.762 184.43 248.652 184.43Z" stroke="#69B3E7" stroke-width="2.4" stroke-miterlimit="10"/>
<path d="M183.712 174.014V179.222H171.621H169.447H167.443H156.201V175.063V174.014" stroke="#69B3E7" stroke-width="2.4" stroke-miterlimit="10"/>
<path d="M198.622 72.8923L189.724 66.1283L198.622 59.3643" stroke="#69B3E7" stroke-width="2.4" stroke-miterlimit="10"/>
<path d="M125.192 213.617L139.186 202.998" stroke="#69B3E7" stroke-width="2.4" stroke-miterlimit="10"/>
<path d="M139.661 230.053L125.192 219.062" stroke="#69B3E7" stroke-width="2.4" stroke-miterlimit="10"/>
<path d="M218.56 72.8923L227.424 66.1283L218.56 59.3643" stroke="#69B3E7" stroke-width="2.4" stroke-miterlimit="10"/>
<path d="M213.499 57.7744L203.718 74.9549" stroke="#69B3E7" stroke-width="2.4" stroke-miterlimit="10"/>
<path d="M57.7389 76.3755H157.186C157.186 76.3755 156.303 66.4325 151.548 60.5816C145.366 52.803 134.022 54.5617 132.732 55.2043C132.732 55.2043 132.902 43.7393 123.867 38.7001C107.055 29.3997 97.1373 45.3627 97.1373 45.3627C97.1373 45.3627 89.0878 28.3851 70.2717 36.1636C58.0446 41.2028 57.7049 56.9967 57.7049 56.9967C57.7049 56.9967 45.5458 55.7116 42.7267 62.2726C40.1115 68.6984 44.9344 76.3755 57.7389 76.3755Z" stroke="#69B3E7" stroke-width="2.4" stroke-miterlimit="10"/>
<path d="M69.6606 58.045C69.6606 58.045 69.0153 49.7253 77.5403 46.9858" stroke="#69B3E7" stroke-width="2.4" stroke-miterlimit="10"/>
<path d="M106.104 67.9546H127.331" stroke="#69B3E7" stroke-width="2.4" stroke-miterlimit="10"/>
<path d="M133.377 67.9546H138.607" stroke="#69B3E7" stroke-width="2.4" stroke-miterlimit="10"/>
<path d="M208.166 227.416H291.582C291.582 227.416 290.835 219.096 286.861 214.192C281.665 207.665 272.155 209.153 271.068 209.694C271.068 209.694 271.204 200.089 263.63 195.862C249.535 188.049 241.214 201.442 241.214 201.442C241.214 201.442 234.455 187.204 218.661 193.697C208.404 197.925 208.132 211.182 208.132 211.182C208.132 211.182 197.943 210.1 195.566 215.612C193.392 220.956 197.434 227.416 208.166 227.416Z" stroke="#69B3E7" stroke-width="2.4" stroke-miterlimit="10"/>
<path d="M218.152 211.994C218.152 211.994 217.609 204.993 224.775 202.727" stroke="#69B3E7" stroke-width="2.4" stroke-miterlimit="10"/>
<path d="M248.72 220.348H266.551" stroke="#69B3E7" stroke-width="2.4" stroke-miterlimit="10"/>
<path d="M271.611 220.348H275.993" stroke="#69B3E7" stroke-width="2.4" stroke-miterlimit="10"/>
<path d="M140.781 111.582H120.029V99.373H216.521V111.582H147.744" stroke="#69B3E7" stroke-width="2.4" stroke-miterlimit="10"/>
<path d="M120.029 118.989H163.062" stroke="#69B3E7" stroke-width="2.4" stroke-miterlimit="10"/>
<path d="M140.272 125.009H163.062" stroke="#69B3E7" stroke-width="2.4" stroke-miterlimit="10"/>
<path d="M120.029 125.009H136.23" stroke="#69B3E7" stroke-width="2.4" stroke-miterlimit="10"/>
<path d="M120.029 130.995H163.062" stroke="#69B3E7" stroke-width="2.4" stroke-miterlimit="10"/>
<path d="M199.743 118.989H217.778" stroke="#69B3E7" stroke-width="2.4" stroke-miterlimit="10"/>
<path d="M174.746 118.989H193.902" stroke="#69B3E7" stroke-width="2.4" stroke-miterlimit="10"/>
<path d="M174.746 125.009H217.779" stroke="#69B3E7" stroke-width="2.4" stroke-miterlimit="10"/>
<path d="M174.746 130.995H217.779" stroke="#69B3E7" stroke-width="2.4" stroke-miterlimit="10"/>
<path d="M202.97 141.174L211.766 155.785" stroke="#69B3E7" stroke-width="2.4" stroke-miterlimit="10"/>
<path d="M180.859 146.991L189.996 157.983L199.743 141.174" stroke="#69B3E7" stroke-width="2.4" stroke-miterlimit="10"/>
<path d="M156.065 140.904L167.817 157.983L176.953 146.991" stroke="#69B3E7" stroke-width="2.4" stroke-miterlimit="10"/>
<path d="M124.479 156.123L131.001 150.779L139.967 157.983L152.364 140.904" stroke="#69B3E7" stroke-width="2.4" stroke-miterlimit="10"/>
<path d="M122.203 160.587C123.723 160.587 124.954 159.361 124.954 157.848C124.954 156.335 123.723 155.108 122.203 155.108C120.684 155.108 119.452 156.335 119.452 157.848C119.452 159.361 120.684 160.587 122.203 160.587Z" stroke="#69B3E7" stroke-width="2.4" stroke-miterlimit="10"/>
<path d="M142.65 204.891C144.901 204.891 146.726 203.074 146.726 200.833C146.726 198.591 144.901 196.774 142.65 196.774C140.399 196.774 138.574 198.591 138.574 200.833C138.574 203.074 140.399 204.891 142.65 204.891Z" stroke="#69B3E7" stroke-width="2.4" stroke-miterlimit="10"/>
<path d="M121.116 220.415C123.367 220.415 125.191 218.598 125.191 216.356C125.191 214.115 123.367 212.298 121.116 212.298C118.865 212.298 117.04 214.115 117.04 216.356C117.04 218.598 118.865 220.415 121.116 220.415Z" stroke="#69B3E7" stroke-width="2.4" stroke-miterlimit="10"/>
<path d="M142.65 236.885C144.901 236.885 146.726 235.068 146.726 232.826C146.726 230.585 144.901 228.768 142.65 228.768C140.399 228.768 138.574 230.585 138.574 232.826C138.574 235.068 140.399 236.885 142.65 236.885Z" stroke="#69B3E7" stroke-width="2.4" stroke-miterlimit="10"/>
<path d="M178.991 147.567C180.511 147.567 181.742 146.34 181.742 144.827C181.742 143.314 180.511 142.088 178.991 142.088C177.472 142.088 176.24 143.314 176.24 144.827C176.24 146.34 177.472 147.567 178.991 147.567Z" stroke="#69B3E7" stroke-width="2.4" stroke-miterlimit="10"/>
<path d="M201.237 140.87C202.757 140.87 203.989 139.644 203.989 138.131C203.989 136.618 202.757 135.392 201.237 135.392C199.718 135.392 198.486 136.618 198.486 138.131C198.486 139.644 199.718 140.87 201.237 140.87Z" stroke="#69B3E7" stroke-width="2.4" stroke-miterlimit="10"/>
<path d="M154.571 141.141C156.091 141.141 157.323 139.914 157.323 138.402C157.323 136.889 156.091 135.662 154.571 135.662C153.052 135.662 151.82 136.889 151.82 138.402C151.82 139.914 153.052 141.141 154.571 141.141Z" stroke="#69B3E7" stroke-width="2.4" stroke-miterlimit="10"/>
<path d="M213.058 160.587C214.577 160.587 215.809 159.361 215.809 157.848C215.809 156.335 214.577 155.108 213.058 155.108C211.538 155.108 210.307 156.335 210.307 157.848C210.307 159.361 211.538 160.587 213.058 160.587Z" stroke="#69B3E7" stroke-width="2.4" stroke-miterlimit="10"/>
<path d="M69.8306 106.171L61.0678 115.404H36.6816C34.4739 115.404 32.6738 117.095 32.6738 119.158V149.731C32.6738 151.794 34.4739 153.485 36.6816 153.485H87.8316C90.0392 153.485 91.8393 151.794 91.8393 149.731V125.584V119.158V106.171H69.8306V106.171Z" stroke="#69B3E7" stroke-width="2.4" stroke-miterlimit="10"/>
<path d="M34.9834 115.742V114.152C34.9834 111.819 37.0212 109.891 39.5346 109.891L60.1169 109.756" stroke="#69B3E7" stroke-width="2.4" stroke-miterlimit="10"/>
<path d="M37.9043 125.516H60.0829" stroke="#69B3E7" stroke-width="2.4" stroke-miterlimit="10"/>
<path d="M37.9043 131.13H60.0829" stroke="#69B3E7" stroke-width="2.4" stroke-miterlimit="10"/>
<path d="M59.6074 155.108V164.578H103.591" stroke="#69B3E7" stroke-width="2.4" stroke-miterlimit="10" stroke-dasharray="10 10"/>
<path d="M150.461 57.7065H168.971V87.2652" stroke="#69B3E7" stroke-width="2.4" stroke-miterlimit="10" stroke-dasharray="10 10"/>
<path d="M176.24 184.43V216.322H192.407" stroke="#69B3E7" stroke-width="2.4" stroke-miterlimit="10" stroke-dasharray="10 10"/>
<path d="M234.692 109.79H248.618" stroke="#69B3E7" stroke-width="2.4" stroke-miterlimit="10" stroke-dasharray="10 10"/>
<path d="M69.695 216.289C73.3716 216.289 76.352 213.321 76.352 209.66C76.352 205.999 73.3716 203.031 69.695 203.031C66.0185 203.031 63.0381 205.999 63.0381 209.66C63.0381 213.321 66.0185 216.289 69.695 216.289Z" stroke="#69B3E7" stroke-width="2.4" stroke-miterlimit="10"/>
<path d="M67.4531 197.113L65.3134 192.615L61.3396 194.103L62.834 198.871C61.3396 199.818 60.0829 201.036 59.098 202.456L54.343 200.799L52.6787 204.688L57.162 206.954C56.7884 208.578 56.7544 210.235 57.0601 211.892L52.0674 214.226L53.5618 218.183L58.8262 216.525C59.7772 217.98 60.8981 219.163 62.2566 220.11L60.4905 225.048L64.3964 226.773L66.8078 222.173C68.4381 222.545 70.1363 222.579 71.8005 222.275L73.9403 226.942L77.9141 225.454L76.4197 220.584C77.982 219.603 79.2387 218.352 80.2236 216.897L85.1145 218.622L86.7787 214.733L82.1596 212.399C82.4653 210.911 82.2275 207.665 82.2275 207.665L87.2882 205.399L85.7938 201.442L80.4954 203.065C79.6123 201.678 78.4575 200.461 77.1669 199.548L78.933 194.779L75.0271 193.054L72.6836 197.451C70.9854 196.91 69.2193 196.808 67.4531 197.113Z" stroke="#69B3E7" stroke-width="2.4" stroke-miterlimit="10"/>
<path d="M273.581 155.785C277.708 155.785 281.054 152.453 281.054 148.344C281.054 144.235 277.708 140.904 273.581 140.904C269.455 140.904 266.109 144.235 266.109 148.344C266.109 152.453 269.455 155.785 273.581 155.785Z" stroke="#69B3E7" stroke-width="2.4" stroke-miterlimit="10"/>
<path d="M271.068 134.275L268.657 129.202L264.207 130.893L265.906 136.237C264.207 137.285 262.815 138.672 261.694 140.261L256.362 138.401L254.494 142.764L259.52 145.334C259.113 147.127 259.045 148.987 259.419 150.847L253.814 153.451L255.513 157.881L261.422 156.021C262.475 157.645 263.766 158.997 265.294 160.046L263.29 165.559L267.672 167.486L270.355 162.312C272.155 162.718 274.091 162.785 275.959 162.413L278.37 167.655L282.82 165.964L281.122 160.486C282.888 159.369 284.28 157.983 285.401 156.36L290.903 158.287L292.771 153.924L287.575 151.32C287.914 149.629 287.643 146.011 287.643 146.011L293.315 143.44L291.616 139.01L285.639 140.802C284.654 139.247 283.363 137.894 281.903 136.845L283.907 131.502L279.525 129.574L276.91 134.512C275.042 134.038 273.072 133.903 271.068 134.275Z" stroke="#69B3E7" stroke-width="2.4" stroke-miterlimit="10"/>
</svg>
